<?xml version="1.0" standalone="no"?>
<!DOCTYPE svg PUBLIC "-//W3C//DTD SVG 1.1//EN"
  "http://www.w3.org/Graphics/SVG/1.1/DTD/svg11.dtd">
<svg width="42mm" height="102mm" viewBox="-11 -51 42 102" xmlns="http://www.w3.org/2000/svg" version="1.1">
	<title>svgOutput</title>
	<desc>made with tinkercad</desc>
<path d="M 30 50 L 21.500999450683594 50 L 15.50100040435791 50 L 9 50 L -3.002000093460083 50 L -5.502999782562256 50 L -8.170000076293945 50 L -10 50 L -10 -50 L -8.170000076293945 -50 L -5.502999782562256 -50 L -4.501999855041504 -50 L -3.002000093460083 -50 L -0.0020000000949949026 -50 L 1.4989999532699585 -50 L 9 -50 L 11.5 -50 L 14.5 -50 L 15.50100040435791 -50 L 16.500999450683594 -50 L 18.500999450683594 -50 L 19.500999450683594 -50 L 22.50200080871582 -50 L 23.50200080871582 -50 L 26.50200080871582 -50 L 29.003000259399414 -50 L 30 -50 L 30 20.000999450683594 L 30 22.079999923706055 L 30 27.00200080871582 L 30 31.469999313354492 L 30 35.00199890136719 L 30 44.00199890136719 L 30 50 M 19.788000106811523 -24.6200008392334 L 19.832000732421875 -24.576000213623047 L 20.1200008392334 -24.288000106811523 L 20.538000106811523 -24.075000762939453 L 21.000999450683594 -24.000999450683594 L 21.46500015258789 -24.075000762939453 L 21.882999420166016 -24.288000106811523 L 22.17099952697754 -24.576000213623047 L 22.21500015258789 -24.6200008392334 L 22.42799949645996 -25.038000106811523 L 22.50200080871582 -25.500999450683594 L 22.42799949645996 -25.96500015258789 L 22.21500015258789 -26.382999420166016 L 21.882999420166016 -26.71500015258789 L 21.46500015258789 -26.92799949645996 L 21.000999450683594 -27.00200080871582 L 20.538000106811523 -26.92799949645996 L 20.479999542236328 -26.89844512939453 L 20.1200008392334 -26.71500015258789 L 19.788000106811523 -26.382999420166016 L 19.575000762939453 -25.96500015258789 L 19.500999450683594 -25.500999450683594 L 19.575000762939453 -25.038000106811523 L 19.788000106811523 -24.6200008392334 M 25.465999603271484 -26.92799949645996 L 25.00200080871582 -27.00200080871582 L 24.576000213623047 -26.93406105041504 L 24.538000106811523 -26.92799949645996 L 24.1200008392334 -26.71500015258789 L 23.788000106811523 -26.382999420166016 L 23.575000762939453 -25.96500015258789 L 23.50200080871582 -25.500999450683594 L 23.575000762939453 -25.038000106811523 L 23.788000106811523 -24.6200008392334 L 23.832000732421875 -24.576000213623047 L 24.1200008392334 -24.288000106811523 L 24.538000106811523 -24.075000762939453 L 25.00200080871582 -24.000999450683594 L 25.465999603271484 -24.075000762939453 L 25.884000778198242 -24.288000106811523 L 26.172000885009766 -24.576000213623047 L 26.215999603271484 -24.6200008392334 L 26.429000854492188 -25.038000106811523 L 26.50200080871582 -25.500999450683594 L 26.429000854492188 -25.96500015258789 L 26.215999603271484 -26.382999420166016 L 25.884000778198242 -26.71500015258789 L 25.465999603271484 -26.92799949645996 M 22.50200080871582 -43.89099884033203 L 22.05900001525879 -44.33399963378906 L 21.08300018310547 -44.83100128173828 L 20.000999450683594 -45.00299835205078 L 19.500999450683594 -44.923519134521484 L 18.91900062561035 -44.83100128173828 L 18.500999450683594 -44.61792755126953 L 17.944000244140625 -44.33399963378906 L 17.16900062561035 -43.560001373291016 L 16.672000885009766 -42.58399963378906 L 16.500999450683594 -41.50199890136719 L 16.58673667907715 -40.959999084472656 L 16.672000885009766 -40.42100143432617 L 17.16900062561035 -39.44499969482422 L 17.944000244140625 -38.67100143432617 L 18.500999450683594 -38.38650131225586 L 18.91900062561035 -38.17300033569336 L 19.500999450683594 -38.08102035522461 L 20.000999450683594 -38.00199890136719 L 21.08300018310547 -38.17300033569336 L 22.05900001525879 -38.67100143432617 L 22.50200080871582 -39.11399841308594 L 22.83300018310547 -39.44499969482422 L 23.329999923706055 -40.42100143432617 L 23.415761947631836 -40.959999084472656 L 23.50200080871582 -41.50199890136719 L 23.329999923706055 -42.58399963378906 L 22.83300018310547 -43.560001373291016 L 22.50200080871582 -43.89099884033203 M 22.091999053955078 -19.511999130249023 L 19.000999450683594 -20.000999450683594 L 16.384000778198242 -19.586986541748047 L 15.90999984741211 -19.511999130249023 L 13.121999740600586 -18.090999603271484 L 10.90999984741211 -15.878999710083008 L 9.48900032043457 -13.090999603271484 L 9 -10.00100040435791 L 9.48900032043457 -6.909999847412109 L 10.90999984741211 -4.122000217437744 L 13.121999740600586 -1.909999966621399 L 15.90999984741211 -0.488999992609024 L 16.384000778198242 -0.41401261091232294 L 19.000999450683594 4.440892164675075e-17 L 16.384000778198242 0.41401261091232305 L 15.90999984741211 0.4889999926090241 L 13.121999740600586 1.909999966621399 L 10.90999984741211 4.122000217437744 L 9.48900032043457 6.909999847412109 L 9 10.00100040435791 L 9.48900032043457 13.090999603271484 L 10.90999984741211 15.878999710083008 L 13.121999740600586 18.090999603271484 L 15.90999984741211 19.511999130249023 L 16.384000778198242 19.586986541748047 L 19.000999450683594 20.000999450683594 L 22.091999053955078 19.511999130249023 L 24.8799991607666 18.090999603271484 L 27.091999053955078 15.878999710083008 L 28.51300048828125 13.090999603271484 L 29.003000259399414 10.00100040435791 L 28.51300048828125 6.909999847412109 L 27.091999053955078 4.122000217437744 L 24.8799991607666 1.909999966621399 L 22.091999053955078 0.4889999926090241 L 19.000999450683594 4.440892164675075e-17 L 22.091999053955078 -0.488999992609024 L 24.8799991607666 -1.909999966621399 L 27.091999053955078 -4.122000217437744 L 28.51300048828125 -6.909999847412109 L 29.003000259399414 -10.00100040435791 L 28.51300048828125 -13.090999603271484 L 27.091999053955078 -15.878999710083008 L 24.8799991607666 -18.090999603271484 L 22.091999053955078 -19.511999130249023 M 16.53700065612793 -26.92799949645996 L 16.384000778198242 -26.85003662109375 L 16.118999481201172 -26.71500015258789 L 15.786999702453613 -26.382999420166016 L 15.574000358581543 -25.96500015258789 L 15.50100040435791 -25.500999450683594 L 15.574000358581543 -25.038000106811523 L 15.786999702453613 -24.6200008392334 L 15.831000328063965 -24.576000213623047 L 16.118999481201172 -24.288000106811523 L 16.53700065612793 -24.075000762939453 L 17.000999450683594 -24.000999450683594 L 17.464000701904297 -24.075000762939453 L 17.882999420166016 -24.288000106811523 L 18.17013168334961 -24.576000213623047 L 18.214000701904297 -24.6200008392334 L 18.42799949645996 -25.038000106811523 L 18.500999450683594 -25.500999450683594 L 18.42799949645996 -25.96500015258789 L 18.214000701904297 -26.382999420166016 L 17.882999420166016 -26.71500015258789 L 17.464000701904297 -26.92799949645996 L 17.000999450683594 -27.00200080871582 L 16.53700065612793 -26.92799949645996 M 0.37599998712539673 28.27400016784668 L 0.49799999594688416 27.50200080871582 L 0.37599998712539673 26.729000091552734 L 0.020999999716877937 26.031999588012695 L -0.5320000052452087 25.479000091552734 L -1.2289999723434448 25.124000549316406 L -2.002000093460083 25.000999450683594 L -2.7750000953674316 25.124000549316406 L -3.002000093460083 25.23961639404297 L -3.4719998836517334 25.479000091552734 L -4.025000095367432 26.031999588012695 L -4.380000114440918 26.729000091552734 L -4.501999855041504 27.50200080871582 L -4.380000114440918 28.27400016784668 L -4.17728853225708 28.672000885009766 L -4.025000095367432 28.97100067138672 L -3.4719998836517334 29.52400016784668 L -3.002000093460083 29.763383865356445 L -2.7750000953674316 29.878999710083008 L -2.002000093460083 30.00200080871582 L -1.2289999723434448 29.878999710083008 L -0.5320000052452087 29.52400016784668 L 0.020999999716877937 28.97100067138672 L 0.17328837513923645 28.672000885009766 L 0.37599998712539673 28.27400016784668 M 12.536999702453613 -26.92799949645996 L 12.288000106811523 -26.801420211791992 L 12.118000030517578 -26.71500015258789 L 11.78600025177002 -26.382999420166016 L 11.572999954223633 -25.96500015258789 L 11.5 -25.500999450683594 L 11.572999954223633 -25.038000106811523 L 11.78600025177002 -24.6200008392334 L 11.829999923706055 -24.576000213623047 L 12.118000030517578 -24.288000106811523 L 12.536999702453613 -24.075000762939453 L 13 -24.000999450683594 L 13.46399974822998 -24.075000762939453 L 13.881999969482422 -24.288000106811523 L 14.170000076293945 -24.576000213623047 L 14.21399974822998 -24.6200008392334 L 14.427000045776367 -25.038000106811523 L 14.5 -25.500999450683594 L 14.427000045776367 -25.96500015258789 L 14.21399974822998 -26.382999420166016 L 13.881999969482422 -26.71500015258789 L 13.46399974822998 -26.92799949645996 L 13 -27.000999450683594 L 12.536999702453613 -26.92799949645996 M -0.2879999876022339 8.381999969482422 L -0.19118182361125946 8.192000389099121 L -0.07500000298023224 7.964000225067139 L -0.0020000000949949026 7.5 L -0.07500000298023224 7.0370001792907715 L -0.2879999876022339 6.61899995803833 L -0.6200000047683716 6.2870001792907715 L -1.0379999876022339 6.073999881744385 L -1.5019999742507935 6 L -1.965999960899353 6.073999881744385 L -2.384000062942505 6.2870001792907715 L -2.7160000801086426 6.61899995803833 L -2.928999900817871 7.0370001792907715 L -3.002000093460083 7.5 L -2.928999900817871 7.964000225067139 L -2.8128182888031006 8.192000389099121 L -2.7160000801086426 8.381999969482422 L -2.384000062942505 8.71399974822998 L -1.965999960899353 8.927000045776367 L -1.5019999742507935 9.00100040435791 L -1.0379999876022339 8.927000045776367 L -0.6200000047683716 8.71399974822998 L -0.2879999876022339 8.381999969482422 M 17.464000701904297 31.075000762939453 L 17.000999450683594 31.00200080871582 L 16.53700065612793 31.075000762939453 L 16.118999481201172 31.288000106811523 L 15.937000274658203 31.469999313354492 L 15.786999702453613 31.6200008392334 L 15.574000358581543 32.03799819946289 L 15.50100040435791 32.50199890136719 L 15.542939186096191 32.768001556396484 L 15.574000358581543 32.96500015258789 L 15.786999702453613 33.38399887084961 L 16.118999481201172 33.71500015258789 L 16.53700065612793 33.928001403808594 L 17.000999450683594 34.00199890136719 L 17.464000701904297 33.928001403808594 L 17.882999420166016 33.71500015258789 L 18.214000701904297 33.38399887084961 L 18.42799949645996 32.96500015258789 L 18.459060668945312 32.768001556396484 L 18.500999450683594 32.50199890136719 L 18.42799949645996 32.03799819946289 L 18.214000701904297 31.6200008392334 L 18.064451217651367 31.469999313354492 L 17.882999420166016 31.288000106811523 L 17.464000701904297 31.075000762939453 M -0.07500000298023224 -7.964000225067139 L -0.19118182361125946 -8.192000389099121 L -0.2879999876022339 -8.381999969482422 L -0.6200000047683716 -8.71399974822998 L -1.0379999876022339 -8.927000045776367 L -1.5019999742507935 -9.00100040435791 L -1.965999960899353 -8.927000045776367 L -2.384000062942505 -8.71399974822998 L -2.7160000801086426 -8.381999969482422 L -2.8128182888031006 -8.192000389099121 L -2.928999900817871 -7.964000225067139 L -3.002000093460083 -7.5 L -2.928999900817871 -7.0370001792907715 L -2.7160000801086426 -6.61899995803833 L -2.384000062942505 -6.2870001792907715 L -1.965999960899353 -6.073999881744385 L -1.5019999742507935 -6 L -1.0379999876022339 -6.073999881744385 L -0.6200000047683716 -6.2870001792907715 L -0.2879999876022339 -6.61899995803833 L -0.07500000298023224 -7.0370001792907715 L -0.0020000000949949026 -7.5 L -0.07500000298023224 -7.964000225067139 M -0.9200000166893005 -44.83100128173828 L -2.002000093460083 -45.00299835205078 L -3.002000093460083 -44.84403610229492 L -3.0840001106262207 -44.83100128173828 L -4.059999942779541 -44.33399963378906 L -4.501999855041504 -43.891998291015625 L -4.834000110626221 -43.560001373291016 L -5.330999851226807 -42.58399963378906 L -5.502999782562256 -41.50199890136719 L -5.330999851226807 -40.42100143432617 L -4.834000110626221 -39.44499969482422 L -4.501999855041504 -39.112998962402344 L -4.059999942779541 -38.67100143432617 L -3.0840001106262207 -38.17300033569336 L -3.002000093460083 -38.16004180908203 L -2.002000093460083 -38.00199890136719 L -0.9200000166893005 -38.17300033569336 L -0.0020000000949949026 -38.64140701293945 L 0 -38.642425537109375 L 0.0560000017285347 -38.67100143432617 L 0.8299999833106995 -39.44499969482422 L 1.3270000219345093 -40.42100143432617 L 1.4989999532699585 -41.50199890136719 L 1.3270000219345093 -42.58399963378906 L 0.8299999833106995 -43.560001373291016 L 0.0560000017285347 -44.33399963378906 L 0 -44.36251449584961 L -0.0020000000949949026 -44.36353302001953 L -0.9200000166893005 -44.83100128173828 M 17.464000701904297 24.075000762939453 L 17.000999450683594 24.000999450683594 L 16.53700065612793 24.075000762939453 L 16.118999481201172 24.288000106811523 L 15.831000328063965 24.576000213623047 L 15.786999702453613 24.6200008392334 L 15.574000358581543 25.038000106811523 L 15.50100040435791 25.500999450683594 L 15.574000358581543 25.96500015258789 L 15.786999702453613 26.382999420166016 L 16.118999481201172 26.71500015258789 L 16.384000778198242 26.85003662109375 L 16.53700065612793 26.92799949645996 L 17.000999450683594 27.00200080871582 L 17.464000701904297 26.92799949645996 L 17.882999420166016 26.71500015258789 L 18.214000701904297 26.382999420166016 L 18.42799949645996 25.96500015258789 L 18.500999450683594 25.500999450683594 L 18.42799949645996 25.038000106811523 L 18.214000701904297 24.6200008392334 L 18.17013168334961 24.576000213623047 L 17.882999420166016 24.288000106811523 L 17.464000701904297 24.075000762939453 M 24.77400016784668 30.124000549316406 L 24.576000213623047 30.092710494995117 L 24.00200080871582 30.00200080871582 L 23.229000091552734 30.124000549316406 L 22.531999588012695 30.479000091552734 L 21.979000091552734 31.031999588012695 L 21.75591468811035 31.469999313354492 L 21.624000549316406 31.729000091552734 L 21.500999450683594 32.50199890136719 L 21.624000549316406 33.27399826049805 L 21.979000091552734 33.97100067138672 L 22.531999588012695 34.52399826049805 L 23.229000091552734 34.880001068115234 L 24.00200080871582 35.00199890136719 L 24.576000213623047 34.91128921508789 L 24.77400016784668 34.880001068115234 L 25.47100067138672 34.52399826049805 L 26.024999618530273 33.97100067138672 L 26.3799991607666 33.27399826049805 L 26.50200080871582 32.50199890136719 L 26.3799991607666 31.729000091552734 L 26.248085021972656 31.469999313354492 L 26.024999618530273 31.031999588012695 L 25.47100067138672 30.479000091552734 L 24.77400016784668 30.124000549316406 M -1.2289999723434448 -29.878999710083008 L -2.002000093460083 -30.00200080871582 L -2.7750000953674316 -29.878999710083008 L -3.002000093460083 -29.763383865356445 L -3.4719998836517334 -29.52400016784668 L -4.025000095367432 -28.97100067138672 L -4.17728853225708 -28.672000885009766 L -4.380000114440918 -28.27400016784668 L -4.501999855041504 -27.50200080871582 L -4.380000114440918 -26.729000091552734 L -4.025000095367432 -26.031999588012695 L -3.4719998836517334 -25.479000091552734 L -3.002000093460083 -25.23961639404297 L -2.7750000953674316 -25.124000549316406 L -2.002000093460083 -25.000999450683594 L -1.2289999723434448 -25.124000549316406 L -0.5320000052452087 -25.479000091552734 L -0.0020000000949949026 -26.009000778198242 L 0.020999999716877937 -26.031999588012695 L 0.37599998712539673 -26.729000091552734 L 0.49799999594688416 -27.50200080871582 L 0.37599998712539673 -28.27400016784668 L 0.17328837513923645 -28.672000885009766 L 0.020999999716877937 -28.97100067138672 L -0.0020000000949949026 -28.993999481201172 L -0.5320000052452087 -29.52400016784668 L -1.2289999723434448 -29.878999710083008 M -3.0840001106262207 44.83100128173828 L -3.002000093460083 44.84403610229492 L -2.002000093460083 45.00299835205078 L -0.9200000166893005 44.83100128173828 L 0 44.36251449584961 L 0.0560000017285347 44.33399963378906 L 0.8299999833106995 43.560001373291016 L 1.3270000219345093 42.58399963378906 L 1.4989999532699585 41.50199890136719 L 1.3270000219345093 40.42100143432617 L 0.8299999833106995 39.44499969482422 L 0.0560000017285347 38.67100143432617 L 0 38.642425537109375 L -0.9200000166893005 38.17300033569336 L -2.002000093460083 38.00199890136719 L -3.002000093460083 38.16004180908203 L -3.0840001106262207 38.17300033569336 L -4.059999942779541 38.67100143432617 L -4.834000110626221 39.44499969482422 L -5.330999851226807 40.42100143432617 L -5.502999782562256 41.50199890136719 L -5.330999851226807 42.58399963378906 L -4.834000110626221 43.560001373291016 L -4.059999942779541 44.33399963378906 L -3.0840001106262207 44.83100128173828 M -3.002000093460083 -15.238616943359375 L -2.7750000953674316 -15.123000144958496 L -2.002000093460083 -15.00100040435791 L -1.2289999723434448 -15.123000144958496 L -0.5320000052452087 -15.477999687194824 L -0.0020000000949949026 -16.007999420166016 L 0.020999999716877937 -16.0310001373291 L 0.20079196989536285 -16.384000778198242 L 0.37599998712539673 -16.72800064086914 L 0.49799999594688416 -17.500999450683594 L 0.37599998712539673 -18.27400016784668 L 0.020999999716877937 -18.97100067138672 L -0.0020000000949949026 -18.993999481201172 L -0.5320000052452087 -19.52400016784668 L -1.2289999723434448 -19.878999710083008 L -2.002000093460083 -20.000999450683594 L -2.7750000953674316 -19.878999710083008 L -3.002000093460083 -19.763383865356445 L -3.4719998836517334 -19.52400016784668 L -4.025000095367432 -18.97100067138672 L -4.380000114440918 -18.27400016784668 L -4.501999855041504 -17.500999450683594 L -4.380000114440918 -16.72800064086914 L -4.204792022705078 -16.384000778198242 L -4.025000095367432 -16.0310001373291 L -3.4719998836517334 -15.477999687194824 L -3.002000093460083 -15.238616943359375 M 18.42799949645996 41.03900146484375 L 18.387554168701172 40.959999084472656 L 18.214000701904297 40.62099838256836 L 17.882999420166016 40.28900146484375 L 17.464000701904297 40.07600021362305 L 17.000999450683594 40.00199890136719 L 16.53700065612793 40.07600021362305 L 16.118999481201172 40.28900146484375 L 15.786999702453613 40.62099838256836 L 15.614255905151367 40.959999084472656 L 15.574000358581543 41.03900146484375 L 15.50100040435791 41.50199890136719 L 15.574000358581543 41.965999603271484 L 15.786999702453613 42.38399887084961 L 16.118999481201172 42.715999603271484 L 16.53700065612793 42.92900085449219 L 17.000999450683594 43.00199890136719 L 17.464000701904297 42.92900085449219 L 17.882999420166016 42.715999603271484 L 18.214000701904297 42.38399887084961 L 18.42799949645996 41.965999603271484 L 18.500999450683594 41.50199890136719 L 18.42799949645996 41.03900146484375 M -3.002000093460083 19.763383865356445 L -2.7750000953674316 19.878999710083008 L -2.002000093460083 20.000999450683594 L -1.2289999723434448 19.878999710083008 L -0.5320000052452087 19.52400016784668 L 0.020999999716877937 18.97100067138672 L 0.37599998712539673 18.27400016784668 L 0.49799999594688416 17.500999450683594 L 0.37599998712539673 16.72800064086914 L 0.20079196989536285 16.384000778198242 L 0.020999999716877937 16.0310001373291 L -0.5320000052452087 15.477999687194824 L -1.2289999723434448 15.123000144958496 L -2.002000093460083 15.00100040435791 L -2.7750000953674316 15.123000144958496 L -3.002000093460083 15.238616943359375 L -3.4719998836517334 15.477999687194824 L -4.025000095367432 16.0310001373291 L -4.204792022705078 16.384000778198242 L -4.380000114440918 16.72800064086914 L -4.501999855041504 17.500999450683594 L -4.380000114440918 18.27400016784668 L -4.025000095367432 18.97100067138672 L -3.4719998836517334 19.52400016784668 L -3.002000093460083 19.763383865356445 M 24.576000213623047 39.09345245361328 L 24.00200080871582 39.00199890136719 L 23.229000091552734 39.125 L 22.531999588012695 39.47999954223633 L 21.979000091552734 40.03300094604492 L 21.624000549316406 40.72999954223633 L 21.500999450683594 41.50199890136719 L 21.624000549316406 42.275001525878906 L 21.979000091552734 42.97200012207031 L 22.531999588012695 43.525001525878906 L 23.229000091552734 43.880001068115234 L 24.00200080871582 44.00199890136719 L 24.576000213623047 43.91128921508789 L 24.77400016784668 43.880001068115234 L 25.47100067138672 43.525001525878906 L 26.024999618530273 42.97200012207031 L 26.3799991607666 42.275001525878906 L 26.50200080871582 41.50199890136719 L 26.3799991607666 40.72999954223633 L 26.024999618530273 40.03300094604492 L 25.47100067138672 39.47999954223633 L 24.77400016784668 39.125 L 24.576000213623047 39.09345245361328 z" fill="none" stroke="rgb(0,0,255)" stroke-width="0.01mm" />
</svg>