M48
;DRILL file {KiCad (5.0.0)} date 02/05/19 18:13:46
;FORMAT={-:-/ absolute / metric / decimal}
FMAT,2
METRIC,TZ
T1C0.400
T2C0.500
T3C0.600
T4C0.800
T5C0.900
T6C1.000
T7C1.200
T8C1.400
T9C1.500
T10C2.200
T11C2.500
%
G90
G05
M71
T1
X101.1Y-127.25
X101.1Y-132.5
X101.1Y-97.
X101.446Y-89.205
X101.55Y-90.758
X101.75Y-98.25
X102.075Y-102.75
X102.25Y-91.5
X102.5Y-90.25
X102.55Y-97.244
X102.7Y-109.387
X102.7Y-110.5
X102.806Y-98.211
X103.269Y-91.83
X103.637Y-128.45
X103.75Y-127.
X104.Y-95.
X105.5Y-83.5
X106.Y-127.25
X106.475Y-85.877
X106.5Y-125.25
X106.856Y-88.17
X107.5Y-79.25
X107.797Y-81.035
X108.55Y-80.298
X109.401Y-88.773
X109.415Y-79.528
X110.178Y-78.882
X110.5Y-89.
X110.5Y-119.25
X110.67Y-123.
X112.Y-80.25
X112.Y-93.659
X112.Y-106.75
X112.5Y-104.
X112.75Y-107.5
X112.811Y-74.095
X112.85Y-119.75
X113.167Y-72.975
X113.244Y-104.746
X113.5Y-108.25
X113.789Y-72.192
X114.Y-98.
X114.05Y-105.337
X114.235Y-71.297
X114.636Y-97.108
X118.5Y-71.5
X119.668Y-148.832
X120.Y-126.5
X120.Y-127.5
X120.915Y-70.841
X122.187Y-70.6
X124.25Y-124.5
X125.Y-70.75
X133.5Y-148.9
X133.725Y-130.
X136.25Y-67.25
X138.Y-55.5
X138.5Y-52.
X138.5Y-53.75
X138.5Y-58.75
X140.75Y-97.
X140.75Y-100.
X143.25Y-56.25
X146.16Y-95.
X156.Y-68.
X156.5Y-120.
X156.5Y-123.5
X157.Y-58.
X157.Y-61.
X157.Y-66.3
X163.293Y-109.793
X164.Y-110.5
X166.081Y-106.919
X166.831Y-107.669
X196.6Y-139.325
X196.6Y-141.4
X196.6Y-137.4
X196.8Y-143.6
X158.35Y-130.
X158.833Y-128.833
X158.833Y-131.167
X160.Y-128.35
X160.Y-131.65
X161.167Y-128.833
X161.167Y-131.167
X161.65Y-130.
T2
X104.5Y-109.
X106.592Y-82.353
X106.598Y-84.068
X107.773Y-82.135
X107.859Y-84.402
X108.112Y-125.675
X109.616Y-93.6
X109.726Y-95.251
X110.Y-101.
X110.815Y-93.559
X110.925Y-95.209
X111.02Y-84.5
X111.325Y-89.879
X113.25Y-95.25
X114.Y-88.
X114.5Y-74.25
X115.4Y-79.755
X115.75Y-96.75
X116.317Y-70.675
X116.343Y-74.181
X117.5Y-79.75
X119.75Y-70.5
X143.25Y-58.75
X148.Y-110.
X157.133Y-68.033
X158.095Y-66.191
X163.Y-61.02
X167.Y-139.5
X167.825Y-123.
X172.043Y-129.928
X173.Y-62.
X174.Y-81.
X174.811Y-60.189
X175.348Y-121.652
X176.4Y-133.2
X176.5Y-123.
X176.957Y-135.3
X177.Y-104.
X178.152Y-118.848
X178.283Y-132.517
X179.132Y-133.365
X179.402Y-120.098
X182.Y-63.
X182.Y-68.
X182.Y-111.
X183.2Y-68.
X183.417Y-61.417
X187.Y-76.
X191.939Y-85.061
X193.125Y-70.
X193.674Y-68.674
X193.674Y-71.326
X195.Y-68.125
X195.Y-71.875
X196.326Y-68.674
X196.326Y-71.326
X196.875Y-70.
X158.125Y-70.
X158.674Y-68.674
X158.674Y-71.326
X160.Y-68.125
X160.Y-71.875
X161.326Y-68.674
X161.326Y-71.326
X161.875Y-70.
X193.125Y-130.
X193.674Y-128.674
X193.674Y-131.326
X195.Y-128.125
X195.Y-131.875
X196.326Y-128.674
X196.326Y-131.326
X196.875Y-130.
T4
X177.Y-72.
X179.5Y-72.
X171.615Y-84.345
X171.615Y-86.885
X179.235Y-84.345
X179.235Y-86.885
X177.Y-53.5
X179.5Y-53.5
X144.5Y-133.
X144.5Y-135.5
X177.Y-60.5
X179.5Y-60.5
X143.26Y-79.44
X143.26Y-81.98
X143.26Y-84.52
X143.26Y-87.06
X143.26Y-89.6
X143.26Y-92.14
X143.26Y-94.68
X143.26Y-97.22
X143.26Y-99.76
X143.26Y-102.3
X143.26Y-104.84
X143.26Y-107.38
X143.26Y-109.92
X143.26Y-112.46
X143.26Y-115.
X158.5Y-79.44
X158.5Y-81.98
X158.5Y-84.52
X158.5Y-87.06
X158.5Y-89.6
X158.5Y-92.14
X158.5Y-94.68
X158.5Y-97.22
X158.5Y-99.76
X158.5Y-102.3
X158.5Y-104.84
X158.5Y-107.38
X158.5Y-109.92
X158.5Y-112.46
X158.5Y-115.
T5
X120.Y-141.
X122.54Y-141.
X130.Y-76.46
X130.Y-79.
X135.Y-76.46
X135.Y-79.
X120.Y-76.46
X120.Y-79.
X125.Y-76.46
X125.Y-79.
X120.Y-122.
X122.54Y-122.
X108.Y-128.96
X108.Y-131.5
X108.Y-68.5
X108.Y-71.04
T6
X115.5Y-105.3
X115.5Y-107.84
X115.5Y-110.38
X115.5Y-112.92
X115.5Y-115.46
X115.5Y-118.
X131.Y-53.
X131.Y-55.54
X131.Y-58.08
X131.Y-60.62
X131.Y-63.16
X131.Y-65.7
X131.Y-68.24
X131.Y-70.78
X131.Y-73.32
X104.5Y-137.5
X107.Y-137.5
X109.5Y-137.5
X115.5Y-81.8
X115.5Y-84.34
X115.5Y-86.88
X115.5Y-89.42
X115.5Y-91.96
X115.5Y-94.5
X166.5Y-55.3
X166.5Y-57.84
X166.5Y-60.38
X166.5Y-62.92
X166.5Y-65.46
X166.5Y-68.
X120.Y-53.
X120.Y-67.5
X122.5Y-67.5
X125.Y-53.
X125.Y-67.5
X170.96Y-97.
X173.5Y-97.
X131.Y-122.
X131.Y-124.54
X131.Y-127.08
X131.Y-129.62
X131.Y-132.16
X131.Y-134.7
X131.Y-137.24
X131.Y-139.78
X131.Y-142.32
X131.Y-144.86
X131.Y-147.4
X104.5Y-52.5
X107.Y-52.5
X109.5Y-52.5
X185.5Y-122.
X185.5Y-124.54
X185.5Y-127.08
X185.5Y-129.62
X185.5Y-132.16
X185.5Y-134.7
X185.5Y-137.24
X185.5Y-139.78
X185.5Y-142.32
X185.5Y-144.86
X185.5Y-147.4
X141.96Y-52.5
X141.96Y-55.04
X141.96Y-57.58
X141.96Y-60.12
X141.96Y-62.66
X141.96Y-65.2
X141.96Y-67.74
X141.96Y-70.28
X144.5Y-52.5
X144.5Y-55.04
X144.5Y-57.58
X144.5Y-60.12
X144.5Y-62.66
X144.5Y-65.2
X144.5Y-67.74
X144.5Y-70.28
X185.5Y-53.
X185.5Y-55.54
X185.5Y-58.08
X185.5Y-60.62
X185.5Y-63.16
X185.5Y-65.7
X185.5Y-68.24
X185.5Y-70.78
X185.5Y-73.32
X171.Y-93.5
X173.54Y-93.5
T7
X190.524Y-135.214
X190.524Y-139.786
X198.144Y-134.96
X198.144Y-140.04
X190.524Y-142.714
X190.524Y-147.286
X198.144Y-142.46
X198.144Y-147.54
X190.19Y-52.214
X190.19Y-56.786
X197.81Y-51.96
X197.81Y-57.04
X190.19Y-73.714
X190.19Y-78.286
X197.81Y-73.46
X197.81Y-78.54
X190.69Y-121.714
X190.69Y-126.286
X198.31Y-121.46
X198.31Y-126.54
T8
X184.705Y-84.98
X184.705Y-94.98
X187.205Y-82.48
X187.205Y-89.98
X187.205Y-97.48
X197.205Y-84.98
X197.205Y-94.98
X184.705Y-105.3
X184.705Y-115.3
X187.205Y-102.8
X187.205Y-110.3
X187.205Y-117.8
X197.205Y-105.3
X197.205Y-115.3
T10
X160.Y-130.
T11
X195.Y-70.
X160.Y-70.
X195.Y-130.
T2
X112.92Y-76.4G85X112.92Y-78.
G05
X112.92Y-122.2G85X112.92Y-123.8
G05
X112.92Y-85.435G85X112.92Y-87.035
G05
X112.92Y-113.2G85X112.92Y-114.8
G05
T3
X101.52Y-76.8G85X101.52Y-77.6
G05
X104.62Y-76.5G85X104.62Y-77.9
G05
X101.52Y-122.6G85X101.52Y-123.4
G05
X104.62Y-122.3G85X104.62Y-123.7
G05
X101.52Y-85.835G85X101.52Y-86.635
G05
X104.62Y-85.535G85X104.62Y-86.935
G05
X101.52Y-113.6G85X101.52Y-114.4
G05
X104.62Y-113.3G85X104.62Y-114.7
G05
T6
X145.75Y-138.5G85X144.25Y-138.5
G05
X145.75Y-147.5G85X144.25Y-147.5
G05
X146.Y-142.35G85X146.Y-143.65
G05
X152.Y-142.G85X152.Y-144.
G05
T9
X116.9Y-60.65G85X116.9Y-59.35
G05
X128.1Y-60.65G85X128.1Y-59.35
G05
T0
M30
