%TF.GenerationSoftware,KiCad,Pcbnew,(5.0.0)*%
%TF.CreationDate,2019-02-05T18:13:41+01:00*%
%TF.ProjectId,Kicad-Midi2CV2,4B696361642D4D696469324356322E6B,Rev B*%
%TF.SameCoordinates,Original*%
%TF.FileFunction,Soldermask,Top*%
%TF.FilePolarity,Negative*%
%FSLAX46Y46*%
G04 Gerber Fmt 4.6, Leading zero omitted, Abs format (unit mm)*
G04 Created by KiCad (PCBNEW (5.0.0)) date 02/05/19 18:13:41*
%MOMM*%
%LPD*%
G01*
G04 APERTURE LIST*
%ADD10C,1.000000*%
%ADD11R,2.000000X2.000000*%
%ADD12O,2.000000X2.000000*%
%ADD13O,2.000000X3.200000*%
%ADD14O,2.000000X2.800000*%
%ADD15O,1.900000X3.200000*%
%ADD16C,2.400000*%
%ADD17C,2.000000*%
%ADD18O,2.100000X2.100000*%
%ADD19R,2.100000X2.100000*%
%ADD20R,2.800000X2.000000*%
%ADD21O,2.800000X2.000000*%
%ADD22R,2.400000X4.400000*%
%ADD23O,2.400000X3.700000*%
%ADD24O,3.900000X2.400000*%
%ADD25C,2.900000*%
%ADD26C,2.200000*%
%ADD27C,4.400000*%
%ADD28R,2.200000X2.200000*%
%ADD29R,2.400000X3.600000*%
%ADD30R,2.400000X2.400000*%
%ADD31C,1.200000*%
%ADD32C,5.400000*%
%ADD33C,4.800000*%
%ADD34C,1.100000*%
G04 APERTURE END LIST*
D10*
X138000000Y-119000000D02*
X138000000Y-81000000D01*
X118000000Y-119000000D02*
X138000000Y-119000000D01*
X118000000Y-81000000D02*
X118000000Y-119000000D01*
X138000000Y-81000000D02*
X118000000Y-81000000D01*
X138000000Y-140000000D02*
X139000000Y-140000000D01*
X138000000Y-60000000D02*
X139000000Y-60000000D01*
X139000000Y-140000000D02*
X139000000Y-60000000D01*
X138000000Y-60000000D02*
X138000000Y-140000000D01*
X200000000Y-50000000D02*
X100000000Y-50000000D01*
X200000000Y-150000000D02*
X200000000Y-50000000D01*
X100000000Y-150000000D02*
X200000000Y-150000000D01*
X100000000Y-50000000D02*
X100000000Y-150000000D01*
D11*
X158500000Y-115000000D03*
D12*
X143260000Y-81980000D03*
X158500000Y-112460000D03*
X143260000Y-84520000D03*
X158500000Y-109920000D03*
X143260000Y-87060000D03*
X158500000Y-107380000D03*
X143260000Y-89600000D03*
X158500000Y-104840000D03*
X143260000Y-92140000D03*
X158500000Y-102300000D03*
X143260000Y-94680000D03*
X158500000Y-99760000D03*
X143260000Y-97220000D03*
X158500000Y-97220000D03*
X143260000Y-99760000D03*
X158500000Y-94680000D03*
X143260000Y-102300000D03*
X158500000Y-92140000D03*
X143260000Y-104840000D03*
X158500000Y-89600000D03*
X143260000Y-107380000D03*
X158500000Y-87060000D03*
X143260000Y-109920000D03*
X158500000Y-84520000D03*
X143260000Y-112460000D03*
X158500000Y-81980000D03*
X143260000Y-115000000D03*
X158500000Y-79440000D03*
X143260000Y-79440000D03*
D13*
X104620000Y-86235000D03*
D14*
X101520000Y-86235000D03*
D15*
X112920000Y-86235000D03*
X112920000Y-77200000D03*
D14*
X101520000Y-77200000D03*
D13*
X104620000Y-77200000D03*
D16*
X190690000Y-121714000D03*
X190690000Y-126286000D03*
X198310000Y-121460000D03*
X198310000Y-126540000D03*
X190524476Y-142714000D03*
X190524476Y-147286000D03*
X198144476Y-142460000D03*
X198144476Y-147540000D03*
X190524476Y-135214000D03*
X190524476Y-139786000D03*
X198144476Y-134960000D03*
X198144476Y-140040000D03*
X190190000Y-52214000D03*
X190190000Y-56786000D03*
X197810000Y-51960000D03*
X197810000Y-57040000D03*
X190190000Y-73714000D03*
X190190000Y-78286000D03*
X197810000Y-73460000D03*
X197810000Y-78540000D03*
D11*
X144500000Y-135500000D03*
D17*
X144500000Y-133000000D03*
D18*
X115500000Y-105300000D03*
X115500000Y-107840000D03*
X115500000Y-110380000D03*
X115500000Y-112920000D03*
X115500000Y-115460000D03*
D19*
X115500000Y-118000000D03*
X115500000Y-94500000D03*
D18*
X115500000Y-91960000D03*
X115500000Y-89420000D03*
X115500000Y-86880000D03*
X115500000Y-84340000D03*
X115500000Y-81800000D03*
D20*
X179235000Y-86885000D03*
D21*
X171615000Y-84345000D03*
X179235000Y-84345000D03*
X171615000Y-86885000D03*
D11*
X177000000Y-72000000D03*
D17*
X179500000Y-72000000D03*
X179500000Y-53500000D03*
D11*
X177000000Y-53500000D03*
D19*
X144500000Y-52500000D03*
D18*
X141960000Y-52500000D03*
X144500000Y-55040000D03*
X141960000Y-55040000D03*
X144500000Y-57580000D03*
X141960000Y-57580000D03*
X144500000Y-60120000D03*
X141960000Y-60120000D03*
X144500000Y-62660000D03*
X141960000Y-62660000D03*
X144500000Y-65200000D03*
X141960000Y-65200000D03*
X144500000Y-67740000D03*
X141960000Y-67740000D03*
X144500000Y-70280000D03*
X141960000Y-70280000D03*
D22*
X152000000Y-143000000D03*
D23*
X146000000Y-143000000D03*
D24*
X145000000Y-138500000D03*
X145000000Y-147500000D03*
D17*
X143000000Y-143000000D03*
D25*
X197205000Y-115300000D03*
X197205000Y-105300000D03*
X184705000Y-115300000D03*
X187205000Y-102800000D03*
X187205000Y-110300000D03*
X184705000Y-105300000D03*
X187205000Y-117800000D03*
X187205000Y-97480000D03*
X184705000Y-84980000D03*
X187205000Y-89980000D03*
X187205000Y-82480000D03*
X184705000Y-94980000D03*
X197205000Y-84980000D03*
X197205000Y-94980000D03*
D18*
X170960000Y-97000000D03*
D19*
X173500000Y-97000000D03*
X173540000Y-93500000D03*
D18*
X171000000Y-93500000D03*
D11*
X177000000Y-60500000D03*
D17*
X179500000Y-60500000D03*
D19*
X166500000Y-68000000D03*
D18*
X166500000Y-65460000D03*
X166500000Y-62920000D03*
X166500000Y-60380000D03*
X166500000Y-57840000D03*
X166500000Y-55300000D03*
D15*
X112920000Y-114000000D03*
D14*
X101520000Y-114000000D03*
D13*
X104620000Y-114000000D03*
X104620000Y-123000000D03*
D14*
X101520000Y-123000000D03*
D15*
X112920000Y-123000000D03*
D26*
X109500000Y-137500000D03*
X107000000Y-137500000D03*
X104500000Y-137500000D03*
D27*
X111400000Y-144500000D03*
X102600000Y-144500000D03*
X102600000Y-59500000D03*
X111400000Y-59500000D03*
D26*
X104500000Y-52500000D03*
X107000000Y-52500000D03*
X109500000Y-52500000D03*
X120000000Y-76460000D03*
D28*
X120000000Y-79000000D03*
D26*
X125000000Y-76460000D03*
D28*
X125000000Y-79000000D03*
X130000000Y-79000000D03*
D26*
X130000000Y-76460000D03*
D28*
X135000000Y-79000000D03*
D26*
X135000000Y-76460000D03*
D28*
X120000000Y-122000000D03*
D26*
X122540000Y-122000000D03*
X122540000Y-141000000D03*
D28*
X120000000Y-141000000D03*
X108000000Y-131500000D03*
D26*
X108000000Y-128960000D03*
X108000000Y-71040000D03*
D28*
X108000000Y-68500000D03*
D19*
X131000000Y-122000000D03*
D18*
X131000000Y-124540000D03*
X131000000Y-127080000D03*
X131000000Y-129620000D03*
X131000000Y-132160000D03*
X131000000Y-134700000D03*
X131000000Y-137240000D03*
X131000000Y-139780000D03*
X131000000Y-142320000D03*
X131000000Y-144860000D03*
X131000000Y-147400000D03*
D19*
X131000000Y-53000000D03*
D18*
X131000000Y-55540000D03*
X131000000Y-58080000D03*
X131000000Y-60620000D03*
X131000000Y-63160000D03*
X131000000Y-65700000D03*
X131000000Y-68240000D03*
X131000000Y-70780000D03*
X131000000Y-73320000D03*
D19*
X185500000Y-122000000D03*
D18*
X185500000Y-124540000D03*
X185500000Y-127080000D03*
X185500000Y-129620000D03*
X185500000Y-132160000D03*
X185500000Y-134700000D03*
X185500000Y-137240000D03*
X185500000Y-139780000D03*
X185500000Y-142320000D03*
X185500000Y-144860000D03*
X185500000Y-147400000D03*
D19*
X185500000Y-53000000D03*
D18*
X185500000Y-55540000D03*
X185500000Y-58080000D03*
X185500000Y-60620000D03*
X185500000Y-63160000D03*
X185500000Y-65700000D03*
X185500000Y-68240000D03*
X185500000Y-70780000D03*
X185500000Y-73320000D03*
D16*
X125000000Y-53000000D03*
X120000000Y-53000000D03*
D29*
X128100000Y-60000000D03*
X116900000Y-60000000D03*
D16*
X125000000Y-67500000D03*
X122500000Y-67500000D03*
D30*
X120000000Y-67500000D03*
D31*
X196325825Y-128674175D03*
X195000000Y-128125000D03*
X193674175Y-128674175D03*
X193125000Y-130000000D03*
X193674175Y-131325825D03*
X195000000Y-131875000D03*
X196325825Y-131325825D03*
X196875000Y-130000000D03*
D32*
X195000000Y-130000000D03*
X195000000Y-70000000D03*
D31*
X196875000Y-70000000D03*
X196325825Y-71325825D03*
X195000000Y-71875000D03*
X193674175Y-71325825D03*
X193125000Y-70000000D03*
X193674175Y-68674175D03*
X195000000Y-68125000D03*
X196325825Y-68674175D03*
D32*
X160000000Y-70000000D03*
D31*
X161875000Y-70000000D03*
X161325825Y-71325825D03*
X160000000Y-71875000D03*
X158674175Y-71325825D03*
X158125000Y-70000000D03*
X158674175Y-68674175D03*
X160000000Y-68125000D03*
X161325825Y-68674175D03*
D33*
X160000000Y-130000000D03*
D34*
X161650000Y-130000000D03*
X161166726Y-131166726D03*
X160000000Y-131650000D03*
X158833274Y-131166726D03*
X158350000Y-130000000D03*
X158833274Y-128833274D03*
X160000000Y-128350000D03*
X161166726Y-128833274D03*
M02*
