%TF.GenerationSoftware,KiCad,Pcbnew,(5.0.0)*%
%TF.CreationDate,2019-02-05T00:41:09+01:00*%
%TF.ProjectId,Kicad-Midi2CV2,4B696361642D4D696469324356322E6B,Rev B*%
%TF.SameCoordinates,Original*%
%TF.FileFunction,Legend,Top*%
%TF.FilePolarity,Positive*%
%FSLAX46Y46*%
G04 Gerber Fmt 4.6, Leading zero omitted, Abs format (unit mm)*
G04 Created by KiCad (PCBNEW (5.0.0)) date 02/05/19 00:41:09*
%MOMM*%
%LPD*%
G01*
G04 APERTURE LIST*
%ADD10C,0.175000*%
%ADD11C,0.500000*%
%ADD12C,0.200000*%
%ADD13C,0.300000*%
%ADD14C,1.000000*%
%ADD15C,0.150000*%
%ADD16C,0.250000*%
%ADD17C,0.120000*%
%ADD18C,0.304800*%
%ADD19C,0.125000*%
G04 APERTURE END LIST*
D10*
X190250000Y-80566666D02*
X190250000Y-79866666D01*
X190416666Y-79866666D01*
X190516666Y-79900000D01*
X190583333Y-79966666D01*
X190616666Y-80033333D01*
X190650000Y-80166666D01*
X190650000Y-80266666D01*
X190616666Y-80400000D01*
X190583333Y-80466666D01*
X190516666Y-80533333D01*
X190416666Y-80566666D01*
X190250000Y-80566666D01*
X191050000Y-80566666D02*
X190983333Y-80533333D01*
X190950000Y-80500000D01*
X190916666Y-80433333D01*
X190916666Y-80233333D01*
X190950000Y-80166666D01*
X190983333Y-80133333D01*
X191050000Y-80100000D01*
X191150000Y-80100000D01*
X191216666Y-80133333D01*
X191250000Y-80166666D01*
X191283333Y-80233333D01*
X191283333Y-80433333D01*
X191250000Y-80500000D01*
X191216666Y-80533333D01*
X191150000Y-80566666D01*
X191050000Y-80566666D01*
X191850000Y-80533333D02*
X191783333Y-80566666D01*
X191650000Y-80566666D01*
X191583333Y-80533333D01*
X191550000Y-80466666D01*
X191550000Y-80200000D01*
X191583333Y-80133333D01*
X191650000Y-80100000D01*
X191783333Y-80100000D01*
X191850000Y-80133333D01*
X191883333Y-80200000D01*
X191883333Y-80266666D01*
X191550000Y-80333333D01*
X192183333Y-80100000D02*
X192183333Y-80800000D01*
X192183333Y-80133333D02*
X192250000Y-80100000D01*
X192383333Y-80100000D01*
X192450000Y-80133333D01*
X192483333Y-80166666D01*
X192516666Y-80233333D01*
X192516666Y-80433333D01*
X192483333Y-80500000D01*
X192450000Y-80533333D01*
X192383333Y-80566666D01*
X192250000Y-80566666D01*
X192183333Y-80533333D01*
X192716666Y-80100000D02*
X192983333Y-80100000D01*
X192816666Y-80566666D02*
X192816666Y-79966666D01*
X192850000Y-79900000D01*
X192916666Y-79866666D01*
X192983333Y-79866666D01*
X193483333Y-80533333D02*
X193416666Y-80566666D01*
X193283333Y-80566666D01*
X193216666Y-80533333D01*
X193183333Y-80466666D01*
X193183333Y-80200000D01*
X193216666Y-80133333D01*
X193283333Y-80100000D01*
X193416666Y-80100000D01*
X193483333Y-80133333D01*
X193516666Y-80200000D01*
X193516666Y-80266666D01*
X193183333Y-80333333D01*
X193816666Y-80566666D02*
X193816666Y-80100000D01*
X193816666Y-80233333D02*
X193850000Y-80166666D01*
X193883333Y-80133333D01*
X193950000Y-80100000D01*
X194016666Y-80100000D01*
X195183333Y-80500000D02*
X195150000Y-80533333D01*
X195050000Y-80566666D01*
X194983333Y-80566666D01*
X194883333Y-80533333D01*
X194816666Y-80466666D01*
X194783333Y-80400000D01*
X194750000Y-80266666D01*
X194750000Y-80166666D01*
X194783333Y-80033333D01*
X194816666Y-79966666D01*
X194883333Y-79900000D01*
X194983333Y-79866666D01*
X195050000Y-79866666D01*
X195150000Y-79900000D01*
X195183333Y-79933333D01*
X195383333Y-79866666D02*
X195616666Y-80566666D01*
X195850000Y-79866666D01*
X196616666Y-80566666D02*
X196616666Y-79866666D01*
X196950000Y-80100000D02*
X196950000Y-80566666D01*
X196950000Y-80166666D02*
X196983333Y-80133333D01*
X197050000Y-80100000D01*
X197150000Y-80100000D01*
X197216666Y-80133333D01*
X197250000Y-80200000D01*
X197250000Y-80566666D01*
X189733333Y-59066666D02*
X189733333Y-58366666D01*
X189900000Y-58366666D01*
X190000000Y-58400000D01*
X190066666Y-58466666D01*
X190100000Y-58533333D01*
X190133333Y-58666666D01*
X190133333Y-58766666D01*
X190100000Y-58900000D01*
X190066666Y-58966666D01*
X190000000Y-59033333D01*
X189900000Y-59066666D01*
X189733333Y-59066666D01*
X190533333Y-59066666D02*
X190466666Y-59033333D01*
X190433333Y-59000000D01*
X190400000Y-58933333D01*
X190400000Y-58733333D01*
X190433333Y-58666666D01*
X190466666Y-58633333D01*
X190533333Y-58600000D01*
X190633333Y-58600000D01*
X190700000Y-58633333D01*
X190733333Y-58666666D01*
X190766666Y-58733333D01*
X190766666Y-58933333D01*
X190733333Y-59000000D01*
X190700000Y-59033333D01*
X190633333Y-59066666D01*
X190533333Y-59066666D01*
X191333333Y-59033333D02*
X191266666Y-59066666D01*
X191133333Y-59066666D01*
X191066666Y-59033333D01*
X191033333Y-58966666D01*
X191033333Y-58700000D01*
X191066666Y-58633333D01*
X191133333Y-58600000D01*
X191266666Y-58600000D01*
X191333333Y-58633333D01*
X191366666Y-58700000D01*
X191366666Y-58766666D01*
X191033333Y-58833333D01*
X191666666Y-58600000D02*
X191666666Y-59300000D01*
X191666666Y-58633333D02*
X191733333Y-58600000D01*
X191866666Y-58600000D01*
X191933333Y-58633333D01*
X191966666Y-58666666D01*
X192000000Y-58733333D01*
X192000000Y-58933333D01*
X191966666Y-59000000D01*
X191933333Y-59033333D01*
X191866666Y-59066666D01*
X191733333Y-59066666D01*
X191666666Y-59033333D01*
X192200000Y-58600000D02*
X192466666Y-58600000D01*
X192300000Y-59066666D02*
X192300000Y-58466666D01*
X192333333Y-58400000D01*
X192400000Y-58366666D01*
X192466666Y-58366666D01*
X192966666Y-59033333D02*
X192900000Y-59066666D01*
X192766666Y-59066666D01*
X192700000Y-59033333D01*
X192666666Y-58966666D01*
X192666666Y-58700000D01*
X192700000Y-58633333D01*
X192766666Y-58600000D01*
X192900000Y-58600000D01*
X192966666Y-58633333D01*
X193000000Y-58700000D01*
X193000000Y-58766666D01*
X192666666Y-58833333D01*
X193300000Y-59066666D02*
X193300000Y-58600000D01*
X193300000Y-58733333D02*
X193333333Y-58666666D01*
X193366666Y-58633333D01*
X193433333Y-58600000D01*
X193500000Y-58600000D01*
X194633333Y-58400000D02*
X194566666Y-58366666D01*
X194466666Y-58366666D01*
X194366666Y-58400000D01*
X194300000Y-58466666D01*
X194266666Y-58533333D01*
X194233333Y-58666666D01*
X194233333Y-58766666D01*
X194266666Y-58900000D01*
X194300000Y-58966666D01*
X194366666Y-59033333D01*
X194466666Y-59066666D01*
X194533333Y-59066666D01*
X194633333Y-59033333D01*
X194666666Y-59000000D01*
X194666666Y-58766666D01*
X194533333Y-58766666D01*
X195266666Y-59066666D02*
X195266666Y-58700000D01*
X195233333Y-58633333D01*
X195166666Y-58600000D01*
X195033333Y-58600000D01*
X194966666Y-58633333D01*
X195266666Y-59033333D02*
X195200000Y-59066666D01*
X195033333Y-59066666D01*
X194966666Y-59033333D01*
X194933333Y-58966666D01*
X194933333Y-58900000D01*
X194966666Y-58833333D01*
X195033333Y-58800000D01*
X195200000Y-58800000D01*
X195266666Y-58766666D01*
X195500000Y-58600000D02*
X195766666Y-58600000D01*
X195600000Y-58366666D02*
X195600000Y-58966666D01*
X195633333Y-59033333D01*
X195700000Y-59066666D01*
X195766666Y-59066666D01*
X196266666Y-59033333D02*
X196200000Y-59066666D01*
X196066666Y-59066666D01*
X196000000Y-59033333D01*
X195966666Y-58966666D01*
X195966666Y-58700000D01*
X196000000Y-58633333D01*
X196066666Y-58600000D01*
X196200000Y-58600000D01*
X196266666Y-58633333D01*
X196300000Y-58700000D01*
X196300000Y-58766666D01*
X195966666Y-58833333D01*
X197133333Y-59066666D02*
X197133333Y-58366666D01*
X197466666Y-58600000D02*
X197466666Y-59066666D01*
X197466666Y-58666666D02*
X197500000Y-58633333D01*
X197566666Y-58600000D01*
X197666666Y-58600000D01*
X197733333Y-58633333D01*
X197766666Y-58700000D01*
X197766666Y-59066666D01*
D11*
X175738095Y-119928571D02*
X180738095Y-119928571D01*
X177166666Y-121595238D01*
X180738095Y-123261904D01*
X175738095Y-123261904D01*
X175738095Y-125642857D02*
X180738095Y-125642857D01*
X175738095Y-128023809D02*
X180738095Y-128023809D01*
X180738095Y-129214285D01*
X180500000Y-129928571D01*
X180023809Y-130404761D01*
X179547619Y-130642857D01*
X178595238Y-130880952D01*
X177880952Y-130880952D01*
X176928571Y-130642857D01*
X176452380Y-130404761D01*
X175976190Y-129928571D01*
X175738095Y-129214285D01*
X175738095Y-128023809D01*
X175738095Y-133023809D02*
X180738095Y-133023809D01*
X180261904Y-135166666D02*
X180500000Y-135404761D01*
X180738095Y-135880952D01*
X180738095Y-137071428D01*
X180500000Y-137547619D01*
X180261904Y-137785714D01*
X179785714Y-138023809D01*
X179309523Y-138023809D01*
X178595238Y-137785714D01*
X175738095Y-134928571D01*
X175738095Y-138023809D01*
X176214285Y-143023809D02*
X175976190Y-142785714D01*
X175738095Y-142071428D01*
X175738095Y-141595238D01*
X175976190Y-140880952D01*
X176452380Y-140404761D01*
X176928571Y-140166666D01*
X177880952Y-139928571D01*
X178595238Y-139928571D01*
X179547619Y-140166666D01*
X180023809Y-140404761D01*
X180500000Y-140880952D01*
X180738095Y-141595238D01*
X180738095Y-142071428D01*
X180500000Y-142785714D01*
X180261904Y-143023809D01*
X180738095Y-144452380D02*
X175738095Y-146119047D01*
X180738095Y-147785714D01*
D12*
X187261904Y-122935238D02*
X187261904Y-121365238D01*
X187500000Y-121365238D01*
X187642857Y-121440000D01*
X187738095Y-121589523D01*
X187785714Y-121739047D01*
X187833333Y-122038095D01*
X187833333Y-122262380D01*
X187785714Y-122561428D01*
X187738095Y-122710952D01*
X187642857Y-122860476D01*
X187500000Y-122935238D01*
X187261904Y-122935238D01*
X188738095Y-121365238D02*
X188261904Y-121365238D01*
X188214285Y-122112857D01*
X188261904Y-122038095D01*
X188357142Y-121963333D01*
X188595238Y-121963333D01*
X188690476Y-122038095D01*
X188738095Y-122112857D01*
X188785714Y-122262380D01*
X188785714Y-122636190D01*
X188738095Y-122785714D01*
X188690476Y-122860476D01*
X188595238Y-122935238D01*
X188357142Y-122935238D01*
X188261904Y-122860476D01*
X188214285Y-122785714D01*
X187261904Y-125490238D02*
X187261904Y-123920238D01*
X187500000Y-123920238D01*
X187642857Y-123995000D01*
X187738095Y-124144523D01*
X187785714Y-124294047D01*
X187833333Y-124593095D01*
X187833333Y-124817380D01*
X187785714Y-125116428D01*
X187738095Y-125265952D01*
X187642857Y-125415476D01*
X187500000Y-125490238D01*
X187261904Y-125490238D01*
X188690476Y-124443571D02*
X188690476Y-125490238D01*
X188452380Y-123845476D02*
X188214285Y-124966904D01*
X188833333Y-124966904D01*
X187261904Y-128045238D02*
X187261904Y-126475238D01*
X187500000Y-126475238D01*
X187642857Y-126550000D01*
X187738095Y-126699523D01*
X187785714Y-126849047D01*
X187833333Y-127148095D01*
X187833333Y-127372380D01*
X187785714Y-127671428D01*
X187738095Y-127820952D01*
X187642857Y-127970476D01*
X187500000Y-128045238D01*
X187261904Y-128045238D01*
X188166666Y-126475238D02*
X188785714Y-126475238D01*
X188452380Y-127073333D01*
X188595238Y-127073333D01*
X188690476Y-127148095D01*
X188738095Y-127222857D01*
X188785714Y-127372380D01*
X188785714Y-127746190D01*
X188738095Y-127895714D01*
X188690476Y-127970476D01*
X188595238Y-128045238D01*
X188309523Y-128045238D01*
X188214285Y-127970476D01*
X188166666Y-127895714D01*
X187261904Y-130600238D02*
X187261904Y-129030238D01*
X187500000Y-129030238D01*
X187642857Y-129105000D01*
X187738095Y-129254523D01*
X187785714Y-129404047D01*
X187833333Y-129703095D01*
X187833333Y-129927380D01*
X187785714Y-130226428D01*
X187738095Y-130375952D01*
X187642857Y-130525476D01*
X187500000Y-130600238D01*
X187261904Y-130600238D01*
X188214285Y-129179761D02*
X188261904Y-129105000D01*
X188357142Y-129030238D01*
X188595238Y-129030238D01*
X188690476Y-129105000D01*
X188738095Y-129179761D01*
X188785714Y-129329285D01*
X188785714Y-129478809D01*
X188738095Y-129703095D01*
X188166666Y-130600238D01*
X188785714Y-130600238D01*
X187261904Y-133155238D02*
X187261904Y-131585238D01*
X187500000Y-131585238D01*
X187642857Y-131660000D01*
X187738095Y-131809523D01*
X187785714Y-131959047D01*
X187833333Y-132258095D01*
X187833333Y-132482380D01*
X187785714Y-132781428D01*
X187738095Y-132930952D01*
X187642857Y-133080476D01*
X187500000Y-133155238D01*
X187261904Y-133155238D01*
X188166666Y-131585238D02*
X188833333Y-131585238D01*
X188404761Y-133155238D01*
X187261904Y-135710238D02*
X187261904Y-134140238D01*
X187500000Y-134140238D01*
X187642857Y-134215000D01*
X187738095Y-134364523D01*
X187785714Y-134514047D01*
X187833333Y-134813095D01*
X187833333Y-135037380D01*
X187785714Y-135336428D01*
X187738095Y-135485952D01*
X187642857Y-135635476D01*
X187500000Y-135710238D01*
X187261904Y-135710238D01*
X188690476Y-134140238D02*
X188500000Y-134140238D01*
X188404761Y-134215000D01*
X188357142Y-134289761D01*
X188261904Y-134514047D01*
X188214285Y-134813095D01*
X188214285Y-135411190D01*
X188261904Y-135560714D01*
X188309523Y-135635476D01*
X188404761Y-135710238D01*
X188595238Y-135710238D01*
X188690476Y-135635476D01*
X188738095Y-135560714D01*
X188785714Y-135411190D01*
X188785714Y-135037380D01*
X188738095Y-134887857D01*
X188690476Y-134813095D01*
X188595238Y-134738333D01*
X188404761Y-134738333D01*
X188309523Y-134813095D01*
X188261904Y-134887857D01*
X188214285Y-135037380D01*
X187238095Y-136770000D02*
X187142857Y-136695238D01*
X187000000Y-136695238D01*
X186857142Y-136770000D01*
X186761904Y-136919523D01*
X186714285Y-137069047D01*
X186666666Y-137368095D01*
X186666666Y-137592380D01*
X186714285Y-137891428D01*
X186761904Y-138040952D01*
X186857142Y-138190476D01*
X187000000Y-138265238D01*
X187095238Y-138265238D01*
X187238095Y-138190476D01*
X187285714Y-138115714D01*
X187285714Y-137592380D01*
X187095238Y-137592380D01*
X187714285Y-138265238D02*
X187714285Y-136695238D01*
X188285714Y-138265238D01*
X188285714Y-136695238D01*
X188761904Y-138265238D02*
X188761904Y-136695238D01*
X189000000Y-136695238D01*
X189142857Y-136770000D01*
X189238095Y-136919523D01*
X189285714Y-137069047D01*
X189333333Y-137368095D01*
X189333333Y-137592380D01*
X189285714Y-137891428D01*
X189238095Y-138040952D01*
X189142857Y-138190476D01*
X189000000Y-138265238D01*
X188761904Y-138265238D01*
X186785714Y-140820238D02*
X186785714Y-139250238D01*
X187023809Y-139250238D01*
X187166666Y-139325000D01*
X187261904Y-139474523D01*
X187309523Y-139624047D01*
X187357142Y-139923095D01*
X187357142Y-140147380D01*
X187309523Y-140446428D01*
X187261904Y-140595952D01*
X187166666Y-140745476D01*
X187023809Y-140820238D01*
X186785714Y-140820238D01*
X188309523Y-140820238D02*
X187738095Y-140820238D01*
X188023809Y-140820238D02*
X188023809Y-139250238D01*
X187928571Y-139474523D01*
X187833333Y-139624047D01*
X187738095Y-139698809D01*
X188690476Y-139399761D02*
X188738095Y-139325000D01*
X188833333Y-139250238D01*
X189071428Y-139250238D01*
X189166666Y-139325000D01*
X189214285Y-139399761D01*
X189261904Y-139549285D01*
X189261904Y-139698809D01*
X189214285Y-139923095D01*
X188642857Y-140820238D01*
X189261904Y-140820238D01*
X186785714Y-143375238D02*
X186785714Y-141805238D01*
X187023809Y-141805238D01*
X187166666Y-141880000D01*
X187261904Y-142029523D01*
X187309523Y-142179047D01*
X187357142Y-142478095D01*
X187357142Y-142702380D01*
X187309523Y-143001428D01*
X187261904Y-143150952D01*
X187166666Y-143300476D01*
X187023809Y-143375238D01*
X186785714Y-143375238D01*
X188309523Y-143375238D02*
X187738095Y-143375238D01*
X188023809Y-143375238D02*
X188023809Y-141805238D01*
X187928571Y-142029523D01*
X187833333Y-142179047D01*
X187738095Y-142253809D01*
X188928571Y-141805238D02*
X189023809Y-141805238D01*
X189119047Y-141880000D01*
X189166666Y-141954761D01*
X189214285Y-142104285D01*
X189261904Y-142403333D01*
X189261904Y-142777142D01*
X189214285Y-143076190D01*
X189166666Y-143225714D01*
X189119047Y-143300476D01*
X189023809Y-143375238D01*
X188928571Y-143375238D01*
X188833333Y-143300476D01*
X188785714Y-143225714D01*
X188738095Y-143076190D01*
X188690476Y-142777142D01*
X188690476Y-142403333D01*
X188738095Y-142104285D01*
X188785714Y-141954761D01*
X188833333Y-141880000D01*
X188928571Y-141805238D01*
X186785714Y-145930238D02*
X186785714Y-144360238D01*
X187023809Y-144360238D01*
X187166666Y-144435000D01*
X187261904Y-144584523D01*
X187309523Y-144734047D01*
X187357142Y-145033095D01*
X187357142Y-145257380D01*
X187309523Y-145556428D01*
X187261904Y-145705952D01*
X187166666Y-145855476D01*
X187023809Y-145930238D01*
X186785714Y-145930238D01*
X188309523Y-145930238D02*
X187738095Y-145930238D01*
X188023809Y-145930238D02*
X188023809Y-144360238D01*
X187928571Y-144584523D01*
X187833333Y-144734047D01*
X187738095Y-144808809D01*
X189261904Y-145930238D02*
X188690476Y-145930238D01*
X188976190Y-145930238D02*
X188976190Y-144360238D01*
X188880952Y-144584523D01*
X188785714Y-144734047D01*
X188690476Y-144808809D01*
X186785714Y-148485238D02*
X186785714Y-146915238D01*
X187023809Y-146915238D01*
X187166666Y-146990000D01*
X187261904Y-147139523D01*
X187309523Y-147289047D01*
X187357142Y-147588095D01*
X187357142Y-147812380D01*
X187309523Y-148111428D01*
X187261904Y-148260952D01*
X187166666Y-148410476D01*
X187023809Y-148485238D01*
X186785714Y-148485238D01*
X188309523Y-148485238D02*
X187738095Y-148485238D01*
X188023809Y-148485238D02*
X188023809Y-146915238D01*
X187928571Y-147139523D01*
X187833333Y-147289047D01*
X187738095Y-147363809D01*
X188642857Y-146915238D02*
X189261904Y-146915238D01*
X188928571Y-147513333D01*
X189071428Y-147513333D01*
X189166666Y-147588095D01*
X189214285Y-147662857D01*
X189261904Y-147812380D01*
X189261904Y-148186190D01*
X189214285Y-148335714D01*
X189166666Y-148410476D01*
X189071428Y-148485238D01*
X188785714Y-148485238D01*
X188690476Y-148410476D01*
X188642857Y-148335714D01*
D13*
X132447857Y-52907142D02*
X133590714Y-52907142D01*
X135090714Y-53478571D02*
X134233571Y-53478571D01*
X134662142Y-53478571D02*
X134662142Y-51978571D01*
X134519285Y-52192857D01*
X134376428Y-52335714D01*
X134233571Y-52407142D01*
X135662142Y-52121428D02*
X135733571Y-52050000D01*
X135876428Y-51978571D01*
X136233571Y-51978571D01*
X136376428Y-52050000D01*
X136447857Y-52121428D01*
X136519285Y-52264285D01*
X136519285Y-52407142D01*
X136447857Y-52621428D01*
X135590714Y-53478571D01*
X136519285Y-53478571D01*
X133376428Y-54600000D02*
X133233571Y-54528571D01*
X133019285Y-54528571D01*
X132805000Y-54600000D01*
X132662142Y-54742857D01*
X132590714Y-54885714D01*
X132519285Y-55171428D01*
X132519285Y-55385714D01*
X132590714Y-55671428D01*
X132662142Y-55814285D01*
X132805000Y-55957142D01*
X133019285Y-56028571D01*
X133162142Y-56028571D01*
X133376428Y-55957142D01*
X133447857Y-55885714D01*
X133447857Y-55385714D01*
X133162142Y-55385714D01*
X134090714Y-56028571D02*
X134090714Y-54528571D01*
X134947857Y-56028571D01*
X134947857Y-54528571D01*
X135662142Y-56028571D02*
X135662142Y-54528571D01*
X136019285Y-54528571D01*
X136233571Y-54600000D01*
X136376428Y-54742857D01*
X136447857Y-54885714D01*
X136519285Y-55171428D01*
X136519285Y-55385714D01*
X136447857Y-55671428D01*
X136376428Y-55814285D01*
X136233571Y-55957142D01*
X136019285Y-56028571D01*
X135662142Y-56028571D01*
X133447857Y-57792857D02*
X133662142Y-57864285D01*
X133733571Y-57935714D01*
X133805000Y-58078571D01*
X133805000Y-58292857D01*
X133733571Y-58435714D01*
X133662142Y-58507142D01*
X133519285Y-58578571D01*
X132947857Y-58578571D01*
X132947857Y-57078571D01*
X133447857Y-57078571D01*
X133590714Y-57150000D01*
X133662142Y-57221428D01*
X133733571Y-57364285D01*
X133733571Y-57507142D01*
X133662142Y-57650000D01*
X133590714Y-57721428D01*
X133447857Y-57792857D01*
X132947857Y-57792857D01*
X134233571Y-57078571D02*
X135090714Y-57078571D01*
X134662142Y-58578571D02*
X134662142Y-57078571D01*
X135590714Y-58578571D02*
X135590714Y-57078571D01*
X136447857Y-58578571D01*
X136447857Y-57078571D01*
X134376428Y-60700000D02*
X135090714Y-60700000D01*
X134233571Y-61128571D02*
X134733571Y-59628571D01*
X135233571Y-61128571D01*
X136519285Y-61128571D02*
X135662142Y-61128571D01*
X136090714Y-61128571D02*
X136090714Y-59628571D01*
X135947857Y-59842857D01*
X135805000Y-59985714D01*
X135662142Y-60057142D01*
X134376428Y-63250000D02*
X135090714Y-63250000D01*
X134233571Y-63678571D02*
X134733571Y-62178571D01*
X135233571Y-63678571D01*
X135662142Y-62321428D02*
X135733571Y-62250000D01*
X135876428Y-62178571D01*
X136233571Y-62178571D01*
X136376428Y-62250000D01*
X136447857Y-62321428D01*
X136519285Y-62464285D01*
X136519285Y-62607142D01*
X136447857Y-62821428D01*
X135590714Y-63678571D01*
X136519285Y-63678571D01*
X132876428Y-66157142D02*
X133090714Y-66228571D01*
X133447857Y-66228571D01*
X133590714Y-66157142D01*
X133662142Y-66085714D01*
X133733571Y-65942857D01*
X133733571Y-65800000D01*
X133662142Y-65657142D01*
X133590714Y-65585714D01*
X133447857Y-65514285D01*
X133162142Y-65442857D01*
X133019285Y-65371428D01*
X132947857Y-65300000D01*
X132876428Y-65157142D01*
X132876428Y-65014285D01*
X132947857Y-64871428D01*
X133019285Y-64800000D01*
X133162142Y-64728571D01*
X133519285Y-64728571D01*
X133733571Y-64800000D01*
X134376428Y-66228571D02*
X134376428Y-64728571D01*
X134733571Y-64728571D01*
X134947857Y-64800000D01*
X135090714Y-64942857D01*
X135162142Y-65085714D01*
X135233571Y-65371428D01*
X135233571Y-65585714D01*
X135162142Y-65871428D01*
X135090714Y-66014285D01*
X134947857Y-66157142D01*
X134733571Y-66228571D01*
X134376428Y-66228571D01*
X135805000Y-65800000D02*
X136519285Y-65800000D01*
X135662142Y-66228571D02*
X136162142Y-64728571D01*
X136662142Y-66228571D01*
X132947857Y-68707142D02*
X133162142Y-68778571D01*
X133519285Y-68778571D01*
X133662142Y-68707142D01*
X133733571Y-68635714D01*
X133805000Y-68492857D01*
X133805000Y-68350000D01*
X133733571Y-68207142D01*
X133662142Y-68135714D01*
X133519285Y-68064285D01*
X133233571Y-67992857D01*
X133090714Y-67921428D01*
X133019285Y-67850000D01*
X132947857Y-67707142D01*
X132947857Y-67564285D01*
X133019285Y-67421428D01*
X133090714Y-67350000D01*
X133233571Y-67278571D01*
X133590714Y-67278571D01*
X133805000Y-67350000D01*
X135305000Y-68635714D02*
X135233571Y-68707142D01*
X135019285Y-68778571D01*
X134876428Y-68778571D01*
X134662142Y-68707142D01*
X134519285Y-68564285D01*
X134447857Y-68421428D01*
X134376428Y-68135714D01*
X134376428Y-67921428D01*
X134447857Y-67635714D01*
X134519285Y-67492857D01*
X134662142Y-67350000D01*
X134876428Y-67278571D01*
X135019285Y-67278571D01*
X135233571Y-67350000D01*
X135305000Y-67421428D01*
X136662142Y-68778571D02*
X135947857Y-68778571D01*
X135947857Y-67278571D01*
X133876428Y-70757142D02*
X135019285Y-70757142D01*
X134447857Y-71328571D02*
X134447857Y-70185714D01*
X136447857Y-69828571D02*
X135733571Y-69828571D01*
X135662142Y-70542857D01*
X135733571Y-70471428D01*
X135876428Y-70400000D01*
X136233571Y-70400000D01*
X136376428Y-70471428D01*
X136447857Y-70542857D01*
X136519285Y-70685714D01*
X136519285Y-71042857D01*
X136447857Y-71185714D01*
X136376428Y-71257142D01*
X136233571Y-71328571D01*
X135876428Y-71328571D01*
X135733571Y-71257142D01*
X135662142Y-71185714D01*
X132447857Y-73307142D02*
X133590714Y-73307142D01*
X133019285Y-73878571D02*
X133019285Y-72735714D01*
X135090714Y-73878571D02*
X134233571Y-73878571D01*
X134662142Y-73878571D02*
X134662142Y-72378571D01*
X134519285Y-72592857D01*
X134376428Y-72735714D01*
X134233571Y-72807142D01*
X135662142Y-72521428D02*
X135733571Y-72450000D01*
X135876428Y-72378571D01*
X136233571Y-72378571D01*
X136376428Y-72450000D01*
X136447857Y-72521428D01*
X136519285Y-72664285D01*
X136519285Y-72807142D01*
X136447857Y-73021428D01*
X135590714Y-73878571D01*
X136519285Y-73878571D01*
D12*
X162642857Y-55482142D02*
X163404761Y-55482142D01*
X163023809Y-56053571D02*
X163023809Y-54910714D01*
X163785714Y-54553571D02*
X164404761Y-54553571D01*
X164071428Y-55125000D01*
X164214285Y-55125000D01*
X164309523Y-55196428D01*
X164357142Y-55267857D01*
X164404761Y-55410714D01*
X164404761Y-55767857D01*
X164357142Y-55910714D01*
X164309523Y-55982142D01*
X164214285Y-56053571D01*
X163928571Y-56053571D01*
X163833333Y-55982142D01*
X163785714Y-55910714D01*
X162166666Y-57003571D02*
X162500000Y-58503571D01*
X162833333Y-57003571D01*
X163738095Y-58360714D02*
X163690476Y-58432142D01*
X163547619Y-58503571D01*
X163452380Y-58503571D01*
X163309523Y-58432142D01*
X163214285Y-58289285D01*
X163166666Y-58146428D01*
X163119047Y-57860714D01*
X163119047Y-57646428D01*
X163166666Y-57360714D01*
X163214285Y-57217857D01*
X163309523Y-57075000D01*
X163452380Y-57003571D01*
X163547619Y-57003571D01*
X163690476Y-57075000D01*
X163738095Y-57146428D01*
X164738095Y-58360714D02*
X164690476Y-58432142D01*
X164547619Y-58503571D01*
X164452380Y-58503571D01*
X164309523Y-58432142D01*
X164214285Y-58289285D01*
X164166666Y-58146428D01*
X164119047Y-57860714D01*
X164119047Y-57646428D01*
X164166666Y-57360714D01*
X164214285Y-57217857D01*
X164309523Y-57075000D01*
X164452380Y-57003571D01*
X164547619Y-57003571D01*
X164690476Y-57075000D01*
X164738095Y-57146428D01*
X162642857Y-60382142D02*
X163404761Y-60382142D01*
X163023809Y-60953571D02*
X163023809Y-59810714D01*
X164357142Y-59453571D02*
X163880952Y-59453571D01*
X163833333Y-60167857D01*
X163880952Y-60096428D01*
X163976190Y-60025000D01*
X164214285Y-60025000D01*
X164309523Y-60096428D01*
X164357142Y-60167857D01*
X164404761Y-60310714D01*
X164404761Y-60667857D01*
X164357142Y-60810714D01*
X164309523Y-60882142D01*
X164214285Y-60953571D01*
X163976190Y-60953571D01*
X163880952Y-60882142D01*
X163833333Y-60810714D01*
X162166666Y-62832142D02*
X162928571Y-62832142D01*
X162547619Y-63403571D02*
X162547619Y-62260714D01*
X163928571Y-63403571D02*
X163357142Y-63403571D01*
X163642857Y-63403571D02*
X163642857Y-61903571D01*
X163547619Y-62117857D01*
X163452380Y-62260714D01*
X163357142Y-62332142D01*
X164309523Y-62046428D02*
X164357142Y-61975000D01*
X164452380Y-61903571D01*
X164690476Y-61903571D01*
X164785714Y-61975000D01*
X164833333Y-62046428D01*
X164880952Y-62189285D01*
X164880952Y-62332142D01*
X164833333Y-62546428D01*
X164261904Y-63403571D01*
X164880952Y-63403571D01*
X162738095Y-64425000D02*
X162642857Y-64353571D01*
X162500000Y-64353571D01*
X162357142Y-64425000D01*
X162261904Y-64567857D01*
X162214285Y-64710714D01*
X162166666Y-64996428D01*
X162166666Y-65210714D01*
X162214285Y-65496428D01*
X162261904Y-65639285D01*
X162357142Y-65782142D01*
X162500000Y-65853571D01*
X162595238Y-65853571D01*
X162738095Y-65782142D01*
X162785714Y-65710714D01*
X162785714Y-65210714D01*
X162595238Y-65210714D01*
X163214285Y-65853571D02*
X163214285Y-64353571D01*
X163785714Y-65853571D01*
X163785714Y-64353571D01*
X164261904Y-65853571D02*
X164261904Y-64353571D01*
X164500000Y-64353571D01*
X164642857Y-64425000D01*
X164738095Y-64567857D01*
X164785714Y-64710714D01*
X164833333Y-64996428D01*
X164833333Y-65210714D01*
X164785714Y-65496428D01*
X164738095Y-65639285D01*
X164642857Y-65782142D01*
X164500000Y-65853571D01*
X164261904Y-65853571D01*
X162166666Y-67732142D02*
X162928571Y-67732142D01*
X163928571Y-68303571D02*
X163357142Y-68303571D01*
X163642857Y-68303571D02*
X163642857Y-66803571D01*
X163547619Y-67017857D01*
X163452380Y-67160714D01*
X163357142Y-67232142D01*
X164309523Y-66946428D02*
X164357142Y-66875000D01*
X164452380Y-66803571D01*
X164690476Y-66803571D01*
X164785714Y-66875000D01*
X164833333Y-66946428D01*
X164880952Y-67089285D01*
X164880952Y-67232142D01*
X164833333Y-67446428D01*
X164261904Y-68303571D01*
X164880952Y-68303571D01*
D14*
X138000000Y-119000000D02*
X138000000Y-81000000D01*
X118000000Y-119000000D02*
X138000000Y-119000000D01*
X118000000Y-81000000D02*
X118000000Y-119000000D01*
X138000000Y-81000000D02*
X118000000Y-81000000D01*
X138000000Y-140000000D02*
X139000000Y-140000000D01*
X138000000Y-60000000D02*
X139000000Y-60000000D01*
X139000000Y-140000000D02*
X139000000Y-60000000D01*
X138000000Y-60000000D02*
X138000000Y-140000000D01*
X200000000Y-50000000D02*
X100000000Y-50000000D01*
X200000000Y-150000000D02*
X200000000Y-50000000D01*
X100000000Y-150000000D02*
X200000000Y-150000000D01*
X100000000Y-50000000D02*
X100000000Y-150000000D01*
D15*
X145280952Y-114561904D02*
X145547619Y-115361904D01*
X145814285Y-114561904D01*
X146080952Y-115361904D02*
X146080952Y-114828571D01*
X146080952Y-114561904D02*
X146042857Y-114600000D01*
X146080952Y-114638095D01*
X146119047Y-114600000D01*
X146080952Y-114561904D01*
X146080952Y-114638095D01*
X146461904Y-114828571D02*
X146461904Y-115361904D01*
X146461904Y-114904761D02*
X146500000Y-114866666D01*
X146576190Y-114828571D01*
X146690476Y-114828571D01*
X146766666Y-114866666D01*
X146804761Y-114942857D01*
X146804761Y-115361904D01*
X145490476Y-112200000D02*
X145414285Y-112161904D01*
X145300000Y-112161904D01*
X145185714Y-112200000D01*
X145109523Y-112276190D01*
X145071428Y-112352380D01*
X145033333Y-112504761D01*
X145033333Y-112619047D01*
X145071428Y-112771428D01*
X145109523Y-112847619D01*
X145185714Y-112923809D01*
X145300000Y-112961904D01*
X145376190Y-112961904D01*
X145490476Y-112923809D01*
X145528571Y-112885714D01*
X145528571Y-112619047D01*
X145376190Y-112619047D01*
X145871428Y-112961904D02*
X145871428Y-112161904D01*
X146328571Y-112961904D01*
X146328571Y-112161904D01*
X146709523Y-112961904D02*
X146709523Y-112161904D01*
X146900000Y-112161904D01*
X147014285Y-112200000D01*
X147090476Y-112276190D01*
X147128571Y-112352380D01*
X147166666Y-112504761D01*
X147166666Y-112619047D01*
X147128571Y-112771428D01*
X147090476Y-112847619D01*
X147014285Y-112923809D01*
X146900000Y-112961904D01*
X146709523Y-112961904D01*
X144671428Y-107457142D02*
X145280952Y-107457142D01*
X144976190Y-107761904D02*
X144976190Y-107152380D01*
X146042857Y-106961904D02*
X145661904Y-106961904D01*
X145623809Y-107342857D01*
X145661904Y-107304761D01*
X145738095Y-107266666D01*
X145928571Y-107266666D01*
X146004761Y-107304761D01*
X146042857Y-107342857D01*
X146080952Y-107419047D01*
X146080952Y-107609523D01*
X146042857Y-107685714D01*
X146004761Y-107723809D01*
X145928571Y-107761904D01*
X145738095Y-107761904D01*
X145661904Y-107723809D01*
X145623809Y-107685714D01*
X146309523Y-106961904D02*
X146576190Y-107761904D01*
X146842857Y-106961904D01*
X145128571Y-105133333D02*
X145509523Y-105133333D01*
X145052380Y-105361904D02*
X145319047Y-104561904D01*
X145585714Y-105361904D01*
X145776190Y-104561904D02*
X146309523Y-104561904D01*
X145966666Y-105361904D01*
X145128571Y-102533333D02*
X145509523Y-102533333D01*
X145052380Y-102761904D02*
X145319047Y-101961904D01*
X145585714Y-102761904D01*
X146195238Y-101961904D02*
X146042857Y-101961904D01*
X145966666Y-102000000D01*
X145928571Y-102038095D01*
X145852380Y-102152380D01*
X145814285Y-102304761D01*
X145814285Y-102609523D01*
X145852380Y-102685714D01*
X145890476Y-102723809D01*
X145966666Y-102761904D01*
X146119047Y-102761904D01*
X146195238Y-102723809D01*
X146233333Y-102685714D01*
X146271428Y-102609523D01*
X146271428Y-102419047D01*
X146233333Y-102342857D01*
X146195238Y-102304761D01*
X146119047Y-102266666D01*
X145966666Y-102266666D01*
X145890476Y-102304761D01*
X145852380Y-102342857D01*
X145814285Y-102419047D01*
X145004761Y-99933333D02*
X145385714Y-99933333D01*
X144928571Y-100161904D02*
X145195238Y-99361904D01*
X145461904Y-100161904D01*
X146109523Y-99361904D02*
X145728571Y-99361904D01*
X145690476Y-99742857D01*
X145728571Y-99704761D01*
X145804761Y-99666666D01*
X145995238Y-99666666D01*
X146071428Y-99704761D01*
X146109523Y-99742857D01*
X146147619Y-99819047D01*
X146147619Y-100009523D01*
X146109523Y-100085714D01*
X146071428Y-100123809D01*
X145995238Y-100161904D01*
X145804761Y-100161904D01*
X145728571Y-100123809D01*
X145690476Y-100085714D01*
X147061904Y-99323809D02*
X146376190Y-100352380D01*
X147290476Y-100123809D02*
X147404761Y-100161904D01*
X147595238Y-100161904D01*
X147671428Y-100123809D01*
X147709523Y-100085714D01*
X147747619Y-100009523D01*
X147747619Y-99933333D01*
X147709523Y-99857142D01*
X147671428Y-99819047D01*
X147595238Y-99780952D01*
X147442857Y-99742857D01*
X147366666Y-99704761D01*
X147328571Y-99666666D01*
X147290476Y-99590476D01*
X147290476Y-99514285D01*
X147328571Y-99438095D01*
X147366666Y-99400000D01*
X147442857Y-99361904D01*
X147633333Y-99361904D01*
X147747619Y-99400000D01*
X148547619Y-100085714D02*
X148509523Y-100123809D01*
X148395238Y-100161904D01*
X148319047Y-100161904D01*
X148204761Y-100123809D01*
X148128571Y-100047619D01*
X148090476Y-99971428D01*
X148052380Y-99819047D01*
X148052380Y-99704761D01*
X148090476Y-99552380D01*
X148128571Y-99476190D01*
X148204761Y-99400000D01*
X148319047Y-99361904D01*
X148395238Y-99361904D01*
X148509523Y-99400000D01*
X148547619Y-99438095D01*
X149271428Y-100161904D02*
X148890476Y-100161904D01*
X148890476Y-99361904D01*
X145128571Y-91933333D02*
X145509523Y-91933333D01*
X145052380Y-92161904D02*
X145319047Y-91361904D01*
X145585714Y-92161904D01*
X145814285Y-91438095D02*
X145852380Y-91400000D01*
X145928571Y-91361904D01*
X146119047Y-91361904D01*
X146195238Y-91400000D01*
X146233333Y-91438095D01*
X146271428Y-91514285D01*
X146271428Y-91590476D01*
X146233333Y-91704761D01*
X145776190Y-92161904D01*
X146271428Y-92161904D01*
X145128571Y-89733333D02*
X145509523Y-89733333D01*
X145052380Y-89961904D02*
X145319047Y-89161904D01*
X145585714Y-89961904D01*
X146271428Y-89961904D02*
X145814285Y-89961904D01*
X146042857Y-89961904D02*
X146042857Y-89161904D01*
X145966666Y-89276190D01*
X145890476Y-89352380D01*
X145814285Y-89390476D01*
X145128571Y-87333333D02*
X145509523Y-87333333D01*
X145052380Y-87561904D02*
X145319047Y-86761904D01*
X145585714Y-87561904D01*
X146004761Y-86761904D02*
X146080952Y-86761904D01*
X146157142Y-86800000D01*
X146195238Y-86838095D01*
X146233333Y-86914285D01*
X146271428Y-87066666D01*
X146271428Y-87257142D01*
X146233333Y-87409523D01*
X146195238Y-87485714D01*
X146157142Y-87523809D01*
X146080952Y-87561904D01*
X146004761Y-87561904D01*
X145928571Y-87523809D01*
X145890476Y-87485714D01*
X145852380Y-87409523D01*
X145814285Y-87257142D01*
X145814285Y-87066666D01*
X145852380Y-86914285D01*
X145890476Y-86838095D01*
X145928571Y-86800000D01*
X146004761Y-86761904D01*
X155890476Y-115161904D02*
X156347619Y-115161904D01*
X156119047Y-115961904D02*
X156119047Y-115161904D01*
X156538095Y-115161904D02*
X157071428Y-115961904D01*
X157071428Y-115161904D02*
X156538095Y-115961904D01*
X156166666Y-112761904D02*
X155900000Y-112380952D01*
X155709523Y-112761904D02*
X155709523Y-111961904D01*
X156014285Y-111961904D01*
X156090476Y-112000000D01*
X156128571Y-112038095D01*
X156166666Y-112114285D01*
X156166666Y-112228571D01*
X156128571Y-112304761D01*
X156090476Y-112342857D01*
X156014285Y-112380952D01*
X155709523Y-112380952D01*
X156433333Y-111961904D02*
X156966666Y-112761904D01*
X156966666Y-111961904D02*
X156433333Y-112761904D01*
X155861904Y-110361904D02*
X155595238Y-109980952D01*
X155404761Y-110361904D02*
X155404761Y-109561904D01*
X155709523Y-109561904D01*
X155785714Y-109600000D01*
X155823809Y-109638095D01*
X155861904Y-109714285D01*
X155861904Y-109828571D01*
X155823809Y-109904761D01*
X155785714Y-109942857D01*
X155709523Y-109980952D01*
X155404761Y-109980952D01*
X156166666Y-110323809D02*
X156280952Y-110361904D01*
X156471428Y-110361904D01*
X156547619Y-110323809D01*
X156585714Y-110285714D01*
X156623809Y-110209523D01*
X156623809Y-110133333D01*
X156585714Y-110057142D01*
X156547619Y-110019047D01*
X156471428Y-109980952D01*
X156319047Y-109942857D01*
X156242857Y-109904761D01*
X156204761Y-109866666D01*
X156166666Y-109790476D01*
X156166666Y-109714285D01*
X156204761Y-109638095D01*
X156242857Y-109600000D01*
X156319047Y-109561904D01*
X156509523Y-109561904D01*
X156623809Y-109600000D01*
X156852380Y-109561904D02*
X157309523Y-109561904D01*
X157080952Y-110361904D02*
X157080952Y-109561904D01*
X155690476Y-106600000D02*
X155614285Y-106561904D01*
X155500000Y-106561904D01*
X155385714Y-106600000D01*
X155309523Y-106676190D01*
X155271428Y-106752380D01*
X155233333Y-106904761D01*
X155233333Y-107019047D01*
X155271428Y-107171428D01*
X155309523Y-107247619D01*
X155385714Y-107323809D01*
X155500000Y-107361904D01*
X155576190Y-107361904D01*
X155690476Y-107323809D01*
X155728571Y-107285714D01*
X155728571Y-107019047D01*
X155576190Y-107019047D01*
X156071428Y-107361904D02*
X156071428Y-106561904D01*
X156528571Y-107361904D01*
X156528571Y-106561904D01*
X156909523Y-107361904D02*
X156909523Y-106561904D01*
X157100000Y-106561904D01*
X157214285Y-106600000D01*
X157290476Y-106676190D01*
X157328571Y-106752380D01*
X157366666Y-106904761D01*
X157366666Y-107019047D01*
X157328571Y-107171428D01*
X157290476Y-107247619D01*
X157214285Y-107323809D01*
X157100000Y-107361904D01*
X156909523Y-107361904D01*
X155709523Y-105361904D02*
X155709523Y-104561904D01*
X155900000Y-104561904D01*
X156014285Y-104600000D01*
X156090476Y-104676190D01*
X156128571Y-104752380D01*
X156166666Y-104904761D01*
X156166666Y-105019047D01*
X156128571Y-105171428D01*
X156090476Y-105247619D01*
X156014285Y-105323809D01*
X155900000Y-105361904D01*
X155709523Y-105361904D01*
X156471428Y-104638095D02*
X156509523Y-104600000D01*
X156585714Y-104561904D01*
X156776190Y-104561904D01*
X156852380Y-104600000D01*
X156890476Y-104638095D01*
X156928571Y-104714285D01*
X156928571Y-104790476D01*
X156890476Y-104904761D01*
X156433333Y-105361904D01*
X156928571Y-105361904D01*
X155709523Y-102561904D02*
X155709523Y-101761904D01*
X155900000Y-101761904D01*
X156014285Y-101800000D01*
X156090476Y-101876190D01*
X156128571Y-101952380D01*
X156166666Y-102104761D01*
X156166666Y-102219047D01*
X156128571Y-102371428D01*
X156090476Y-102447619D01*
X156014285Y-102523809D01*
X155900000Y-102561904D01*
X155709523Y-102561904D01*
X156433333Y-101761904D02*
X156928571Y-101761904D01*
X156661904Y-102066666D01*
X156776190Y-102066666D01*
X156852380Y-102104761D01*
X156890476Y-102142857D01*
X156928571Y-102219047D01*
X156928571Y-102409523D01*
X156890476Y-102485714D01*
X156852380Y-102523809D01*
X156776190Y-102561904D01*
X156547619Y-102561904D01*
X156471428Y-102523809D01*
X156433333Y-102485714D01*
X155909523Y-100161904D02*
X155909523Y-99361904D01*
X156100000Y-99361904D01*
X156214285Y-99400000D01*
X156290476Y-99476190D01*
X156328571Y-99552380D01*
X156366666Y-99704761D01*
X156366666Y-99819047D01*
X156328571Y-99971428D01*
X156290476Y-100047619D01*
X156214285Y-100123809D01*
X156100000Y-100161904D01*
X155909523Y-100161904D01*
X157052380Y-99628571D02*
X157052380Y-100161904D01*
X156861904Y-99323809D02*
X156671428Y-99895238D01*
X157166666Y-99895238D01*
X155909523Y-97761904D02*
X155909523Y-96961904D01*
X156100000Y-96961904D01*
X156214285Y-97000000D01*
X156290476Y-97076190D01*
X156328571Y-97152380D01*
X156366666Y-97304761D01*
X156366666Y-97419047D01*
X156328571Y-97571428D01*
X156290476Y-97647619D01*
X156214285Y-97723809D01*
X156100000Y-97761904D01*
X155909523Y-97761904D01*
X157090476Y-96961904D02*
X156709523Y-96961904D01*
X156671428Y-97342857D01*
X156709523Y-97304761D01*
X156785714Y-97266666D01*
X156976190Y-97266666D01*
X157052380Y-97304761D01*
X157090476Y-97342857D01*
X157128571Y-97419047D01*
X157128571Y-97609523D01*
X157090476Y-97685714D01*
X157052380Y-97723809D01*
X156976190Y-97761904D01*
X156785714Y-97761904D01*
X156709523Y-97723809D01*
X156671428Y-97685714D01*
X155509523Y-87361904D02*
X155509523Y-86561904D01*
X155700000Y-86561904D01*
X155814285Y-86600000D01*
X155890476Y-86676190D01*
X155928571Y-86752380D01*
X155966666Y-86904761D01*
X155966666Y-87019047D01*
X155928571Y-87171428D01*
X155890476Y-87247619D01*
X155814285Y-87323809D01*
X155700000Y-87361904D01*
X155509523Y-87361904D01*
X156347619Y-87361904D02*
X156500000Y-87361904D01*
X156576190Y-87323809D01*
X156614285Y-87285714D01*
X156690476Y-87171428D01*
X156728571Y-87019047D01*
X156728571Y-86714285D01*
X156690476Y-86638095D01*
X156652380Y-86600000D01*
X156576190Y-86561904D01*
X156423809Y-86561904D01*
X156347619Y-86600000D01*
X156309523Y-86638095D01*
X156271428Y-86714285D01*
X156271428Y-86904761D01*
X156309523Y-86980952D01*
X156347619Y-87019047D01*
X156423809Y-87057142D01*
X156576190Y-87057142D01*
X156652380Y-87019047D01*
X156690476Y-86980952D01*
X156728571Y-86904761D01*
X155128571Y-84961904D02*
X155128571Y-84161904D01*
X155319047Y-84161904D01*
X155433333Y-84200000D01*
X155509523Y-84276190D01*
X155547619Y-84352380D01*
X155585714Y-84504761D01*
X155585714Y-84619047D01*
X155547619Y-84771428D01*
X155509523Y-84847619D01*
X155433333Y-84923809D01*
X155319047Y-84961904D01*
X155128571Y-84961904D01*
X156347619Y-84961904D02*
X155890476Y-84961904D01*
X156119047Y-84961904D02*
X156119047Y-84161904D01*
X156042857Y-84276190D01*
X155966666Y-84352380D01*
X155890476Y-84390476D01*
X156842857Y-84161904D02*
X156919047Y-84161904D01*
X156995238Y-84200000D01*
X157033333Y-84238095D01*
X157071428Y-84314285D01*
X157109523Y-84466666D01*
X157109523Y-84657142D01*
X157071428Y-84809523D01*
X157033333Y-84885714D01*
X156995238Y-84923809D01*
X156919047Y-84961904D01*
X156842857Y-84961904D01*
X156766666Y-84923809D01*
X156728571Y-84885714D01*
X156690476Y-84809523D01*
X156652380Y-84657142D01*
X156652380Y-84466666D01*
X156690476Y-84314285D01*
X156728571Y-84238095D01*
X156766666Y-84200000D01*
X156842857Y-84161904D01*
X155128571Y-82361904D02*
X155128571Y-81561904D01*
X155319047Y-81561904D01*
X155433333Y-81600000D01*
X155509523Y-81676190D01*
X155547619Y-81752380D01*
X155585714Y-81904761D01*
X155585714Y-82019047D01*
X155547619Y-82171428D01*
X155509523Y-82247619D01*
X155433333Y-82323809D01*
X155319047Y-82361904D01*
X155128571Y-82361904D01*
X156347619Y-82361904D02*
X155890476Y-82361904D01*
X156119047Y-82361904D02*
X156119047Y-81561904D01*
X156042857Y-81676190D01*
X155966666Y-81752380D01*
X155890476Y-81790476D01*
X157109523Y-82361904D02*
X156652380Y-82361904D01*
X156880952Y-82361904D02*
X156880952Y-81561904D01*
X156804761Y-81676190D01*
X156728571Y-81752380D01*
X156652380Y-81790476D01*
X144909523Y-81761904D02*
X145404761Y-81761904D01*
X145138095Y-82066666D01*
X145252380Y-82066666D01*
X145328571Y-82104761D01*
X145366666Y-82142857D01*
X145404761Y-82219047D01*
X145404761Y-82409523D01*
X145366666Y-82485714D01*
X145328571Y-82523809D01*
X145252380Y-82561904D01*
X145023809Y-82561904D01*
X144947619Y-82523809D01*
X144909523Y-82485714D01*
X145633333Y-81761904D02*
X145900000Y-82561904D01*
X146166666Y-81761904D01*
X146357142Y-81761904D02*
X146852380Y-81761904D01*
X146585714Y-82066666D01*
X146700000Y-82066666D01*
X146776190Y-82104761D01*
X146814285Y-82142857D01*
X146852380Y-82219047D01*
X146852380Y-82409523D01*
X146814285Y-82485714D01*
X146776190Y-82523809D01*
X146700000Y-82561904D01*
X146471428Y-82561904D01*
X146395238Y-82523809D01*
X146357142Y-82485714D01*
X155128571Y-79561904D02*
X155128571Y-78761904D01*
X155319047Y-78761904D01*
X155433333Y-78800000D01*
X155509523Y-78876190D01*
X155547619Y-78952380D01*
X155585714Y-79104761D01*
X155585714Y-79219047D01*
X155547619Y-79371428D01*
X155509523Y-79447619D01*
X155433333Y-79523809D01*
X155319047Y-79561904D01*
X155128571Y-79561904D01*
X156347619Y-79561904D02*
X155890476Y-79561904D01*
X156119047Y-79561904D02*
X156119047Y-78761904D01*
X156042857Y-78876190D01*
X155966666Y-78952380D01*
X155890476Y-78990476D01*
X156652380Y-78838095D02*
X156690476Y-78800000D01*
X156766666Y-78761904D01*
X156957142Y-78761904D01*
X157033333Y-78800000D01*
X157071428Y-78838095D01*
X157109523Y-78914285D01*
X157109523Y-78990476D01*
X157071428Y-79104761D01*
X156614285Y-79561904D01*
X157109523Y-79561904D01*
X144928571Y-79961904D02*
X144928571Y-79161904D01*
X145119047Y-79161904D01*
X145233333Y-79200000D01*
X145309523Y-79276190D01*
X145347619Y-79352380D01*
X145385714Y-79504761D01*
X145385714Y-79619047D01*
X145347619Y-79771428D01*
X145309523Y-79847619D01*
X145233333Y-79923809D01*
X145119047Y-79961904D01*
X144928571Y-79961904D01*
X146147619Y-79961904D02*
X145690476Y-79961904D01*
X145919047Y-79961904D02*
X145919047Y-79161904D01*
X145842857Y-79276190D01*
X145766666Y-79352380D01*
X145690476Y-79390476D01*
X146414285Y-79161904D02*
X146909523Y-79161904D01*
X146642857Y-79466666D01*
X146757142Y-79466666D01*
X146833333Y-79504761D01*
X146871428Y-79542857D01*
X146909523Y-79619047D01*
X146909523Y-79809523D01*
X146871428Y-79885714D01*
X146833333Y-79923809D01*
X146757142Y-79961904D01*
X146528571Y-79961904D01*
X146452380Y-79923809D01*
X146414285Y-79885714D01*
X146242857Y-73141666D02*
X146719047Y-73141666D01*
X146147619Y-73427380D02*
X146480952Y-72427380D01*
X146814285Y-73427380D01*
X147147619Y-73427380D02*
X147147619Y-72760714D01*
X147147619Y-72951190D02*
X147195238Y-72855952D01*
X147242857Y-72808333D01*
X147338095Y-72760714D01*
X147433333Y-72760714D01*
X148195238Y-73427380D02*
X148195238Y-72427380D01*
X148195238Y-73379761D02*
X148100000Y-73427380D01*
X147909523Y-73427380D01*
X147814285Y-73379761D01*
X147766666Y-73332142D01*
X147719047Y-73236904D01*
X147719047Y-72951190D01*
X147766666Y-72855952D01*
X147814285Y-72808333D01*
X147909523Y-72760714D01*
X148100000Y-72760714D01*
X148195238Y-72808333D01*
X149100000Y-72760714D02*
X149100000Y-73427380D01*
X148671428Y-72760714D02*
X148671428Y-73284523D01*
X148719047Y-73379761D01*
X148814285Y-73427380D01*
X148957142Y-73427380D01*
X149052380Y-73379761D01*
X149100000Y-73332142D01*
X149576190Y-73427380D02*
X149576190Y-72760714D01*
X149576190Y-72427380D02*
X149528571Y-72475000D01*
X149576190Y-72522619D01*
X149623809Y-72475000D01*
X149576190Y-72427380D01*
X149576190Y-72522619D01*
X150052380Y-72760714D02*
X150052380Y-73427380D01*
X150052380Y-72855952D02*
X150100000Y-72808333D01*
X150195238Y-72760714D01*
X150338095Y-72760714D01*
X150433333Y-72808333D01*
X150480952Y-72903571D01*
X150480952Y-73427380D01*
X151100000Y-73427380D02*
X151004761Y-73379761D01*
X150957142Y-73332142D01*
X150909523Y-73236904D01*
X150909523Y-72951190D01*
X150957142Y-72855952D01*
X151004761Y-72808333D01*
X151100000Y-72760714D01*
X151242857Y-72760714D01*
X151338095Y-72808333D01*
X151385714Y-72855952D01*
X151433333Y-72951190D01*
X151433333Y-73236904D01*
X151385714Y-73332142D01*
X151338095Y-73379761D01*
X151242857Y-73427380D01*
X151100000Y-73427380D01*
X152623809Y-73427380D02*
X152623809Y-72427380D01*
X153195238Y-73427380D01*
X153195238Y-72427380D01*
X154100000Y-73427380D02*
X154100000Y-72903571D01*
X154052380Y-72808333D01*
X153957142Y-72760714D01*
X153766666Y-72760714D01*
X153671428Y-72808333D01*
X154100000Y-73379761D02*
X154004761Y-73427380D01*
X153766666Y-73427380D01*
X153671428Y-73379761D01*
X153623809Y-73284523D01*
X153623809Y-73189285D01*
X153671428Y-73094047D01*
X153766666Y-73046428D01*
X154004761Y-73046428D01*
X154100000Y-72998809D01*
X154576190Y-72760714D02*
X154576190Y-73427380D01*
X154576190Y-72855952D02*
X154623809Y-72808333D01*
X154719047Y-72760714D01*
X154861904Y-72760714D01*
X154957142Y-72808333D01*
X155004761Y-72903571D01*
X155004761Y-73427380D01*
X155623809Y-73427380D02*
X155528571Y-73379761D01*
X155480952Y-73332142D01*
X155433333Y-73236904D01*
X155433333Y-72951190D01*
X155480952Y-72855952D01*
X155528571Y-72808333D01*
X155623809Y-72760714D01*
X155766666Y-72760714D01*
X155861904Y-72808333D01*
X155909523Y-72855952D01*
X155957142Y-72951190D01*
X155957142Y-73236904D01*
X155909523Y-73332142D01*
X155861904Y-73379761D01*
X155766666Y-73427380D01*
X155623809Y-73427380D01*
X147933333Y-74077380D02*
X147933333Y-74886904D01*
X147980952Y-74982142D01*
X148028571Y-75029761D01*
X148123809Y-75077380D01*
X148314285Y-75077380D01*
X148409523Y-75029761D01*
X148457142Y-74982142D01*
X148504761Y-74886904D01*
X148504761Y-74077380D01*
X148933333Y-75029761D02*
X149076190Y-75077380D01*
X149314285Y-75077380D01*
X149409523Y-75029761D01*
X149457142Y-74982142D01*
X149504761Y-74886904D01*
X149504761Y-74791666D01*
X149457142Y-74696428D01*
X149409523Y-74648809D01*
X149314285Y-74601190D01*
X149123809Y-74553571D01*
X149028571Y-74505952D01*
X148980952Y-74458333D01*
X148933333Y-74363095D01*
X148933333Y-74267857D01*
X148980952Y-74172619D01*
X149028571Y-74125000D01*
X149123809Y-74077380D01*
X149361904Y-74077380D01*
X149504761Y-74125000D01*
X150266666Y-74553571D02*
X150409523Y-74601190D01*
X150457142Y-74648809D01*
X150504761Y-74744047D01*
X150504761Y-74886904D01*
X150457142Y-74982142D01*
X150409523Y-75029761D01*
X150314285Y-75077380D01*
X149933333Y-75077380D01*
X149933333Y-74077380D01*
X150266666Y-74077380D01*
X150361904Y-74125000D01*
X150409523Y-74172619D01*
X150457142Y-74267857D01*
X150457142Y-74363095D01*
X150409523Y-74458333D01*
X150361904Y-74505952D01*
X150266666Y-74553571D01*
X149933333Y-74553571D01*
X151647619Y-75029761D02*
X151742857Y-75077380D01*
X151933333Y-75077380D01*
X152028571Y-75029761D01*
X152076190Y-74934523D01*
X152076190Y-74886904D01*
X152028571Y-74791666D01*
X151933333Y-74744047D01*
X151790476Y-74744047D01*
X151695238Y-74696428D01*
X151647619Y-74601190D01*
X151647619Y-74553571D01*
X151695238Y-74458333D01*
X151790476Y-74410714D01*
X151933333Y-74410714D01*
X152028571Y-74458333D01*
X152504761Y-75077380D02*
X152504761Y-74410714D01*
X152504761Y-74077380D02*
X152457142Y-74125000D01*
X152504761Y-74172619D01*
X152552380Y-74125000D01*
X152504761Y-74077380D01*
X152504761Y-74172619D01*
X153409523Y-75077380D02*
X153409523Y-74077380D01*
X153409523Y-75029761D02*
X153314285Y-75077380D01*
X153123809Y-75077380D01*
X153028571Y-75029761D01*
X152980952Y-74982142D01*
X152933333Y-74886904D01*
X152933333Y-74601190D01*
X152980952Y-74505952D01*
X153028571Y-74458333D01*
X153123809Y-74410714D01*
X153314285Y-74410714D01*
X153409523Y-74458333D01*
X154266666Y-75029761D02*
X154171428Y-75077380D01*
X153980952Y-75077380D01*
X153885714Y-75029761D01*
X153838095Y-74934523D01*
X153838095Y-74553571D01*
X153885714Y-74458333D01*
X153980952Y-74410714D01*
X154171428Y-74410714D01*
X154266666Y-74458333D01*
X154314285Y-74553571D01*
X154314285Y-74648809D01*
X153838095Y-74744047D01*
D11*
X137035714Y-146214285D02*
X132535714Y-146214285D01*
X135750000Y-144714285D01*
X132535714Y-143214285D01*
X137035714Y-143214285D01*
X137035714Y-141071428D02*
X132535714Y-141071428D01*
X137035714Y-138928571D02*
X132535714Y-138928571D01*
X132535714Y-137857142D01*
X132750000Y-137214285D01*
X133178571Y-136785714D01*
X133607142Y-136571428D01*
X134464285Y-136357142D01*
X135107142Y-136357142D01*
X135964285Y-136571428D01*
X136392857Y-136785714D01*
X136821428Y-137214285D01*
X137035714Y-137857142D01*
X137035714Y-138928571D01*
X137035714Y-134428571D02*
X132535714Y-134428571D01*
X132964285Y-132500000D02*
X132750000Y-132285714D01*
X132535714Y-131857142D01*
X132535714Y-130785714D01*
X132750000Y-130357142D01*
X132964285Y-130142857D01*
X133392857Y-129928571D01*
X133821428Y-129928571D01*
X134464285Y-130142857D01*
X137035714Y-132714285D01*
X137035714Y-129928571D01*
X136607142Y-125428571D02*
X136821428Y-125642857D01*
X137035714Y-126285714D01*
X137035714Y-126714285D01*
X136821428Y-127357142D01*
X136392857Y-127785714D01*
X135964285Y-128000000D01*
X135107142Y-128214285D01*
X134464285Y-128214285D01*
X133607142Y-128000000D01*
X133178571Y-127785714D01*
X132750000Y-127357142D01*
X132535714Y-126714285D01*
X132535714Y-126285714D01*
X132750000Y-125642857D01*
X132964285Y-125428571D01*
X132535714Y-124142857D02*
X137035714Y-122642857D01*
X132535714Y-121142857D01*
D12*
X147785714Y-52175000D02*
X147690476Y-52103571D01*
X147547619Y-52103571D01*
X147404761Y-52175000D01*
X147309523Y-52317857D01*
X147261904Y-52460714D01*
X147214285Y-52746428D01*
X147214285Y-52960714D01*
X147261904Y-53246428D01*
X147309523Y-53389285D01*
X147404761Y-53532142D01*
X147547619Y-53603571D01*
X147642857Y-53603571D01*
X147785714Y-53532142D01*
X147833333Y-53460714D01*
X147833333Y-52960714D01*
X147642857Y-52960714D01*
X148404761Y-52746428D02*
X148309523Y-52675000D01*
X148261904Y-52603571D01*
X148214285Y-52460714D01*
X148214285Y-52389285D01*
X148261904Y-52246428D01*
X148309523Y-52175000D01*
X148404761Y-52103571D01*
X148595238Y-52103571D01*
X148690476Y-52175000D01*
X148738095Y-52246428D01*
X148785714Y-52389285D01*
X148785714Y-52460714D01*
X148738095Y-52603571D01*
X148690476Y-52675000D01*
X148595238Y-52746428D01*
X148404761Y-52746428D01*
X148309523Y-52817857D01*
X148261904Y-52889285D01*
X148214285Y-53032142D01*
X148214285Y-53317857D01*
X148261904Y-53460714D01*
X148309523Y-53532142D01*
X148404761Y-53603571D01*
X148595238Y-53603571D01*
X148690476Y-53532142D01*
X148738095Y-53460714D01*
X148785714Y-53317857D01*
X148785714Y-53032142D01*
X148738095Y-52889285D01*
X148690476Y-52817857D01*
X148595238Y-52746428D01*
X147880952Y-55910714D02*
X147833333Y-55982142D01*
X147690476Y-56053571D01*
X147595238Y-56053571D01*
X147452380Y-55982142D01*
X147357142Y-55839285D01*
X147309523Y-55696428D01*
X147261904Y-55410714D01*
X147261904Y-55196428D01*
X147309523Y-54910714D01*
X147357142Y-54767857D01*
X147452380Y-54625000D01*
X147595238Y-54553571D01*
X147690476Y-54553571D01*
X147833333Y-54625000D01*
X147880952Y-54696428D01*
X148166666Y-54553571D02*
X148500000Y-56053571D01*
X148833333Y-54553571D01*
X147142857Y-57932142D02*
X147904761Y-57932142D01*
X147523809Y-58503571D02*
X147523809Y-57360714D01*
X148857142Y-57003571D02*
X148380952Y-57003571D01*
X148333333Y-57717857D01*
X148380952Y-57646428D01*
X148476190Y-57575000D01*
X148714285Y-57575000D01*
X148809523Y-57646428D01*
X148857142Y-57717857D01*
X148904761Y-57860714D01*
X148904761Y-58217857D01*
X148857142Y-58360714D01*
X148809523Y-58432142D01*
X148714285Y-58503571D01*
X148476190Y-58503571D01*
X148380952Y-58432142D01*
X148333333Y-58360714D01*
X146666666Y-60382142D02*
X147428571Y-60382142D01*
X147047619Y-60953571D02*
X147047619Y-59810714D01*
X148428571Y-60953571D02*
X147857142Y-60953571D01*
X148142857Y-60953571D02*
X148142857Y-59453571D01*
X148047619Y-59667857D01*
X147952380Y-59810714D01*
X147857142Y-59882142D01*
X148809523Y-59596428D02*
X148857142Y-59525000D01*
X148952380Y-59453571D01*
X149190476Y-59453571D01*
X149285714Y-59525000D01*
X149333333Y-59596428D01*
X149380952Y-59739285D01*
X149380952Y-59882142D01*
X149333333Y-60096428D01*
X148761904Y-60953571D01*
X149380952Y-60953571D01*
X147238095Y-61975000D02*
X147142857Y-61903571D01*
X147000000Y-61903571D01*
X146857142Y-61975000D01*
X146761904Y-62117857D01*
X146714285Y-62260714D01*
X146666666Y-62546428D01*
X146666666Y-62760714D01*
X146714285Y-63046428D01*
X146761904Y-63189285D01*
X146857142Y-63332142D01*
X147000000Y-63403571D01*
X147095238Y-63403571D01*
X147238095Y-63332142D01*
X147285714Y-63260714D01*
X147285714Y-62760714D01*
X147095238Y-62760714D01*
X147714285Y-63403571D02*
X147714285Y-61903571D01*
X148285714Y-63403571D01*
X148285714Y-61903571D01*
X148761904Y-63403571D02*
X148761904Y-61903571D01*
X149000000Y-61903571D01*
X149142857Y-61975000D01*
X149238095Y-62117857D01*
X149285714Y-62260714D01*
X149333333Y-62546428D01*
X149333333Y-62760714D01*
X149285714Y-63046428D01*
X149238095Y-63189285D01*
X149142857Y-63332142D01*
X149000000Y-63403571D01*
X148761904Y-63403571D01*
X147238095Y-64425000D02*
X147142857Y-64353571D01*
X147000000Y-64353571D01*
X146857142Y-64425000D01*
X146761904Y-64567857D01*
X146714285Y-64710714D01*
X146666666Y-64996428D01*
X146666666Y-65210714D01*
X146714285Y-65496428D01*
X146761904Y-65639285D01*
X146857142Y-65782142D01*
X147000000Y-65853571D01*
X147095238Y-65853571D01*
X147238095Y-65782142D01*
X147285714Y-65710714D01*
X147285714Y-65210714D01*
X147095238Y-65210714D01*
X147714285Y-65853571D02*
X147714285Y-64353571D01*
X148285714Y-65853571D01*
X148285714Y-64353571D01*
X148761904Y-65853571D02*
X148761904Y-64353571D01*
X149000000Y-64353571D01*
X149142857Y-64425000D01*
X149238095Y-64567857D01*
X149285714Y-64710714D01*
X149333333Y-64996428D01*
X149333333Y-65210714D01*
X149285714Y-65496428D01*
X149238095Y-65639285D01*
X149142857Y-65782142D01*
X149000000Y-65853571D01*
X148761904Y-65853571D01*
X147238095Y-66875000D02*
X147142857Y-66803571D01*
X147000000Y-66803571D01*
X146857142Y-66875000D01*
X146761904Y-67017857D01*
X146714285Y-67160714D01*
X146666666Y-67446428D01*
X146666666Y-67660714D01*
X146714285Y-67946428D01*
X146761904Y-68089285D01*
X146857142Y-68232142D01*
X147000000Y-68303571D01*
X147095238Y-68303571D01*
X147238095Y-68232142D01*
X147285714Y-68160714D01*
X147285714Y-67660714D01*
X147095238Y-67660714D01*
X147714285Y-68303571D02*
X147714285Y-66803571D01*
X148285714Y-68303571D01*
X148285714Y-66803571D01*
X148761904Y-68303571D02*
X148761904Y-66803571D01*
X149000000Y-66803571D01*
X149142857Y-66875000D01*
X149238095Y-67017857D01*
X149285714Y-67160714D01*
X149333333Y-67446428D01*
X149333333Y-67660714D01*
X149285714Y-67946428D01*
X149238095Y-68089285D01*
X149142857Y-68232142D01*
X149000000Y-68303571D01*
X148761904Y-68303571D01*
X146666666Y-70182142D02*
X147428571Y-70182142D01*
X148428571Y-70753571D02*
X147857142Y-70753571D01*
X148142857Y-70753571D02*
X148142857Y-69253571D01*
X148047619Y-69467857D01*
X147952380Y-69610714D01*
X147857142Y-69682142D01*
X148809523Y-69396428D02*
X148857142Y-69325000D01*
X148952380Y-69253571D01*
X149190476Y-69253571D01*
X149285714Y-69325000D01*
X149333333Y-69396428D01*
X149380952Y-69539285D01*
X149380952Y-69682142D01*
X149333333Y-69896428D01*
X148761904Y-70753571D01*
X149380952Y-70753571D01*
X128190476Y-121888571D02*
X128190476Y-122935238D01*
X127952380Y-121290476D02*
X127714285Y-122411904D01*
X128333333Y-122411904D01*
X127666666Y-123920238D02*
X128285714Y-123920238D01*
X127952380Y-124518333D01*
X128095238Y-124518333D01*
X128190476Y-124593095D01*
X128238095Y-124667857D01*
X128285714Y-124817380D01*
X128285714Y-125191190D01*
X128238095Y-125340714D01*
X128190476Y-125415476D01*
X128095238Y-125490238D01*
X127809523Y-125490238D01*
X127714285Y-125415476D01*
X127666666Y-125340714D01*
X127714285Y-126624761D02*
X127761904Y-126550000D01*
X127857142Y-126475238D01*
X128095238Y-126475238D01*
X128190476Y-126550000D01*
X128238095Y-126624761D01*
X128285714Y-126774285D01*
X128285714Y-126923809D01*
X128238095Y-127148095D01*
X127666666Y-128045238D01*
X128285714Y-128045238D01*
X128285714Y-130600238D02*
X127714285Y-130600238D01*
X128000000Y-130600238D02*
X128000000Y-129030238D01*
X127904761Y-129254523D01*
X127809523Y-129404047D01*
X127714285Y-129478809D01*
X127785714Y-131660000D02*
X127690476Y-131585238D01*
X127547619Y-131585238D01*
X127404761Y-131660000D01*
X127309523Y-131809523D01*
X127261904Y-131959047D01*
X127214285Y-132258095D01*
X127214285Y-132482380D01*
X127261904Y-132781428D01*
X127309523Y-132930952D01*
X127404761Y-133080476D01*
X127547619Y-133155238D01*
X127642857Y-133155238D01*
X127785714Y-133080476D01*
X127833333Y-133005714D01*
X127833333Y-132482380D01*
X127642857Y-132482380D01*
X128214285Y-131734761D02*
X128261904Y-131660000D01*
X128357142Y-131585238D01*
X128595238Y-131585238D01*
X128690476Y-131660000D01*
X128738095Y-131734761D01*
X128785714Y-131884285D01*
X128785714Y-132033809D01*
X128738095Y-132258095D01*
X128166666Y-133155238D01*
X128785714Y-133155238D01*
X127785714Y-134215000D02*
X127690476Y-134140238D01*
X127547619Y-134140238D01*
X127404761Y-134215000D01*
X127309523Y-134364523D01*
X127261904Y-134514047D01*
X127214285Y-134813095D01*
X127214285Y-135037380D01*
X127261904Y-135336428D01*
X127309523Y-135485952D01*
X127404761Y-135635476D01*
X127547619Y-135710238D01*
X127642857Y-135710238D01*
X127785714Y-135635476D01*
X127833333Y-135560714D01*
X127833333Y-135037380D01*
X127642857Y-135037380D01*
X128785714Y-135710238D02*
X128214285Y-135710238D01*
X128500000Y-135710238D02*
X128500000Y-134140238D01*
X128404761Y-134364523D01*
X128309523Y-134514047D01*
X128214285Y-134588809D01*
X127238095Y-136770000D02*
X127142857Y-136695238D01*
X127000000Y-136695238D01*
X126857142Y-136770000D01*
X126761904Y-136919523D01*
X126714285Y-137069047D01*
X126666666Y-137368095D01*
X126666666Y-137592380D01*
X126714285Y-137891428D01*
X126761904Y-138040952D01*
X126857142Y-138190476D01*
X127000000Y-138265238D01*
X127095238Y-138265238D01*
X127238095Y-138190476D01*
X127285714Y-138115714D01*
X127285714Y-137592380D01*
X127095238Y-137592380D01*
X127714285Y-138265238D02*
X127714285Y-136695238D01*
X128285714Y-138265238D01*
X128285714Y-136695238D01*
X128761904Y-138265238D02*
X128761904Y-136695238D01*
X129000000Y-136695238D01*
X129142857Y-136770000D01*
X129238095Y-136919523D01*
X129285714Y-137069047D01*
X129333333Y-137368095D01*
X129333333Y-137592380D01*
X129285714Y-137891428D01*
X129238095Y-138040952D01*
X129142857Y-138190476D01*
X129000000Y-138265238D01*
X128761904Y-138265238D01*
X127404761Y-140670714D02*
X127357142Y-140745476D01*
X127214285Y-140820238D01*
X127119047Y-140820238D01*
X126976190Y-140745476D01*
X126880952Y-140595952D01*
X126833333Y-140446428D01*
X126785714Y-140147380D01*
X126785714Y-139923095D01*
X126833333Y-139624047D01*
X126880952Y-139474523D01*
X126976190Y-139325000D01*
X127119047Y-139250238D01*
X127214285Y-139250238D01*
X127357142Y-139325000D01*
X127404761Y-139399761D01*
X127690476Y-139250238D02*
X128023809Y-140820238D01*
X128357142Y-139250238D01*
X128642857Y-139399761D02*
X128690476Y-139325000D01*
X128785714Y-139250238D01*
X129023809Y-139250238D01*
X129119047Y-139325000D01*
X129166666Y-139399761D01*
X129214285Y-139549285D01*
X129214285Y-139698809D01*
X129166666Y-139923095D01*
X128595238Y-140820238D01*
X129214285Y-140820238D01*
X126690476Y-143375238D02*
X126690476Y-141805238D01*
X127023809Y-142926666D01*
X127357142Y-141805238D01*
X127357142Y-143375238D01*
X127833333Y-143375238D02*
X127833333Y-141805238D01*
X128309523Y-143375238D02*
X128309523Y-141805238D01*
X128547619Y-141805238D01*
X128690476Y-141880000D01*
X128785714Y-142029523D01*
X128833333Y-142179047D01*
X128880952Y-142478095D01*
X128880952Y-142702380D01*
X128833333Y-143001428D01*
X128785714Y-143150952D01*
X128690476Y-143300476D01*
X128547619Y-143375238D01*
X128309523Y-143375238D01*
X129309523Y-143375238D02*
X129309523Y-141805238D01*
X127404761Y-145780714D02*
X127357142Y-145855476D01*
X127214285Y-145930238D01*
X127119047Y-145930238D01*
X126976190Y-145855476D01*
X126880952Y-145705952D01*
X126833333Y-145556428D01*
X126785714Y-145257380D01*
X126785714Y-145033095D01*
X126833333Y-144734047D01*
X126880952Y-144584523D01*
X126976190Y-144435000D01*
X127119047Y-144360238D01*
X127214285Y-144360238D01*
X127357142Y-144435000D01*
X127404761Y-144509761D01*
X127690476Y-144360238D02*
X128023809Y-145930238D01*
X128357142Y-144360238D01*
X129214285Y-145930238D02*
X128642857Y-145930238D01*
X128928571Y-145930238D02*
X128928571Y-144360238D01*
X128833333Y-144584523D01*
X128738095Y-144734047D01*
X128642857Y-144808809D01*
X127357142Y-148485238D02*
X126880952Y-148485238D01*
X126880952Y-146915238D01*
X128023809Y-147662857D02*
X127690476Y-147662857D01*
X127690476Y-148485238D02*
X127690476Y-146915238D01*
X128166666Y-146915238D01*
X128738095Y-146915238D02*
X128928571Y-146915238D01*
X129023809Y-146990000D01*
X129119047Y-147139523D01*
X129166666Y-147438571D01*
X129166666Y-147961904D01*
X129119047Y-148260952D01*
X129023809Y-148410476D01*
X128928571Y-148485238D01*
X128738095Y-148485238D01*
X128642857Y-148410476D01*
X128547619Y-148260952D01*
X128500000Y-147961904D01*
X128500000Y-147438571D01*
X128547619Y-147139523D01*
X128642857Y-146990000D01*
X128738095Y-146915238D01*
D16*
X180932738Y-52810714D02*
X181694642Y-52810714D01*
X182694642Y-53401190D02*
X182123214Y-53401190D01*
X182408928Y-53401190D02*
X182408928Y-51851190D01*
X182313690Y-52072619D01*
X182218452Y-52220238D01*
X182123214Y-52294047D01*
X183075595Y-51998809D02*
X183123214Y-51925000D01*
X183218452Y-51851190D01*
X183456547Y-51851190D01*
X183551785Y-51925000D01*
X183599404Y-51998809D01*
X183647023Y-52146428D01*
X183647023Y-52294047D01*
X183599404Y-52515476D01*
X183027976Y-53401190D01*
X183647023Y-53401190D01*
X181551785Y-54500000D02*
X181456547Y-54426190D01*
X181313690Y-54426190D01*
X181170833Y-54500000D01*
X181075595Y-54647619D01*
X181027976Y-54795238D01*
X180980357Y-55090476D01*
X180980357Y-55311904D01*
X181027976Y-55607142D01*
X181075595Y-55754761D01*
X181170833Y-55902380D01*
X181313690Y-55976190D01*
X181408928Y-55976190D01*
X181551785Y-55902380D01*
X181599404Y-55828571D01*
X181599404Y-55311904D01*
X181408928Y-55311904D01*
X182027976Y-55976190D02*
X182027976Y-54426190D01*
X182599404Y-55976190D01*
X182599404Y-54426190D01*
X183075595Y-55976190D02*
X183075595Y-54426190D01*
X183313690Y-54426190D01*
X183456547Y-54500000D01*
X183551785Y-54647619D01*
X183599404Y-54795238D01*
X183647023Y-55090476D01*
X183647023Y-55311904D01*
X183599404Y-55607142D01*
X183551785Y-55754761D01*
X183456547Y-55902380D01*
X183313690Y-55976190D01*
X183075595Y-55976190D01*
X182218452Y-58108333D02*
X182694642Y-58108333D01*
X182123214Y-58551190D02*
X182456547Y-57001190D01*
X182789880Y-58551190D01*
X183313690Y-57001190D02*
X183408928Y-57001190D01*
X183504166Y-57075000D01*
X183551785Y-57148809D01*
X183599404Y-57296428D01*
X183647023Y-57591666D01*
X183647023Y-57960714D01*
X183599404Y-58255952D01*
X183551785Y-58403571D01*
X183504166Y-58477380D01*
X183408928Y-58551190D01*
X183313690Y-58551190D01*
X183218452Y-58477380D01*
X183170833Y-58403571D01*
X183123214Y-58255952D01*
X183075595Y-57960714D01*
X183075595Y-57591666D01*
X183123214Y-57296428D01*
X183170833Y-57148809D01*
X183218452Y-57075000D01*
X183313690Y-57001190D01*
X182218452Y-60683333D02*
X182694642Y-60683333D01*
X182123214Y-61126190D02*
X182456547Y-59576190D01*
X182789880Y-61126190D01*
X183647023Y-61126190D02*
X183075595Y-61126190D01*
X183361309Y-61126190D02*
X183361309Y-59576190D01*
X183266071Y-59797619D01*
X183170833Y-59945238D01*
X183075595Y-60019047D01*
X182218452Y-63258333D02*
X182694642Y-63258333D01*
X182123214Y-63701190D02*
X182456547Y-62151190D01*
X182789880Y-63701190D01*
X183075595Y-62298809D02*
X183123214Y-62225000D01*
X183218452Y-62151190D01*
X183456547Y-62151190D01*
X183551785Y-62225000D01*
X183599404Y-62298809D01*
X183647023Y-62446428D01*
X183647023Y-62594047D01*
X183599404Y-62815476D01*
X183027976Y-63701190D01*
X183647023Y-63701190D01*
X182218452Y-65833333D02*
X182694642Y-65833333D01*
X182123214Y-66276190D02*
X182456547Y-64726190D01*
X182789880Y-66276190D01*
X183551785Y-65242857D02*
X183551785Y-66276190D01*
X183313690Y-64652380D02*
X183075595Y-65759523D01*
X183694642Y-65759523D01*
X182218452Y-68408333D02*
X182694642Y-68408333D01*
X182123214Y-68851190D02*
X182456547Y-67301190D01*
X182789880Y-68851190D01*
X183599404Y-67301190D02*
X183123214Y-67301190D01*
X183075595Y-68039285D01*
X183123214Y-67965476D01*
X183218452Y-67891666D01*
X183456547Y-67891666D01*
X183551785Y-67965476D01*
X183599404Y-68039285D01*
X183647023Y-68186904D01*
X183647023Y-68555952D01*
X183599404Y-68703571D01*
X183551785Y-68777380D01*
X183456547Y-68851190D01*
X183218452Y-68851190D01*
X183123214Y-68777380D01*
X183075595Y-68703571D01*
X181885119Y-70835714D02*
X182647023Y-70835714D01*
X182266071Y-71426190D02*
X182266071Y-70245238D01*
X183599404Y-69876190D02*
X183123214Y-69876190D01*
X183075595Y-70614285D01*
X183123214Y-70540476D01*
X183218452Y-70466666D01*
X183456547Y-70466666D01*
X183551785Y-70540476D01*
X183599404Y-70614285D01*
X183647023Y-70761904D01*
X183647023Y-71130952D01*
X183599404Y-71278571D01*
X183551785Y-71352380D01*
X183456547Y-71426190D01*
X183218452Y-71426190D01*
X183123214Y-71352380D01*
X183075595Y-71278571D01*
X180932738Y-73410714D02*
X181694642Y-73410714D01*
X181313690Y-74001190D02*
X181313690Y-72820238D01*
X182694642Y-74001190D02*
X182123214Y-74001190D01*
X182408928Y-74001190D02*
X182408928Y-72451190D01*
X182313690Y-72672619D01*
X182218452Y-72820238D01*
X182123214Y-72894047D01*
X183075595Y-72598809D02*
X183123214Y-72525000D01*
X183218452Y-72451190D01*
X183456547Y-72451190D01*
X183551785Y-72525000D01*
X183599404Y-72598809D01*
X183647023Y-72746428D01*
X183647023Y-72894047D01*
X183599404Y-73115476D01*
X183027976Y-74001190D01*
X183647023Y-74001190D01*
D13*
X172505952Y-120033095D02*
X174205952Y-120033095D01*
X174205952Y-120574047D01*
X174125000Y-120709285D01*
X174044047Y-120776904D01*
X173882142Y-120844523D01*
X173639285Y-120844523D01*
X173477380Y-120776904D01*
X173396428Y-120709285D01*
X173315476Y-120574047D01*
X173315476Y-120033095D01*
X172505952Y-122264523D02*
X173315476Y-121791190D01*
X172505952Y-121453095D02*
X174205952Y-121453095D01*
X174205952Y-121994047D01*
X174125000Y-122129285D01*
X174044047Y-122196904D01*
X173882142Y-122264523D01*
X173639285Y-122264523D01*
X173477380Y-122196904D01*
X173396428Y-122129285D01*
X173315476Y-121994047D01*
X173315476Y-121453095D01*
X174205952Y-123143571D02*
X174205952Y-123414047D01*
X174125000Y-123549285D01*
X173963095Y-123684523D01*
X173639285Y-123752142D01*
X173072619Y-123752142D01*
X172748809Y-123684523D01*
X172586904Y-123549285D01*
X172505952Y-123414047D01*
X172505952Y-123143571D01*
X172586904Y-123008333D01*
X172748809Y-122873095D01*
X173072619Y-122805476D01*
X173639285Y-122805476D01*
X173963095Y-122873095D01*
X174125000Y-123008333D01*
X174205952Y-123143571D01*
X172505952Y-124360714D02*
X174205952Y-124360714D01*
X172991666Y-124834047D01*
X174205952Y-125307380D01*
X172505952Y-125307380D01*
X173396428Y-125983571D02*
X173396428Y-126456904D01*
X172505952Y-126659761D02*
X172505952Y-125983571D01*
X174205952Y-125983571D01*
X174205952Y-126659761D01*
X172586904Y-127200714D02*
X172505952Y-127403571D01*
X172505952Y-127741666D01*
X172586904Y-127876904D01*
X172667857Y-127944523D01*
X172829761Y-128012142D01*
X172991666Y-128012142D01*
X173153571Y-127944523D01*
X173234523Y-127876904D01*
X173315476Y-127741666D01*
X173396428Y-127471190D01*
X173477380Y-127335952D01*
X173558333Y-127268333D01*
X173720238Y-127200714D01*
X173882142Y-127200714D01*
X174044047Y-127268333D01*
X174125000Y-127335952D01*
X174205952Y-127471190D01*
X174205952Y-127809285D01*
X174125000Y-128012142D01*
X174205952Y-128891190D02*
X174205952Y-129161666D01*
X174125000Y-129296904D01*
X173963095Y-129432142D01*
X173639285Y-129499761D01*
X173072619Y-129499761D01*
X172748809Y-129432142D01*
X172586904Y-129296904D01*
X172505952Y-129161666D01*
X172505952Y-128891190D01*
X172586904Y-128755952D01*
X172748809Y-128620714D01*
X173072619Y-128553095D01*
X173639285Y-128553095D01*
X173963095Y-128620714D01*
X174125000Y-128755952D01*
X174205952Y-128891190D01*
X173396428Y-130581666D02*
X173396428Y-130108333D01*
X172505952Y-130108333D02*
X174205952Y-130108333D01*
X174205952Y-130784523D01*
X174205952Y-131122619D02*
X174205952Y-131934047D01*
X172505952Y-131528333D02*
X174205952Y-131528333D01*
X171355952Y-120438809D02*
X170141666Y-120438809D01*
X169898809Y-120371190D01*
X169736904Y-120235952D01*
X169655952Y-120033095D01*
X169655952Y-119897857D01*
X169655952Y-121317857D02*
X169736904Y-121182619D01*
X169817857Y-121115000D01*
X169979761Y-121047380D01*
X170465476Y-121047380D01*
X170627380Y-121115000D01*
X170708333Y-121182619D01*
X170789285Y-121317857D01*
X170789285Y-121520714D01*
X170708333Y-121655952D01*
X170627380Y-121723571D01*
X170465476Y-121791190D01*
X169979761Y-121791190D01*
X169817857Y-121723571D01*
X169736904Y-121655952D01*
X169655952Y-121520714D01*
X169655952Y-121317857D01*
X169655952Y-122399761D02*
X171355952Y-122399761D01*
X169655952Y-123008333D02*
X170546428Y-123008333D01*
X170708333Y-122940714D01*
X170789285Y-122805476D01*
X170789285Y-122602619D01*
X170708333Y-122467380D01*
X170627380Y-122399761D01*
X169655952Y-124293095D02*
X170546428Y-124293095D01*
X170708333Y-124225476D01*
X170789285Y-124090238D01*
X170789285Y-123819761D01*
X170708333Y-123684523D01*
X169736904Y-124293095D02*
X169655952Y-124157857D01*
X169655952Y-123819761D01*
X169736904Y-123684523D01*
X169898809Y-123616904D01*
X170060714Y-123616904D01*
X170222619Y-123684523D01*
X170303571Y-123819761D01*
X170303571Y-124157857D01*
X170384523Y-124293095D01*
X170789285Y-124969285D02*
X169655952Y-124969285D01*
X170627380Y-124969285D02*
X170708333Y-125036904D01*
X170789285Y-125172142D01*
X170789285Y-125375000D01*
X170708333Y-125510238D01*
X170546428Y-125577857D01*
X169655952Y-125577857D01*
X169736904Y-126186428D02*
X169655952Y-126321666D01*
X169655952Y-126592142D01*
X169736904Y-126727380D01*
X169898809Y-126795000D01*
X169979761Y-126795000D01*
X170141666Y-126727380D01*
X170222619Y-126592142D01*
X170222619Y-126389285D01*
X170303571Y-126254047D01*
X170465476Y-126186428D01*
X170546428Y-126186428D01*
X170708333Y-126254047D01*
X170789285Y-126389285D01*
X170789285Y-126592142D01*
X170708333Y-126727380D01*
X169736904Y-127944523D02*
X169655952Y-127809285D01*
X169655952Y-127538809D01*
X169736904Y-127403571D01*
X169898809Y-127335952D01*
X170546428Y-127335952D01*
X170708333Y-127403571D01*
X170789285Y-127538809D01*
X170789285Y-127809285D01*
X170708333Y-127944523D01*
X170546428Y-128012142D01*
X170384523Y-128012142D01*
X170222619Y-127335952D01*
X170789285Y-128620714D02*
X169655952Y-128620714D01*
X170627380Y-128620714D02*
X170708333Y-128688333D01*
X170789285Y-128823571D01*
X170789285Y-129026428D01*
X170708333Y-129161666D01*
X170546428Y-129229285D01*
X169655952Y-129229285D01*
X170546428Y-130987380D02*
X170546428Y-131460714D01*
X169655952Y-131663571D02*
X169655952Y-130987380D01*
X171355952Y-130987380D01*
X171355952Y-131663571D01*
X170789285Y-132272142D02*
X169655952Y-132272142D01*
X170627380Y-132272142D02*
X170708333Y-132339761D01*
X170789285Y-132475000D01*
X170789285Y-132677857D01*
X170708333Y-132813095D01*
X170546428Y-132880714D01*
X169655952Y-132880714D01*
X170789285Y-134165476D02*
X169413095Y-134165476D01*
X169251190Y-134097857D01*
X169170238Y-134030238D01*
X169089285Y-133895000D01*
X169089285Y-133692142D01*
X169170238Y-133556904D01*
X169736904Y-134165476D02*
X169655952Y-134030238D01*
X169655952Y-133759761D01*
X169736904Y-133624523D01*
X169817857Y-133556904D01*
X169979761Y-133489285D01*
X170465476Y-133489285D01*
X170627380Y-133556904D01*
X170708333Y-133624523D01*
X170789285Y-133759761D01*
X170789285Y-134030238D01*
X170708333Y-134165476D01*
X169655952Y-134841666D02*
X170789285Y-134841666D01*
X171355952Y-134841666D02*
X171275000Y-134774047D01*
X171194047Y-134841666D01*
X171275000Y-134909285D01*
X171355952Y-134841666D01*
X171194047Y-134841666D01*
X170789285Y-135517857D02*
X169655952Y-135517857D01*
X170627380Y-135517857D02*
X170708333Y-135585476D01*
X170789285Y-135720714D01*
X170789285Y-135923571D01*
X170708333Y-136058809D01*
X170546428Y-136126428D01*
X169655952Y-136126428D01*
X169736904Y-137343571D02*
X169655952Y-137208333D01*
X169655952Y-136937857D01*
X169736904Y-136802619D01*
X169898809Y-136735000D01*
X170546428Y-136735000D01*
X170708333Y-136802619D01*
X170789285Y-136937857D01*
X170789285Y-137208333D01*
X170708333Y-137343571D01*
X170546428Y-137411190D01*
X170384523Y-137411190D01*
X170222619Y-136735000D01*
X169736904Y-138560714D02*
X169655952Y-138425476D01*
X169655952Y-138155000D01*
X169736904Y-138019761D01*
X169898809Y-137952142D01*
X170546428Y-137952142D01*
X170708333Y-138019761D01*
X170789285Y-138155000D01*
X170789285Y-138425476D01*
X170708333Y-138560714D01*
X170546428Y-138628333D01*
X170384523Y-138628333D01*
X170222619Y-137952142D01*
X169655952Y-139236904D02*
X170789285Y-139236904D01*
X170465476Y-139236904D02*
X170627380Y-139304523D01*
X170708333Y-139372142D01*
X170789285Y-139507380D01*
X170789285Y-139642619D01*
X169655952Y-140115952D02*
X170789285Y-140115952D01*
X171355952Y-140115952D02*
X171275000Y-140048333D01*
X171194047Y-140115952D01*
X171275000Y-140183571D01*
X171355952Y-140115952D01*
X171194047Y-140115952D01*
X170789285Y-140792142D02*
X169655952Y-140792142D01*
X170627380Y-140792142D02*
X170708333Y-140859761D01*
X170789285Y-140995000D01*
X170789285Y-141197857D01*
X170708333Y-141333095D01*
X170546428Y-141400714D01*
X169655952Y-141400714D01*
X170789285Y-142685476D02*
X169413095Y-142685476D01*
X169251190Y-142617857D01*
X169170238Y-142550238D01*
X169089285Y-142415000D01*
X169089285Y-142212142D01*
X169170238Y-142076904D01*
X169736904Y-142685476D02*
X169655952Y-142550238D01*
X169655952Y-142279761D01*
X169736904Y-142144523D01*
X169817857Y-142076904D01*
X169979761Y-142009285D01*
X170465476Y-142009285D01*
X170627380Y-142076904D01*
X170708333Y-142144523D01*
X170789285Y-142279761D01*
X170789285Y-142550238D01*
X170708333Y-142685476D01*
X166805952Y-120033095D02*
X168505952Y-120033095D01*
X167291666Y-120506428D01*
X168505952Y-120979761D01*
X166805952Y-120979761D01*
X166805952Y-121655952D02*
X168505952Y-121655952D01*
X166805952Y-122332142D02*
X168505952Y-122332142D01*
X168505952Y-122670238D01*
X168425000Y-122873095D01*
X168263095Y-123008333D01*
X168101190Y-123075952D01*
X167777380Y-123143571D01*
X167534523Y-123143571D01*
X167210714Y-123075952D01*
X167048809Y-123008333D01*
X166886904Y-122873095D01*
X166805952Y-122670238D01*
X166805952Y-122332142D01*
X166805952Y-123752142D02*
X168505952Y-123752142D01*
X168344047Y-124360714D02*
X168425000Y-124428333D01*
X168505952Y-124563571D01*
X168505952Y-124901666D01*
X168425000Y-125036904D01*
X168344047Y-125104523D01*
X168182142Y-125172142D01*
X168020238Y-125172142D01*
X167777380Y-125104523D01*
X166805952Y-124293095D01*
X166805952Y-125172142D01*
X166967857Y-126592142D02*
X166886904Y-126524523D01*
X166805952Y-126321666D01*
X166805952Y-126186428D01*
X166886904Y-125983571D01*
X167048809Y-125848333D01*
X167210714Y-125780714D01*
X167534523Y-125713095D01*
X167777380Y-125713095D01*
X168101190Y-125780714D01*
X168263095Y-125848333D01*
X168425000Y-125983571D01*
X168505952Y-126186428D01*
X168505952Y-126321666D01*
X168425000Y-126524523D01*
X168344047Y-126592142D01*
X168505952Y-126997857D02*
X166805952Y-127471190D01*
X168505952Y-127944523D01*
X166805952Y-129499761D02*
X168505952Y-129499761D01*
X167291666Y-129973095D01*
X168505952Y-130446428D01*
X166805952Y-130446428D01*
X166805952Y-131122619D02*
X168505952Y-131122619D01*
X166805952Y-131934047D02*
X167777380Y-131325476D01*
X168505952Y-131934047D02*
X167534523Y-131122619D01*
X168344047Y-132475000D02*
X168425000Y-132542619D01*
X168505952Y-132677857D01*
X168505952Y-133015952D01*
X168425000Y-133151190D01*
X168344047Y-133218809D01*
X168182142Y-133286428D01*
X168020238Y-133286428D01*
X167777380Y-133218809D01*
X166805952Y-132407380D01*
X166805952Y-133286428D01*
X166967857Y-133895000D02*
X166886904Y-133962619D01*
X166805952Y-133895000D01*
X166886904Y-133827380D01*
X166967857Y-133895000D01*
X166805952Y-133895000D01*
X166805952Y-135315000D02*
X166805952Y-134503571D01*
X166805952Y-134909285D02*
X168505952Y-134909285D01*
X168263095Y-134774047D01*
X168101190Y-134638809D01*
X168020238Y-134503571D01*
X166805952Y-137816904D02*
X167615476Y-137343571D01*
X166805952Y-137005476D02*
X168505952Y-137005476D01*
X168505952Y-137546428D01*
X168425000Y-137681666D01*
X168344047Y-137749285D01*
X168182142Y-137816904D01*
X167939285Y-137816904D01*
X167777380Y-137749285D01*
X167696428Y-137681666D01*
X167615476Y-137546428D01*
X167615476Y-137005476D01*
X166886904Y-138966428D02*
X166805952Y-138831190D01*
X166805952Y-138560714D01*
X166886904Y-138425476D01*
X167048809Y-138357857D01*
X167696428Y-138357857D01*
X167858333Y-138425476D01*
X167939285Y-138560714D01*
X167939285Y-138831190D01*
X167858333Y-138966428D01*
X167696428Y-139034047D01*
X167534523Y-139034047D01*
X167372619Y-138357857D01*
X167939285Y-139507380D02*
X166805952Y-139845476D01*
X167939285Y-140183571D01*
X167291666Y-141738809D02*
X167291666Y-142415000D01*
X166805952Y-141603571D02*
X168505952Y-142076904D01*
X166805952Y-142550238D01*
X165494047Y-119965476D02*
X165575000Y-120033095D01*
X165655952Y-120168333D01*
X165655952Y-120506428D01*
X165575000Y-120641666D01*
X165494047Y-120709285D01*
X165332142Y-120776904D01*
X165170238Y-120776904D01*
X164927380Y-120709285D01*
X163955952Y-119897857D01*
X163955952Y-120776904D01*
X165655952Y-121655952D02*
X165655952Y-121791190D01*
X165575000Y-121926428D01*
X165494047Y-121994047D01*
X165332142Y-122061666D01*
X165008333Y-122129285D01*
X164603571Y-122129285D01*
X164279761Y-122061666D01*
X164117857Y-121994047D01*
X164036904Y-121926428D01*
X163955952Y-121791190D01*
X163955952Y-121655952D01*
X164036904Y-121520714D01*
X164117857Y-121453095D01*
X164279761Y-121385476D01*
X164603571Y-121317857D01*
X165008333Y-121317857D01*
X165332142Y-121385476D01*
X165494047Y-121453095D01*
X165575000Y-121520714D01*
X165655952Y-121655952D01*
X163955952Y-123481666D02*
X163955952Y-122670238D01*
X163955952Y-123075952D02*
X165655952Y-123075952D01*
X165413095Y-122940714D01*
X165251190Y-122805476D01*
X165170238Y-122670238D01*
X163955952Y-124157857D02*
X163955952Y-124428333D01*
X164036904Y-124563571D01*
X164117857Y-124631190D01*
X164360714Y-124766428D01*
X164684523Y-124834047D01*
X165332142Y-124834047D01*
X165494047Y-124766428D01*
X165575000Y-124698809D01*
X165655952Y-124563571D01*
X165655952Y-124293095D01*
X165575000Y-124157857D01*
X165494047Y-124090238D01*
X165332142Y-124022619D01*
X164927380Y-124022619D01*
X164765476Y-124090238D01*
X164684523Y-124157857D01*
X164603571Y-124293095D01*
X164603571Y-124563571D01*
X164684523Y-124698809D01*
X164765476Y-124766428D01*
X164927380Y-124834047D01*
X165655952Y-125307380D02*
X163955952Y-125645476D01*
X165170238Y-125915952D01*
X163955952Y-126186428D01*
X165655952Y-126524523D01*
X165655952Y-127335952D02*
X165655952Y-127471190D01*
X165575000Y-127606428D01*
X165494047Y-127674047D01*
X165332142Y-127741666D01*
X165008333Y-127809285D01*
X164603571Y-127809285D01*
X164279761Y-127741666D01*
X164117857Y-127674047D01*
X164036904Y-127606428D01*
X163955952Y-127471190D01*
X163955952Y-127335952D01*
X164036904Y-127200714D01*
X164117857Y-127133095D01*
X164279761Y-127065476D01*
X164603571Y-126997857D01*
X165008333Y-126997857D01*
X165332142Y-127065476D01*
X165494047Y-127133095D01*
X165575000Y-127200714D01*
X165655952Y-127335952D01*
X165655952Y-129094047D02*
X165655952Y-128417857D01*
X164846428Y-128350238D01*
X164927380Y-128417857D01*
X165008333Y-128553095D01*
X165008333Y-128891190D01*
X164927380Y-129026428D01*
X164846428Y-129094047D01*
X164684523Y-129161666D01*
X164279761Y-129161666D01*
X164117857Y-129094047D01*
X164036904Y-129026428D01*
X163955952Y-128891190D01*
X163955952Y-128553095D01*
X164036904Y-128417857D01*
X164117857Y-128350238D01*
D17*
X157230000Y-113730000D02*
X157230000Y-116270000D01*
X157230000Y-116270000D02*
X159900000Y-116270000D01*
X159900000Y-113730000D02*
X159900000Y-75500000D01*
X159900000Y-118940000D02*
X159900000Y-116270000D01*
X144530000Y-116270000D02*
X141860000Y-116270000D01*
X144530000Y-116270000D02*
X144530000Y-78170000D01*
X144530000Y-78170000D02*
X141860000Y-78170000D01*
X157230000Y-113730000D02*
X159900000Y-113730000D01*
X157230000Y-113730000D02*
X157230000Y-78170000D01*
X157230000Y-78170000D02*
X159900000Y-78170000D01*
X159900000Y-75500000D02*
X141860000Y-75500000D01*
X141860000Y-75500000D02*
X141860000Y-118940000D01*
X141860000Y-118940000D02*
X159900000Y-118940000D01*
D15*
X108000000Y-88035000D02*
X108000000Y-84435000D01*
X109800000Y-86235000D02*
X106200000Y-86235000D01*
X103500000Y-81735000D02*
X103500000Y-90735000D01*
X103500000Y-90735000D02*
X114000000Y-90735000D01*
X114000000Y-90735000D02*
X114000000Y-81735000D01*
X114000000Y-81735000D02*
X103500000Y-81735000D01*
X111006659Y-86235000D02*
G75*
G03X111006659Y-86235000I-3006659J0D01*
G01*
X109800000Y-86235000D02*
G75*
G03X109800000Y-86235000I-1800000J0D01*
G01*
X109800000Y-77200000D02*
G75*
G03X109800000Y-77200000I-1800000J0D01*
G01*
X111006659Y-77200000D02*
G75*
G03X111006659Y-77200000I-3006659J0D01*
G01*
X114000000Y-72700000D02*
X103500000Y-72700000D01*
X114000000Y-81700000D02*
X114000000Y-72700000D01*
X103500000Y-81700000D02*
X114000000Y-81700000D01*
X103500000Y-72700000D02*
X103500000Y-81700000D01*
X109800000Y-77200000D02*
X106200000Y-77200000D01*
X108000000Y-79000000D02*
X108000000Y-75400000D01*
X199834000Y-122730000D02*
X199834000Y-120444000D01*
X200850000Y-122730000D02*
X199834000Y-122730000D01*
X200850000Y-125524000D02*
X200850000Y-122730000D01*
X199834000Y-125524000D02*
X200850000Y-125524000D01*
X199834000Y-127556000D02*
X199834000Y-125524000D01*
X189190000Y-127556000D02*
X199810000Y-127556001D01*
X189166000Y-120444000D02*
X189166000Y-127556000D01*
X199810000Y-120444000D02*
X189190000Y-120443999D01*
X199668476Y-143730000D02*
X199668476Y-141444000D01*
X200684476Y-143730000D02*
X199668476Y-143730000D01*
X200684476Y-146524000D02*
X200684476Y-143730000D01*
X199668476Y-146524000D02*
X200684476Y-146524000D01*
X199668476Y-148556000D02*
X199668476Y-146524000D01*
X189024476Y-148556000D02*
X199644476Y-148556001D01*
X189000476Y-141444000D02*
X189000476Y-148556000D01*
X199644476Y-141444000D02*
X189024476Y-141443999D01*
X199668476Y-136230000D02*
X199668476Y-133944000D01*
X200684476Y-136230000D02*
X199668476Y-136230000D01*
X200684476Y-139024000D02*
X200684476Y-136230000D01*
X199668476Y-139024000D02*
X200684476Y-139024000D01*
X199668476Y-141056000D02*
X199668476Y-139024000D01*
X189024476Y-141056000D02*
X199644476Y-141056001D01*
X189000476Y-133944000D02*
X189000476Y-141056000D01*
X199644476Y-133944000D02*
X189024476Y-133943999D01*
X199334000Y-53230000D02*
X199334000Y-50944000D01*
X200350000Y-53230000D02*
X199334000Y-53230000D01*
X200350000Y-56024000D02*
X200350000Y-53230000D01*
X199334000Y-56024000D02*
X200350000Y-56024000D01*
X199334000Y-58056000D02*
X199334000Y-56024000D01*
X188690000Y-58056000D02*
X199310000Y-58056001D01*
X188666000Y-50944000D02*
X188666000Y-58056000D01*
X199310000Y-50944000D02*
X188690000Y-50943999D01*
X199334000Y-74730000D02*
X199334000Y-72444000D01*
X200350000Y-74730000D02*
X199334000Y-74730000D01*
X200350000Y-77524000D02*
X200350000Y-74730000D01*
X199334000Y-77524000D02*
X200350000Y-77524000D01*
X199334000Y-79556000D02*
X199334000Y-77524000D01*
X188690000Y-79556000D02*
X199310000Y-79556001D01*
X188666000Y-72444000D02*
X188666000Y-79556000D01*
X199310000Y-72444000D02*
X188690000Y-72443999D01*
D17*
X147120000Y-134250000D02*
G75*
G03X147120000Y-134250000I-2620000J0D01*
G01*
X141920000Y-134250000D02*
X147080000Y-134250000D01*
X141920000Y-134210000D02*
X147080000Y-134210000D01*
X141921000Y-134170000D02*
X147079000Y-134170000D01*
X141922000Y-134130000D02*
X147078000Y-134130000D01*
X141924000Y-134090000D02*
X147076000Y-134090000D01*
X141927000Y-134050000D02*
X147073000Y-134050000D01*
X141931000Y-134010000D02*
X143460000Y-134010000D01*
X145540000Y-134010000D02*
X147069000Y-134010000D01*
X141935000Y-133970000D02*
X143460000Y-133970000D01*
X145540000Y-133970000D02*
X147065000Y-133970000D01*
X141939000Y-133930000D02*
X143460000Y-133930000D01*
X145540000Y-133930000D02*
X147061000Y-133930000D01*
X141944000Y-133890000D02*
X143460000Y-133890000D01*
X145540000Y-133890000D02*
X147056000Y-133890000D01*
X141950000Y-133850000D02*
X143460000Y-133850000D01*
X145540000Y-133850000D02*
X147050000Y-133850000D01*
X141957000Y-133810000D02*
X143460000Y-133810000D01*
X145540000Y-133810000D02*
X147043000Y-133810000D01*
X141964000Y-133770000D02*
X143460000Y-133770000D01*
X145540000Y-133770000D02*
X147036000Y-133770000D01*
X141972000Y-133730000D02*
X143460000Y-133730000D01*
X145540000Y-133730000D02*
X147028000Y-133730000D01*
X141980000Y-133690000D02*
X143460000Y-133690000D01*
X145540000Y-133690000D02*
X147020000Y-133690000D01*
X141989000Y-133650000D02*
X143460000Y-133650000D01*
X145540000Y-133650000D02*
X147011000Y-133650000D01*
X141999000Y-133610000D02*
X143460000Y-133610000D01*
X145540000Y-133610000D02*
X147001000Y-133610000D01*
X142009000Y-133570000D02*
X143460000Y-133570000D01*
X145540000Y-133570000D02*
X146991000Y-133570000D01*
X142020000Y-133529000D02*
X143460000Y-133529000D01*
X145540000Y-133529000D02*
X146980000Y-133529000D01*
X142032000Y-133489000D02*
X143460000Y-133489000D01*
X145540000Y-133489000D02*
X146968000Y-133489000D01*
X142045000Y-133449000D02*
X143460000Y-133449000D01*
X145540000Y-133449000D02*
X146955000Y-133449000D01*
X142058000Y-133409000D02*
X143460000Y-133409000D01*
X145540000Y-133409000D02*
X146942000Y-133409000D01*
X142072000Y-133369000D02*
X143460000Y-133369000D01*
X145540000Y-133369000D02*
X146928000Y-133369000D01*
X142086000Y-133329000D02*
X143460000Y-133329000D01*
X145540000Y-133329000D02*
X146914000Y-133329000D01*
X142102000Y-133289000D02*
X143460000Y-133289000D01*
X145540000Y-133289000D02*
X146898000Y-133289000D01*
X142118000Y-133249000D02*
X143460000Y-133249000D01*
X145540000Y-133249000D02*
X146882000Y-133249000D01*
X142135000Y-133209000D02*
X143460000Y-133209000D01*
X145540000Y-133209000D02*
X146865000Y-133209000D01*
X142152000Y-133169000D02*
X143460000Y-133169000D01*
X145540000Y-133169000D02*
X146848000Y-133169000D01*
X142171000Y-133129000D02*
X143460000Y-133129000D01*
X145540000Y-133129000D02*
X146829000Y-133129000D01*
X142190000Y-133089000D02*
X143460000Y-133089000D01*
X145540000Y-133089000D02*
X146810000Y-133089000D01*
X142210000Y-133049000D02*
X143460000Y-133049000D01*
X145540000Y-133049000D02*
X146790000Y-133049000D01*
X142232000Y-133009000D02*
X143460000Y-133009000D01*
X145540000Y-133009000D02*
X146768000Y-133009000D01*
X142253000Y-132969000D02*
X143460000Y-132969000D01*
X145540000Y-132969000D02*
X146747000Y-132969000D01*
X142276000Y-132929000D02*
X143460000Y-132929000D01*
X145540000Y-132929000D02*
X146724000Y-132929000D01*
X142300000Y-132889000D02*
X143460000Y-132889000D01*
X145540000Y-132889000D02*
X146700000Y-132889000D01*
X142325000Y-132849000D02*
X143460000Y-132849000D01*
X145540000Y-132849000D02*
X146675000Y-132849000D01*
X142351000Y-132809000D02*
X143460000Y-132809000D01*
X145540000Y-132809000D02*
X146649000Y-132809000D01*
X142378000Y-132769000D02*
X143460000Y-132769000D01*
X145540000Y-132769000D02*
X146622000Y-132769000D01*
X142405000Y-132729000D02*
X143460000Y-132729000D01*
X145540000Y-132729000D02*
X146595000Y-132729000D01*
X142435000Y-132689000D02*
X143460000Y-132689000D01*
X145540000Y-132689000D02*
X146565000Y-132689000D01*
X142465000Y-132649000D02*
X143460000Y-132649000D01*
X145540000Y-132649000D02*
X146535000Y-132649000D01*
X142496000Y-132609000D02*
X143460000Y-132609000D01*
X145540000Y-132609000D02*
X146504000Y-132609000D01*
X142529000Y-132569000D02*
X143460000Y-132569000D01*
X145540000Y-132569000D02*
X146471000Y-132569000D01*
X142563000Y-132529000D02*
X143460000Y-132529000D01*
X145540000Y-132529000D02*
X146437000Y-132529000D01*
X142599000Y-132489000D02*
X143460000Y-132489000D01*
X145540000Y-132489000D02*
X146401000Y-132489000D01*
X142636000Y-132449000D02*
X143460000Y-132449000D01*
X145540000Y-132449000D02*
X146364000Y-132449000D01*
X142674000Y-132409000D02*
X143460000Y-132409000D01*
X145540000Y-132409000D02*
X146326000Y-132409000D01*
X142715000Y-132369000D02*
X143460000Y-132369000D01*
X145540000Y-132369000D02*
X146285000Y-132369000D01*
X142757000Y-132329000D02*
X143460000Y-132329000D01*
X145540000Y-132329000D02*
X146243000Y-132329000D01*
X142801000Y-132289000D02*
X143460000Y-132289000D01*
X145540000Y-132289000D02*
X146199000Y-132289000D01*
X142847000Y-132249000D02*
X143460000Y-132249000D01*
X145540000Y-132249000D02*
X146153000Y-132249000D01*
X142895000Y-132209000D02*
X143460000Y-132209000D01*
X145540000Y-132209000D02*
X146105000Y-132209000D01*
X142946000Y-132169000D02*
X143460000Y-132169000D01*
X145540000Y-132169000D02*
X146054000Y-132169000D01*
X143000000Y-132129000D02*
X143460000Y-132129000D01*
X145540000Y-132129000D02*
X146000000Y-132129000D01*
X143057000Y-132089000D02*
X143460000Y-132089000D01*
X145540000Y-132089000D02*
X145943000Y-132089000D01*
X143117000Y-132049000D02*
X143460000Y-132049000D01*
X145540000Y-132049000D02*
X145883000Y-132049000D01*
X143181000Y-132009000D02*
X143460000Y-132009000D01*
X145540000Y-132009000D02*
X145819000Y-132009000D01*
X143249000Y-131969000D02*
X143460000Y-131969000D01*
X145540000Y-131969000D02*
X145751000Y-131969000D01*
X143322000Y-131929000D02*
X145678000Y-131929000D01*
X143402000Y-131889000D02*
X145598000Y-131889000D01*
X143489000Y-131849000D02*
X145511000Y-131849000D01*
X143585000Y-131809000D02*
X145415000Y-131809000D01*
X143695000Y-131769000D02*
X145305000Y-131769000D01*
X143823000Y-131729000D02*
X145177000Y-131729000D01*
X143982000Y-131689000D02*
X145018000Y-131689000D01*
X144216000Y-131649000D02*
X144784000Y-131649000D01*
X143025000Y-137054775D02*
X143025000Y-136554775D01*
X142775000Y-136804775D02*
X143275000Y-136804775D01*
X174425000Y-88215000D02*
G75*
G02X176425000Y-88215000I1000000J0D01*
G01*
X176425000Y-88215000D02*
X177675000Y-88215000D01*
X177675000Y-88215000D02*
X177675000Y-83015000D01*
X177675000Y-83015000D02*
X173175000Y-83015000D01*
X173175000Y-83015000D02*
X173175000Y-88215000D01*
X173175000Y-88215000D02*
X174425000Y-88215000D01*
X180870000Y-72000000D02*
G75*
G03X180870000Y-72000000I-2620000J0D01*
G01*
X178250000Y-69420000D02*
X178250000Y-74580000D01*
X178290000Y-69420000D02*
X178290000Y-74580000D01*
X178330000Y-69421000D02*
X178330000Y-74579000D01*
X178370000Y-69422000D02*
X178370000Y-74578000D01*
X178410000Y-69424000D02*
X178410000Y-74576000D01*
X178450000Y-69427000D02*
X178450000Y-74573000D01*
X178490000Y-69431000D02*
X178490000Y-70960000D01*
X178490000Y-73040000D02*
X178490000Y-74569000D01*
X178530000Y-69435000D02*
X178530000Y-70960000D01*
X178530000Y-73040000D02*
X178530000Y-74565000D01*
X178570000Y-69439000D02*
X178570000Y-70960000D01*
X178570000Y-73040000D02*
X178570000Y-74561000D01*
X178610000Y-69444000D02*
X178610000Y-70960000D01*
X178610000Y-73040000D02*
X178610000Y-74556000D01*
X178650000Y-69450000D02*
X178650000Y-70960000D01*
X178650000Y-73040000D02*
X178650000Y-74550000D01*
X178690000Y-69457000D02*
X178690000Y-70960000D01*
X178690000Y-73040000D02*
X178690000Y-74543000D01*
X178730000Y-69464000D02*
X178730000Y-70960000D01*
X178730000Y-73040000D02*
X178730000Y-74536000D01*
X178770000Y-69472000D02*
X178770000Y-70960000D01*
X178770000Y-73040000D02*
X178770000Y-74528000D01*
X178810000Y-69480000D02*
X178810000Y-70960000D01*
X178810000Y-73040000D02*
X178810000Y-74520000D01*
X178850000Y-69489000D02*
X178850000Y-70960000D01*
X178850000Y-73040000D02*
X178850000Y-74511000D01*
X178890000Y-69499000D02*
X178890000Y-70960000D01*
X178890000Y-73040000D02*
X178890000Y-74501000D01*
X178930000Y-69509000D02*
X178930000Y-70960000D01*
X178930000Y-73040000D02*
X178930000Y-74491000D01*
X178971000Y-69520000D02*
X178971000Y-70960000D01*
X178971000Y-73040000D02*
X178971000Y-74480000D01*
X179011000Y-69532000D02*
X179011000Y-70960000D01*
X179011000Y-73040000D02*
X179011000Y-74468000D01*
X179051000Y-69545000D02*
X179051000Y-70960000D01*
X179051000Y-73040000D02*
X179051000Y-74455000D01*
X179091000Y-69558000D02*
X179091000Y-70960000D01*
X179091000Y-73040000D02*
X179091000Y-74442000D01*
X179131000Y-69572000D02*
X179131000Y-70960000D01*
X179131000Y-73040000D02*
X179131000Y-74428000D01*
X179171000Y-69586000D02*
X179171000Y-70960000D01*
X179171000Y-73040000D02*
X179171000Y-74414000D01*
X179211000Y-69602000D02*
X179211000Y-70960000D01*
X179211000Y-73040000D02*
X179211000Y-74398000D01*
X179251000Y-69618000D02*
X179251000Y-70960000D01*
X179251000Y-73040000D02*
X179251000Y-74382000D01*
X179291000Y-69635000D02*
X179291000Y-70960000D01*
X179291000Y-73040000D02*
X179291000Y-74365000D01*
X179331000Y-69652000D02*
X179331000Y-70960000D01*
X179331000Y-73040000D02*
X179331000Y-74348000D01*
X179371000Y-69671000D02*
X179371000Y-70960000D01*
X179371000Y-73040000D02*
X179371000Y-74329000D01*
X179411000Y-69690000D02*
X179411000Y-70960000D01*
X179411000Y-73040000D02*
X179411000Y-74310000D01*
X179451000Y-69710000D02*
X179451000Y-70960000D01*
X179451000Y-73040000D02*
X179451000Y-74290000D01*
X179491000Y-69732000D02*
X179491000Y-70960000D01*
X179491000Y-73040000D02*
X179491000Y-74268000D01*
X179531000Y-69753000D02*
X179531000Y-70960000D01*
X179531000Y-73040000D02*
X179531000Y-74247000D01*
X179571000Y-69776000D02*
X179571000Y-70960000D01*
X179571000Y-73040000D02*
X179571000Y-74224000D01*
X179611000Y-69800000D02*
X179611000Y-70960000D01*
X179611000Y-73040000D02*
X179611000Y-74200000D01*
X179651000Y-69825000D02*
X179651000Y-70960000D01*
X179651000Y-73040000D02*
X179651000Y-74175000D01*
X179691000Y-69851000D02*
X179691000Y-70960000D01*
X179691000Y-73040000D02*
X179691000Y-74149000D01*
X179731000Y-69878000D02*
X179731000Y-70960000D01*
X179731000Y-73040000D02*
X179731000Y-74122000D01*
X179771000Y-69905000D02*
X179771000Y-70960000D01*
X179771000Y-73040000D02*
X179771000Y-74095000D01*
X179811000Y-69935000D02*
X179811000Y-70960000D01*
X179811000Y-73040000D02*
X179811000Y-74065000D01*
X179851000Y-69965000D02*
X179851000Y-70960000D01*
X179851000Y-73040000D02*
X179851000Y-74035000D01*
X179891000Y-69996000D02*
X179891000Y-70960000D01*
X179891000Y-73040000D02*
X179891000Y-74004000D01*
X179931000Y-70029000D02*
X179931000Y-70960000D01*
X179931000Y-73040000D02*
X179931000Y-73971000D01*
X179971000Y-70063000D02*
X179971000Y-70960000D01*
X179971000Y-73040000D02*
X179971000Y-73937000D01*
X180011000Y-70099000D02*
X180011000Y-70960000D01*
X180011000Y-73040000D02*
X180011000Y-73901000D01*
X180051000Y-70136000D02*
X180051000Y-70960000D01*
X180051000Y-73040000D02*
X180051000Y-73864000D01*
X180091000Y-70174000D02*
X180091000Y-70960000D01*
X180091000Y-73040000D02*
X180091000Y-73826000D01*
X180131000Y-70215000D02*
X180131000Y-70960000D01*
X180131000Y-73040000D02*
X180131000Y-73785000D01*
X180171000Y-70257000D02*
X180171000Y-70960000D01*
X180171000Y-73040000D02*
X180171000Y-73743000D01*
X180211000Y-70301000D02*
X180211000Y-70960000D01*
X180211000Y-73040000D02*
X180211000Y-73699000D01*
X180251000Y-70347000D02*
X180251000Y-70960000D01*
X180251000Y-73040000D02*
X180251000Y-73653000D01*
X180291000Y-70395000D02*
X180291000Y-70960000D01*
X180291000Y-73040000D02*
X180291000Y-73605000D01*
X180331000Y-70446000D02*
X180331000Y-70960000D01*
X180331000Y-73040000D02*
X180331000Y-73554000D01*
X180371000Y-70500000D02*
X180371000Y-70960000D01*
X180371000Y-73040000D02*
X180371000Y-73500000D01*
X180411000Y-70557000D02*
X180411000Y-70960000D01*
X180411000Y-73040000D02*
X180411000Y-73443000D01*
X180451000Y-70617000D02*
X180451000Y-70960000D01*
X180451000Y-73040000D02*
X180451000Y-73383000D01*
X180491000Y-70681000D02*
X180491000Y-70960000D01*
X180491000Y-73040000D02*
X180491000Y-73319000D01*
X180531000Y-70749000D02*
X180531000Y-70960000D01*
X180531000Y-73040000D02*
X180531000Y-73251000D01*
X180571000Y-70822000D02*
X180571000Y-73178000D01*
X180611000Y-70902000D02*
X180611000Y-73098000D01*
X180651000Y-70989000D02*
X180651000Y-73011000D01*
X180691000Y-71085000D02*
X180691000Y-72915000D01*
X180731000Y-71195000D02*
X180731000Y-72805000D01*
X180771000Y-71323000D02*
X180771000Y-72677000D01*
X180811000Y-71482000D02*
X180811000Y-72518000D01*
X180851000Y-71716000D02*
X180851000Y-72284000D01*
X175445225Y-70525000D02*
X175945225Y-70525000D01*
X175695225Y-70275000D02*
X175695225Y-70775000D01*
X175695225Y-51775000D02*
X175695225Y-52275000D01*
X175445225Y-52025000D02*
X175945225Y-52025000D01*
X180851000Y-53216000D02*
X180851000Y-53784000D01*
X180811000Y-52982000D02*
X180811000Y-54018000D01*
X180771000Y-52823000D02*
X180771000Y-54177000D01*
X180731000Y-52695000D02*
X180731000Y-54305000D01*
X180691000Y-52585000D02*
X180691000Y-54415000D01*
X180651000Y-52489000D02*
X180651000Y-54511000D01*
X180611000Y-52402000D02*
X180611000Y-54598000D01*
X180571000Y-52322000D02*
X180571000Y-54678000D01*
X180531000Y-54540000D02*
X180531000Y-54751000D01*
X180531000Y-52249000D02*
X180531000Y-52460000D01*
X180491000Y-54540000D02*
X180491000Y-54819000D01*
X180491000Y-52181000D02*
X180491000Y-52460000D01*
X180451000Y-54540000D02*
X180451000Y-54883000D01*
X180451000Y-52117000D02*
X180451000Y-52460000D01*
X180411000Y-54540000D02*
X180411000Y-54943000D01*
X180411000Y-52057000D02*
X180411000Y-52460000D01*
X180371000Y-54540000D02*
X180371000Y-55000000D01*
X180371000Y-52000000D02*
X180371000Y-52460000D01*
X180331000Y-54540000D02*
X180331000Y-55054000D01*
X180331000Y-51946000D02*
X180331000Y-52460000D01*
X180291000Y-54540000D02*
X180291000Y-55105000D01*
X180291000Y-51895000D02*
X180291000Y-52460000D01*
X180251000Y-54540000D02*
X180251000Y-55153000D01*
X180251000Y-51847000D02*
X180251000Y-52460000D01*
X180211000Y-54540000D02*
X180211000Y-55199000D01*
X180211000Y-51801000D02*
X180211000Y-52460000D01*
X180171000Y-54540000D02*
X180171000Y-55243000D01*
X180171000Y-51757000D02*
X180171000Y-52460000D01*
X180131000Y-54540000D02*
X180131000Y-55285000D01*
X180131000Y-51715000D02*
X180131000Y-52460000D01*
X180091000Y-54540000D02*
X180091000Y-55326000D01*
X180091000Y-51674000D02*
X180091000Y-52460000D01*
X180051000Y-54540000D02*
X180051000Y-55364000D01*
X180051000Y-51636000D02*
X180051000Y-52460000D01*
X180011000Y-54540000D02*
X180011000Y-55401000D01*
X180011000Y-51599000D02*
X180011000Y-52460000D01*
X179971000Y-54540000D02*
X179971000Y-55437000D01*
X179971000Y-51563000D02*
X179971000Y-52460000D01*
X179931000Y-54540000D02*
X179931000Y-55471000D01*
X179931000Y-51529000D02*
X179931000Y-52460000D01*
X179891000Y-54540000D02*
X179891000Y-55504000D01*
X179891000Y-51496000D02*
X179891000Y-52460000D01*
X179851000Y-54540000D02*
X179851000Y-55535000D01*
X179851000Y-51465000D02*
X179851000Y-52460000D01*
X179811000Y-54540000D02*
X179811000Y-55565000D01*
X179811000Y-51435000D02*
X179811000Y-52460000D01*
X179771000Y-54540000D02*
X179771000Y-55595000D01*
X179771000Y-51405000D02*
X179771000Y-52460000D01*
X179731000Y-54540000D02*
X179731000Y-55622000D01*
X179731000Y-51378000D02*
X179731000Y-52460000D01*
X179691000Y-54540000D02*
X179691000Y-55649000D01*
X179691000Y-51351000D02*
X179691000Y-52460000D01*
X179651000Y-54540000D02*
X179651000Y-55675000D01*
X179651000Y-51325000D02*
X179651000Y-52460000D01*
X179611000Y-54540000D02*
X179611000Y-55700000D01*
X179611000Y-51300000D02*
X179611000Y-52460000D01*
X179571000Y-54540000D02*
X179571000Y-55724000D01*
X179571000Y-51276000D02*
X179571000Y-52460000D01*
X179531000Y-54540000D02*
X179531000Y-55747000D01*
X179531000Y-51253000D02*
X179531000Y-52460000D01*
X179491000Y-54540000D02*
X179491000Y-55768000D01*
X179491000Y-51232000D02*
X179491000Y-52460000D01*
X179451000Y-54540000D02*
X179451000Y-55790000D01*
X179451000Y-51210000D02*
X179451000Y-52460000D01*
X179411000Y-54540000D02*
X179411000Y-55810000D01*
X179411000Y-51190000D02*
X179411000Y-52460000D01*
X179371000Y-54540000D02*
X179371000Y-55829000D01*
X179371000Y-51171000D02*
X179371000Y-52460000D01*
X179331000Y-54540000D02*
X179331000Y-55848000D01*
X179331000Y-51152000D02*
X179331000Y-52460000D01*
X179291000Y-54540000D02*
X179291000Y-55865000D01*
X179291000Y-51135000D02*
X179291000Y-52460000D01*
X179251000Y-54540000D02*
X179251000Y-55882000D01*
X179251000Y-51118000D02*
X179251000Y-52460000D01*
X179211000Y-54540000D02*
X179211000Y-55898000D01*
X179211000Y-51102000D02*
X179211000Y-52460000D01*
X179171000Y-54540000D02*
X179171000Y-55914000D01*
X179171000Y-51086000D02*
X179171000Y-52460000D01*
X179131000Y-54540000D02*
X179131000Y-55928000D01*
X179131000Y-51072000D02*
X179131000Y-52460000D01*
X179091000Y-54540000D02*
X179091000Y-55942000D01*
X179091000Y-51058000D02*
X179091000Y-52460000D01*
X179051000Y-54540000D02*
X179051000Y-55955000D01*
X179051000Y-51045000D02*
X179051000Y-52460000D01*
X179011000Y-54540000D02*
X179011000Y-55968000D01*
X179011000Y-51032000D02*
X179011000Y-52460000D01*
X178971000Y-54540000D02*
X178971000Y-55980000D01*
X178971000Y-51020000D02*
X178971000Y-52460000D01*
X178930000Y-54540000D02*
X178930000Y-55991000D01*
X178930000Y-51009000D02*
X178930000Y-52460000D01*
X178890000Y-54540000D02*
X178890000Y-56001000D01*
X178890000Y-50999000D02*
X178890000Y-52460000D01*
X178850000Y-54540000D02*
X178850000Y-56011000D01*
X178850000Y-50989000D02*
X178850000Y-52460000D01*
X178810000Y-54540000D02*
X178810000Y-56020000D01*
X178810000Y-50980000D02*
X178810000Y-52460000D01*
X178770000Y-54540000D02*
X178770000Y-56028000D01*
X178770000Y-50972000D02*
X178770000Y-52460000D01*
X178730000Y-54540000D02*
X178730000Y-56036000D01*
X178730000Y-50964000D02*
X178730000Y-52460000D01*
X178690000Y-54540000D02*
X178690000Y-56043000D01*
X178690000Y-50957000D02*
X178690000Y-52460000D01*
X178650000Y-54540000D02*
X178650000Y-56050000D01*
X178650000Y-50950000D02*
X178650000Y-52460000D01*
X178610000Y-54540000D02*
X178610000Y-56056000D01*
X178610000Y-50944000D02*
X178610000Y-52460000D01*
X178570000Y-54540000D02*
X178570000Y-56061000D01*
X178570000Y-50939000D02*
X178570000Y-52460000D01*
X178530000Y-54540000D02*
X178530000Y-56065000D01*
X178530000Y-50935000D02*
X178530000Y-52460000D01*
X178490000Y-54540000D02*
X178490000Y-56069000D01*
X178490000Y-50931000D02*
X178490000Y-52460000D01*
X178450000Y-50927000D02*
X178450000Y-56073000D01*
X178410000Y-50924000D02*
X178410000Y-56076000D01*
X178370000Y-50922000D02*
X178370000Y-56078000D01*
X178330000Y-50921000D02*
X178330000Y-56079000D01*
X178290000Y-50920000D02*
X178290000Y-56080000D01*
X178250000Y-50920000D02*
X178250000Y-56080000D01*
X180870000Y-53500000D02*
G75*
G03X180870000Y-53500000I-2620000J0D01*
G01*
X140630000Y-51170000D02*
X143230000Y-51170000D01*
X140630000Y-51170000D02*
X140630000Y-71610000D01*
X140630000Y-71610000D02*
X145830000Y-71610000D01*
X145830000Y-53770000D02*
X145830000Y-71610000D01*
X143230000Y-53770000D02*
X145830000Y-53770000D01*
X143230000Y-51170000D02*
X143230000Y-53770000D01*
X145830000Y-51170000D02*
X145830000Y-52500000D01*
X144500000Y-51170000D02*
X145830000Y-51170000D01*
X147050000Y-137890000D02*
X153110000Y-137890000D01*
X153110000Y-137890000D02*
X153110000Y-140700000D01*
X153110000Y-145300000D02*
X153110000Y-148110000D01*
X153110000Y-148110000D02*
X147050000Y-148110000D01*
X142950000Y-148110000D02*
X139890000Y-148110000D01*
X139890000Y-148110000D02*
X139890000Y-137890000D01*
X139890000Y-137890000D02*
X142950000Y-137890000D01*
X153300000Y-142000000D02*
X153300000Y-144000000D01*
D18*
X198703840Y-99799640D02*
X199204220Y-99799640D01*
X199704600Y-120800360D02*
X199204220Y-120800360D01*
X198206000Y-118798840D02*
X198703840Y-118798840D01*
X198703840Y-101801160D02*
X198206000Y-101801160D01*
X198206000Y-119299220D02*
X198206000Y-118798840D01*
X198206000Y-101300780D02*
X198206000Y-101801160D01*
X198703840Y-119299220D02*
X198703840Y-99799640D01*
X199204220Y-119299220D02*
X198703840Y-119299220D01*
X199204220Y-120800360D02*
X199204220Y-119299220D01*
X199704600Y-101300780D02*
X199704600Y-120800360D01*
X199204220Y-101300780D02*
X199704600Y-101300780D01*
X199204220Y-99799640D02*
X199204220Y-101300780D01*
X181205780Y-108301020D02*
X183204760Y-108301020D01*
X180705400Y-108798860D02*
X181205780Y-108301020D01*
X180705400Y-111801140D02*
X180705400Y-108798860D01*
X181205780Y-112298980D02*
X183204760Y-112298980D01*
X180705400Y-111801140D02*
X181205780Y-112298980D01*
X183204760Y-104800900D02*
X183204760Y-108301020D01*
X181205780Y-104800900D02*
X183204760Y-104800900D01*
X180705400Y-104300520D02*
X181205780Y-104800900D01*
X180705400Y-103800140D02*
X180705400Y-104300520D01*
X180705400Y-101801160D02*
X180705400Y-103800140D01*
X181205780Y-101300780D02*
X180705400Y-101801160D01*
X181205780Y-101300780D02*
X198206000Y-101300780D01*
X183204760Y-115799100D02*
X183204760Y-112298980D01*
X181205780Y-115799100D02*
X183204760Y-115799100D01*
X180705400Y-116299480D02*
X181205780Y-115799100D01*
X180705400Y-118798840D02*
X180705400Y-116299480D01*
X181205780Y-119299220D02*
X180705400Y-118798840D01*
X181205780Y-119299220D02*
X198206000Y-119299220D01*
X199455680Y-120800360D02*
X199455680Y-101300780D01*
X199204220Y-101300780D02*
X199204220Y-119299220D01*
X198955300Y-119299220D02*
X198955300Y-99799640D01*
X198955300Y-98979220D02*
X198955300Y-79479640D01*
X199204220Y-80980780D02*
X199204220Y-98979220D01*
X199455680Y-100480360D02*
X199455680Y-80980780D01*
X181205780Y-98979220D02*
X198206000Y-98979220D01*
X181205780Y-98979220D02*
X180705400Y-98478840D01*
X180705400Y-98478840D02*
X180705400Y-95979480D01*
X180705400Y-95979480D02*
X181205780Y-95479100D01*
X181205780Y-95479100D02*
X183204760Y-95479100D01*
X183204760Y-95479100D02*
X183204760Y-91978980D01*
X181205780Y-80980780D02*
X198206000Y-80980780D01*
X181205780Y-80980780D02*
X180705400Y-81481160D01*
X180705400Y-81481160D02*
X180705400Y-83480140D01*
X180705400Y-83480140D02*
X180705400Y-83980520D01*
X180705400Y-83980520D02*
X181205780Y-84480900D01*
X181205780Y-84480900D02*
X183204760Y-84480900D01*
X183204760Y-84480900D02*
X183204760Y-87981020D01*
X180705400Y-91481140D02*
X181205780Y-91978980D01*
X181205780Y-91978980D02*
X183204760Y-91978980D01*
X180705400Y-91481140D02*
X180705400Y-88478860D01*
X180705400Y-88478860D02*
X181205780Y-87981020D01*
X181205780Y-87981020D02*
X183204760Y-87981020D01*
X199204220Y-79479640D02*
X199204220Y-80980780D01*
X199204220Y-80980780D02*
X199704600Y-80980780D01*
X199704600Y-80980780D02*
X199704600Y-100480360D01*
X199204220Y-100480360D02*
X199204220Y-98979220D01*
X199204220Y-98979220D02*
X198703840Y-98979220D01*
X198703840Y-98979220D02*
X198703840Y-79479640D01*
X198206000Y-80980780D02*
X198206000Y-81481160D01*
X198206000Y-98979220D02*
X198206000Y-98478840D01*
X198703840Y-81481160D02*
X198206000Y-81481160D01*
X198206000Y-98478840D02*
X198703840Y-98478840D01*
X199704600Y-100480360D02*
X199204220Y-100480360D01*
X198703840Y-79479640D02*
X199204220Y-79479640D01*
D17*
X174830000Y-97000000D02*
X174830000Y-98330000D01*
X174830000Y-98330000D02*
X173500000Y-98330000D01*
X172230000Y-98330000D02*
X169630000Y-98330000D01*
X169630000Y-95670000D02*
X169630000Y-98330000D01*
X172230000Y-95670000D02*
X169630000Y-95670000D01*
X172230000Y-95670000D02*
X172230000Y-98330000D01*
X172270000Y-92170000D02*
X172270000Y-94830000D01*
X172270000Y-92170000D02*
X169670000Y-92170000D01*
X169670000Y-92170000D02*
X169670000Y-94830000D01*
X172270000Y-94830000D02*
X169670000Y-94830000D01*
X174870000Y-94830000D02*
X173540000Y-94830000D01*
X174870000Y-93500000D02*
X174870000Y-94830000D01*
X180870000Y-60500000D02*
G75*
G03X180870000Y-60500000I-2620000J0D01*
G01*
X178250000Y-57920000D02*
X178250000Y-63080000D01*
X178290000Y-57920000D02*
X178290000Y-63080000D01*
X178330000Y-57921000D02*
X178330000Y-63079000D01*
X178370000Y-57922000D02*
X178370000Y-63078000D01*
X178410000Y-57924000D02*
X178410000Y-63076000D01*
X178450000Y-57927000D02*
X178450000Y-63073000D01*
X178490000Y-57931000D02*
X178490000Y-59460000D01*
X178490000Y-61540000D02*
X178490000Y-63069000D01*
X178530000Y-57935000D02*
X178530000Y-59460000D01*
X178530000Y-61540000D02*
X178530000Y-63065000D01*
X178570000Y-57939000D02*
X178570000Y-59460000D01*
X178570000Y-61540000D02*
X178570000Y-63061000D01*
X178610000Y-57944000D02*
X178610000Y-59460000D01*
X178610000Y-61540000D02*
X178610000Y-63056000D01*
X178650000Y-57950000D02*
X178650000Y-59460000D01*
X178650000Y-61540000D02*
X178650000Y-63050000D01*
X178690000Y-57957000D02*
X178690000Y-59460000D01*
X178690000Y-61540000D02*
X178690000Y-63043000D01*
X178730000Y-57964000D02*
X178730000Y-59460000D01*
X178730000Y-61540000D02*
X178730000Y-63036000D01*
X178770000Y-57972000D02*
X178770000Y-59460000D01*
X178770000Y-61540000D02*
X178770000Y-63028000D01*
X178810000Y-57980000D02*
X178810000Y-59460000D01*
X178810000Y-61540000D02*
X178810000Y-63020000D01*
X178850000Y-57989000D02*
X178850000Y-59460000D01*
X178850000Y-61540000D02*
X178850000Y-63011000D01*
X178890000Y-57999000D02*
X178890000Y-59460000D01*
X178890000Y-61540000D02*
X178890000Y-63001000D01*
X178930000Y-58009000D02*
X178930000Y-59460000D01*
X178930000Y-61540000D02*
X178930000Y-62991000D01*
X178971000Y-58020000D02*
X178971000Y-59460000D01*
X178971000Y-61540000D02*
X178971000Y-62980000D01*
X179011000Y-58032000D02*
X179011000Y-59460000D01*
X179011000Y-61540000D02*
X179011000Y-62968000D01*
X179051000Y-58045000D02*
X179051000Y-59460000D01*
X179051000Y-61540000D02*
X179051000Y-62955000D01*
X179091000Y-58058000D02*
X179091000Y-59460000D01*
X179091000Y-61540000D02*
X179091000Y-62942000D01*
X179131000Y-58072000D02*
X179131000Y-59460000D01*
X179131000Y-61540000D02*
X179131000Y-62928000D01*
X179171000Y-58086000D02*
X179171000Y-59460000D01*
X179171000Y-61540000D02*
X179171000Y-62914000D01*
X179211000Y-58102000D02*
X179211000Y-59460000D01*
X179211000Y-61540000D02*
X179211000Y-62898000D01*
X179251000Y-58118000D02*
X179251000Y-59460000D01*
X179251000Y-61540000D02*
X179251000Y-62882000D01*
X179291000Y-58135000D02*
X179291000Y-59460000D01*
X179291000Y-61540000D02*
X179291000Y-62865000D01*
X179331000Y-58152000D02*
X179331000Y-59460000D01*
X179331000Y-61540000D02*
X179331000Y-62848000D01*
X179371000Y-58171000D02*
X179371000Y-59460000D01*
X179371000Y-61540000D02*
X179371000Y-62829000D01*
X179411000Y-58190000D02*
X179411000Y-59460000D01*
X179411000Y-61540000D02*
X179411000Y-62810000D01*
X179451000Y-58210000D02*
X179451000Y-59460000D01*
X179451000Y-61540000D02*
X179451000Y-62790000D01*
X179491000Y-58232000D02*
X179491000Y-59460000D01*
X179491000Y-61540000D02*
X179491000Y-62768000D01*
X179531000Y-58253000D02*
X179531000Y-59460000D01*
X179531000Y-61540000D02*
X179531000Y-62747000D01*
X179571000Y-58276000D02*
X179571000Y-59460000D01*
X179571000Y-61540000D02*
X179571000Y-62724000D01*
X179611000Y-58300000D02*
X179611000Y-59460000D01*
X179611000Y-61540000D02*
X179611000Y-62700000D01*
X179651000Y-58325000D02*
X179651000Y-59460000D01*
X179651000Y-61540000D02*
X179651000Y-62675000D01*
X179691000Y-58351000D02*
X179691000Y-59460000D01*
X179691000Y-61540000D02*
X179691000Y-62649000D01*
X179731000Y-58378000D02*
X179731000Y-59460000D01*
X179731000Y-61540000D02*
X179731000Y-62622000D01*
X179771000Y-58405000D02*
X179771000Y-59460000D01*
X179771000Y-61540000D02*
X179771000Y-62595000D01*
X179811000Y-58435000D02*
X179811000Y-59460000D01*
X179811000Y-61540000D02*
X179811000Y-62565000D01*
X179851000Y-58465000D02*
X179851000Y-59460000D01*
X179851000Y-61540000D02*
X179851000Y-62535000D01*
X179891000Y-58496000D02*
X179891000Y-59460000D01*
X179891000Y-61540000D02*
X179891000Y-62504000D01*
X179931000Y-58529000D02*
X179931000Y-59460000D01*
X179931000Y-61540000D02*
X179931000Y-62471000D01*
X179971000Y-58563000D02*
X179971000Y-59460000D01*
X179971000Y-61540000D02*
X179971000Y-62437000D01*
X180011000Y-58599000D02*
X180011000Y-59460000D01*
X180011000Y-61540000D02*
X180011000Y-62401000D01*
X180051000Y-58636000D02*
X180051000Y-59460000D01*
X180051000Y-61540000D02*
X180051000Y-62364000D01*
X180091000Y-58674000D02*
X180091000Y-59460000D01*
X180091000Y-61540000D02*
X180091000Y-62326000D01*
X180131000Y-58715000D02*
X180131000Y-59460000D01*
X180131000Y-61540000D02*
X180131000Y-62285000D01*
X180171000Y-58757000D02*
X180171000Y-59460000D01*
X180171000Y-61540000D02*
X180171000Y-62243000D01*
X180211000Y-58801000D02*
X180211000Y-59460000D01*
X180211000Y-61540000D02*
X180211000Y-62199000D01*
X180251000Y-58847000D02*
X180251000Y-59460000D01*
X180251000Y-61540000D02*
X180251000Y-62153000D01*
X180291000Y-58895000D02*
X180291000Y-59460000D01*
X180291000Y-61540000D02*
X180291000Y-62105000D01*
X180331000Y-58946000D02*
X180331000Y-59460000D01*
X180331000Y-61540000D02*
X180331000Y-62054000D01*
X180371000Y-59000000D02*
X180371000Y-59460000D01*
X180371000Y-61540000D02*
X180371000Y-62000000D01*
X180411000Y-59057000D02*
X180411000Y-59460000D01*
X180411000Y-61540000D02*
X180411000Y-61943000D01*
X180451000Y-59117000D02*
X180451000Y-59460000D01*
X180451000Y-61540000D02*
X180451000Y-61883000D01*
X180491000Y-59181000D02*
X180491000Y-59460000D01*
X180491000Y-61540000D02*
X180491000Y-61819000D01*
X180531000Y-59249000D02*
X180531000Y-59460000D01*
X180531000Y-61540000D02*
X180531000Y-61751000D01*
X180571000Y-59322000D02*
X180571000Y-61678000D01*
X180611000Y-59402000D02*
X180611000Y-61598000D01*
X180651000Y-59489000D02*
X180651000Y-61511000D01*
X180691000Y-59585000D02*
X180691000Y-61415000D01*
X180731000Y-59695000D02*
X180731000Y-61305000D01*
X180771000Y-59823000D02*
X180771000Y-61177000D01*
X180811000Y-59982000D02*
X180811000Y-61018000D01*
X180851000Y-60216000D02*
X180851000Y-60784000D01*
X175445225Y-59025000D02*
X175945225Y-59025000D01*
X175695225Y-58775000D02*
X175695225Y-59275000D01*
X167830000Y-53970000D02*
X165170000Y-53970000D01*
X167830000Y-66730000D02*
X167830000Y-53970000D01*
X165170000Y-66730000D02*
X165170000Y-53970000D01*
X167830000Y-66730000D02*
X165170000Y-66730000D01*
X167830000Y-68000000D02*
X167830000Y-69330000D01*
X167830000Y-69330000D02*
X166500000Y-69330000D01*
D15*
X109800000Y-114000000D02*
G75*
G03X109800000Y-114000000I-1800000J0D01*
G01*
X111006659Y-114000000D02*
G75*
G03X111006659Y-114000000I-3006659J0D01*
G01*
X114000000Y-109500000D02*
X103500000Y-109500000D01*
X114000000Y-118500000D02*
X114000000Y-109500000D01*
X103500000Y-118500000D02*
X114000000Y-118500000D01*
X103500000Y-109500000D02*
X103500000Y-118500000D01*
X109800000Y-114000000D02*
X106200000Y-114000000D01*
X108000000Y-115800000D02*
X108000000Y-112200000D01*
X108000000Y-124800000D02*
X108000000Y-121200000D01*
X109800000Y-123000000D02*
X106200000Y-123000000D01*
X103500000Y-118500000D02*
X103500000Y-127500000D01*
X103500000Y-127500000D02*
X114000000Y-127500000D01*
X114000000Y-127500000D02*
X114000000Y-118500000D01*
X114000000Y-118500000D02*
X103500000Y-118500000D01*
X111006659Y-123000000D02*
G75*
G03X111006659Y-123000000I-3006659J0D01*
G01*
X109800000Y-123000000D02*
G75*
G03X109800000Y-123000000I-1800000J0D01*
G01*
D17*
X112021000Y-138380000D02*
X112021000Y-142317000D01*
X112021000Y-146684000D02*
X112021000Y-150620000D01*
X101980000Y-138380000D02*
X101980000Y-142317000D01*
X101980000Y-146684000D02*
X101980000Y-150620000D01*
X112021000Y-138380000D02*
X110371000Y-138380000D01*
X108629000Y-138380000D02*
X107870000Y-138380000D01*
X106129000Y-138380000D02*
X105370000Y-138380000D01*
X103630000Y-138380000D02*
X101980000Y-138380000D01*
X112021000Y-150620000D02*
X101980000Y-150620000D01*
X112021000Y-65620000D02*
X101980000Y-65620000D01*
X103630000Y-53380000D02*
X101980000Y-53380000D01*
X106129000Y-53380000D02*
X105370000Y-53380000D01*
X108629000Y-53380000D02*
X107870000Y-53380000D01*
X112021000Y-53380000D02*
X110371000Y-53380000D01*
X101980000Y-61684000D02*
X101980000Y-65620000D01*
X101980000Y-53380000D02*
X101980000Y-57317000D01*
X112021000Y-61684000D02*
X112021000Y-65620000D01*
X112021000Y-53380000D02*
X112021000Y-57317000D01*
X121080000Y-79290000D02*
X121236000Y-79290000D01*
X118764000Y-79290000D02*
X118920000Y-79290000D01*
X121079837Y-76688870D02*
G75*
G02X121080000Y-78770961I-1079837J-1041130D01*
G01*
X118920163Y-76688870D02*
G75*
G03X118920000Y-78770961I1079837J-1041130D01*
G01*
X121078608Y-76057665D02*
G75*
G02X121235516Y-79290000I-1078608J-1672335D01*
G01*
X118921392Y-76057665D02*
G75*
G03X118764484Y-79290000I1078608J-1672335D01*
G01*
X126080000Y-79290000D02*
X126236000Y-79290000D01*
X123764000Y-79290000D02*
X123920000Y-79290000D01*
X126079837Y-76688870D02*
G75*
G02X126080000Y-78770961I-1079837J-1041130D01*
G01*
X123920163Y-76688870D02*
G75*
G03X123920000Y-78770961I1079837J-1041130D01*
G01*
X126078608Y-76057665D02*
G75*
G02X126235516Y-79290000I-1078608J-1672335D01*
G01*
X123921392Y-76057665D02*
G75*
G03X123764484Y-79290000I1078608J-1672335D01*
G01*
X128921392Y-76057665D02*
G75*
G03X128764484Y-79290000I1078608J-1672335D01*
G01*
X131078608Y-76057665D02*
G75*
G02X131235516Y-79290000I-1078608J-1672335D01*
G01*
X128920163Y-76688870D02*
G75*
G03X128920000Y-78770961I1079837J-1041130D01*
G01*
X131079837Y-76688870D02*
G75*
G02X131080000Y-78770961I-1079837J-1041130D01*
G01*
X128764000Y-79290000D02*
X128920000Y-79290000D01*
X131080000Y-79290000D02*
X131236000Y-79290000D01*
X133921392Y-76057665D02*
G75*
G03X133764484Y-79290000I1078608J-1672335D01*
G01*
X136078608Y-76057665D02*
G75*
G02X136235516Y-79290000I-1078608J-1672335D01*
G01*
X133920163Y-76688870D02*
G75*
G03X133920000Y-78770961I1079837J-1041130D01*
G01*
X136079837Y-76688870D02*
G75*
G02X136080000Y-78770961I-1079837J-1041130D01*
G01*
X133764000Y-79290000D02*
X133920000Y-79290000D01*
X136080000Y-79290000D02*
X136236000Y-79290000D01*
X122942335Y-120921392D02*
G75*
G03X119710000Y-120764484I-1672335J-1078608D01*
G01*
X122942335Y-123078608D02*
G75*
G02X119710000Y-123235516I-1672335J1078608D01*
G01*
X122311130Y-120920163D02*
G75*
G03X120229039Y-120920000I-1041130J-1079837D01*
G01*
X122311130Y-123079837D02*
G75*
G02X120229039Y-123080000I-1041130J1079837D01*
G01*
X119710000Y-120764000D02*
X119710000Y-120920000D01*
X119710000Y-123080000D02*
X119710000Y-123236000D01*
X119710000Y-142080000D02*
X119710000Y-142236000D01*
X119710000Y-139764000D02*
X119710000Y-139920000D01*
X122311130Y-142079837D02*
G75*
G02X120229039Y-142080000I-1041130J1079837D01*
G01*
X122311130Y-139920163D02*
G75*
G03X120229039Y-139920000I-1041130J-1079837D01*
G01*
X122942335Y-142078608D02*
G75*
G02X119710000Y-142235516I-1672335J1078608D01*
G01*
X122942335Y-139921392D02*
G75*
G03X119710000Y-139764484I-1672335J-1078608D01*
G01*
X106921392Y-128557665D02*
G75*
G03X106764484Y-131790000I1078608J-1672335D01*
G01*
X109078608Y-128557665D02*
G75*
G02X109235516Y-131790000I-1078608J-1672335D01*
G01*
X106920163Y-129188870D02*
G75*
G03X106920000Y-131270961I1079837J-1041130D01*
G01*
X109079837Y-129188870D02*
G75*
G02X109080000Y-131270961I-1079837J-1041130D01*
G01*
X106764000Y-131790000D02*
X106920000Y-131790000D01*
X109080000Y-131790000D02*
X109236000Y-131790000D01*
X106920000Y-68210000D02*
X106764000Y-68210000D01*
X109236000Y-68210000D02*
X109080000Y-68210000D01*
X106920163Y-70811130D02*
G75*
G02X106920000Y-68729039I1079837J1041130D01*
G01*
X109079837Y-70811130D02*
G75*
G03X109080000Y-68729039I-1079837J1041130D01*
G01*
X106921392Y-71442335D02*
G75*
G02X106764484Y-68210000I1078608J1672335D01*
G01*
X109078608Y-71442335D02*
G75*
G03X109235516Y-68210000I-1078608J1672335D01*
G01*
X129670000Y-148730000D02*
X132330000Y-148730000D01*
X129670000Y-123270000D02*
X129670000Y-148730000D01*
X132330000Y-123270000D02*
X132330000Y-148730000D01*
X129670000Y-123270000D02*
X132330000Y-123270000D01*
X129670000Y-122000000D02*
X129670000Y-120670000D01*
X129670000Y-120670000D02*
X131000000Y-120670000D01*
X129670000Y-74650000D02*
X132330000Y-74650000D01*
X129670000Y-54270000D02*
X129670000Y-74650000D01*
X132330000Y-54270000D02*
X132330000Y-74650000D01*
X129670000Y-54270000D02*
X132330000Y-54270000D01*
X129670000Y-53000000D02*
X129670000Y-51670000D01*
X129670000Y-51670000D02*
X131000000Y-51670000D01*
X184170000Y-148730000D02*
X186830000Y-148730000D01*
X184170000Y-123270000D02*
X184170000Y-148730000D01*
X186830000Y-123270000D02*
X186830000Y-148730000D01*
X184170000Y-123270000D02*
X186830000Y-123270000D01*
X184170000Y-122000000D02*
X184170000Y-120670000D01*
X184170000Y-120670000D02*
X185500000Y-120670000D01*
X184170000Y-74650000D02*
X186830000Y-74650000D01*
X184170000Y-54270000D02*
X184170000Y-74650000D01*
X186830000Y-54270000D02*
X186830000Y-74650000D01*
X184170000Y-54270000D02*
X186830000Y-54270000D01*
X184170000Y-53000000D02*
X184170000Y-51670000D01*
X184170000Y-51670000D02*
X185500000Y-51670000D01*
X122500000Y-60500000D02*
X122500000Y-59500000D01*
X122000000Y-60000000D02*
X123000000Y-60000000D01*
X126000000Y-53900000D02*
X128400000Y-53900000D01*
X121200000Y-53900000D02*
X123800000Y-53900000D01*
X116600000Y-53900000D02*
X119000000Y-53900000D01*
X118400000Y-67200000D02*
X118700000Y-67500000D01*
X118400000Y-67800000D02*
X118400000Y-67200000D01*
X118700000Y-67500000D02*
X118400000Y-67800000D01*
X116600000Y-66100000D02*
X128400000Y-66100000D01*
X116600000Y-62000000D02*
X116600000Y-66100000D01*
X128400000Y-62000000D02*
X128400000Y-66100000D01*
X128400000Y-53900000D02*
X128400000Y-58000000D01*
X116600000Y-58000000D02*
X116600000Y-53900000D01*
X125500000Y-60000000D02*
G75*
G03X125500000Y-60000000I-3000000J0D01*
G01*
D15*
X149295333Y-118276666D02*
X149771523Y-118276666D01*
X149200095Y-118562380D02*
X149533428Y-117562380D01*
X149866761Y-118562380D01*
X150723904Y-118562380D02*
X150152476Y-118562380D01*
X150438190Y-118562380D02*
X150438190Y-117562380D01*
X150342952Y-117705238D01*
X150247714Y-117800476D01*
X150152476Y-117848095D01*
X151342952Y-117562380D02*
X151438190Y-117562380D01*
X151533428Y-117610000D01*
X151581047Y-117657619D01*
X151628666Y-117752857D01*
X151676285Y-117943333D01*
X151676285Y-118181428D01*
X151628666Y-118371904D01*
X151581047Y-118467142D01*
X151533428Y-118514761D01*
X151438190Y-118562380D01*
X151342952Y-118562380D01*
X151247714Y-118514761D01*
X151200095Y-118467142D01*
X151152476Y-118371904D01*
X151104857Y-118181428D01*
X151104857Y-117943333D01*
X151152476Y-117752857D01*
X151200095Y-117657619D01*
X151247714Y-117610000D01*
X151342952Y-117562380D01*
X152628666Y-118562380D02*
X152057238Y-118562380D01*
X152342952Y-118562380D02*
X152342952Y-117562380D01*
X152247714Y-117705238D01*
X152152476Y-117800476D01*
X152057238Y-117848095D01*
D19*
X114489285Y-87520714D02*
X115025000Y-87520714D01*
X115132142Y-87568333D01*
X115203571Y-87663571D01*
X115239285Y-87806428D01*
X115239285Y-87901666D01*
X115239285Y-86520714D02*
X115239285Y-87092142D01*
X115239285Y-86806428D02*
X114489285Y-86806428D01*
X114596428Y-86901666D01*
X114667857Y-86996904D01*
X114703571Y-87092142D01*
X115239285Y-85568333D02*
X115239285Y-86139761D01*
X115239285Y-85854047D02*
X114489285Y-85854047D01*
X114596428Y-85949285D01*
X114667857Y-86044523D01*
X114703571Y-86139761D01*
X114739285Y-84711190D02*
X115239285Y-84711190D01*
X114453571Y-84949285D02*
X114989285Y-85187380D01*
X114989285Y-84568333D01*
X114489285Y-78485714D02*
X115025000Y-78485714D01*
X115132142Y-78533333D01*
X115203571Y-78628571D01*
X115239285Y-78771428D01*
X115239285Y-78866666D01*
X115239285Y-77485714D02*
X115239285Y-78057142D01*
X115239285Y-77771428D02*
X114489285Y-77771428D01*
X114596428Y-77866666D01*
X114667857Y-77961904D01*
X114703571Y-78057142D01*
X114489285Y-76866666D02*
X114489285Y-76771428D01*
X114525000Y-76676190D01*
X114560714Y-76628571D01*
X114632142Y-76580952D01*
X114775000Y-76533333D01*
X114953571Y-76533333D01*
X115096428Y-76580952D01*
X115167857Y-76628571D01*
X115203571Y-76676190D01*
X115239285Y-76771428D01*
X115239285Y-76866666D01*
X115203571Y-76961904D01*
X115167857Y-77009523D01*
X115096428Y-77057142D01*
X114953571Y-77104761D01*
X114775000Y-77104761D01*
X114632142Y-77057142D01*
X114560714Y-77009523D01*
X114525000Y-76961904D01*
X114489285Y-76866666D01*
X115239285Y-76057142D02*
X115239285Y-75866666D01*
X115203571Y-75771428D01*
X115167857Y-75723809D01*
X115060714Y-75628571D01*
X114917857Y-75580952D01*
X114632142Y-75580952D01*
X114560714Y-75628571D01*
X114525000Y-75676190D01*
X114489285Y-75771428D01*
X114489285Y-75961904D01*
X114525000Y-76057142D01*
X114560714Y-76104761D01*
X114632142Y-76152380D01*
X114810714Y-76152380D01*
X114882142Y-76104761D01*
X114917857Y-76057142D01*
X114953571Y-75961904D01*
X114953571Y-75771428D01*
X114917857Y-75676190D01*
X114882142Y-75628571D01*
X114810714Y-75580952D01*
D15*
X193918380Y-125285714D02*
X194632666Y-125285714D01*
X194775523Y-125333333D01*
X194870761Y-125428571D01*
X194918380Y-125571428D01*
X194918380Y-125666666D01*
X194918380Y-124285714D02*
X194918380Y-124857142D01*
X194918380Y-124571428D02*
X193918380Y-124571428D01*
X194061238Y-124666666D01*
X194156476Y-124761904D01*
X194204095Y-124857142D01*
X194918380Y-123333333D02*
X194918380Y-123904761D01*
X194918380Y-123619047D02*
X193918380Y-123619047D01*
X194061238Y-123714285D01*
X194156476Y-123809523D01*
X194204095Y-123904761D01*
X193918380Y-122714285D02*
X193918380Y-122619047D01*
X193966000Y-122523809D01*
X194013619Y-122476190D01*
X194108857Y-122428571D01*
X194299333Y-122380952D01*
X194537428Y-122380952D01*
X194727904Y-122428571D01*
X194823142Y-122476190D01*
X194870761Y-122523809D01*
X194918380Y-122619047D01*
X194918380Y-122714285D01*
X194870761Y-122809523D01*
X194823142Y-122857142D01*
X194727904Y-122904761D01*
X194537428Y-122952380D01*
X194299333Y-122952380D01*
X194108857Y-122904761D01*
X194013619Y-122857142D01*
X193966000Y-122809523D01*
X193918380Y-122714285D01*
X183357142Y-126166666D02*
X183404761Y-126214285D01*
X183452380Y-126357142D01*
X183452380Y-126452380D01*
X183404761Y-126595238D01*
X183309523Y-126690476D01*
X183214285Y-126738095D01*
X183023809Y-126785714D01*
X182880952Y-126785714D01*
X182690476Y-126738095D01*
X182595238Y-126690476D01*
X182500000Y-126595238D01*
X182452380Y-126452380D01*
X182452380Y-126357142D01*
X182500000Y-126214285D01*
X182547619Y-126166666D01*
X182452380Y-125880952D02*
X183452380Y-125547619D01*
X182452380Y-125214285D01*
X182452380Y-124976190D02*
X182452380Y-124357142D01*
X182833333Y-124690476D01*
X182833333Y-124547619D01*
X182880952Y-124452380D01*
X182928571Y-124404761D01*
X183023809Y-124357142D01*
X183261904Y-124357142D01*
X183357142Y-124404761D01*
X183404761Y-124452380D01*
X183452380Y-124547619D01*
X183452380Y-124833333D01*
X183404761Y-124928571D01*
X183357142Y-124976190D01*
X183452380Y-123166666D02*
X182785714Y-123166666D01*
X182452380Y-123166666D02*
X182500000Y-123214285D01*
X182547619Y-123166666D01*
X182500000Y-123119047D01*
X182452380Y-123166666D01*
X182547619Y-123166666D01*
X182785714Y-122690476D02*
X183452380Y-122690476D01*
X182880952Y-122690476D02*
X182833333Y-122642857D01*
X182785714Y-122547619D01*
X182785714Y-122404761D01*
X182833333Y-122309523D01*
X182928571Y-122261904D01*
X183452380Y-122261904D01*
X192468095Y-120960000D02*
X192372857Y-120912380D01*
X192230000Y-120912380D01*
X192087142Y-120960000D01*
X191991904Y-121055238D01*
X191944285Y-121150476D01*
X191896666Y-121340952D01*
X191896666Y-121483809D01*
X191944285Y-121674285D01*
X191991904Y-121769523D01*
X192087142Y-121864761D01*
X192230000Y-121912380D01*
X192325238Y-121912380D01*
X192468095Y-121864761D01*
X192515714Y-121817142D01*
X192515714Y-121483809D01*
X192325238Y-121483809D01*
X192944285Y-121912380D02*
X192944285Y-120912380D01*
X193515714Y-121912380D01*
X193515714Y-120912380D01*
X193991904Y-121912380D02*
X193991904Y-120912380D01*
X194230000Y-120912380D01*
X194372857Y-120960000D01*
X194468095Y-121055238D01*
X194515714Y-121150476D01*
X194563333Y-121340952D01*
X194563333Y-121483809D01*
X194515714Y-121674285D01*
X194468095Y-121769523D01*
X194372857Y-121864761D01*
X194230000Y-121912380D01*
X193991904Y-121912380D01*
X197349523Y-121912380D02*
X196873333Y-121912380D01*
X196873333Y-120912380D01*
X197349523Y-126992380D02*
X196873333Y-126992380D01*
X196873333Y-125992380D01*
X193539523Y-126992380D02*
X193206190Y-126516190D01*
X192968095Y-126992380D02*
X192968095Y-125992380D01*
X193349047Y-125992380D01*
X193444285Y-126040000D01*
X193491904Y-126087619D01*
X193539523Y-126182857D01*
X193539523Y-126325714D01*
X193491904Y-126420952D01*
X193444285Y-126468571D01*
X193349047Y-126516190D01*
X192968095Y-126516190D01*
X194701856Y-146355714D02*
X195416142Y-146355714D01*
X195558999Y-146403333D01*
X195654237Y-146498571D01*
X195701856Y-146641428D01*
X195701856Y-146736666D01*
X195701856Y-145355714D02*
X195701856Y-145927142D01*
X195701856Y-145641428D02*
X194701856Y-145641428D01*
X194844714Y-145736666D01*
X194939952Y-145831904D01*
X194987571Y-145927142D01*
X195701856Y-144403333D02*
X195701856Y-144974761D01*
X195701856Y-144689047D02*
X194701856Y-144689047D01*
X194844714Y-144784285D01*
X194939952Y-144879523D01*
X194987571Y-144974761D01*
X195701856Y-143450952D02*
X195701856Y-144022380D01*
X195701856Y-143736666D02*
X194701856Y-143736666D01*
X194844714Y-143831904D01*
X194939952Y-143927142D01*
X194987571Y-144022380D01*
X182500000Y-146380952D02*
X182452380Y-146476190D01*
X182452380Y-146619047D01*
X182500000Y-146761904D01*
X182595238Y-146857142D01*
X182690476Y-146904761D01*
X182880952Y-146952380D01*
X183023809Y-146952380D01*
X183214285Y-146904761D01*
X183309523Y-146857142D01*
X183404761Y-146761904D01*
X183452380Y-146619047D01*
X183452380Y-146523809D01*
X183404761Y-146380952D01*
X183357142Y-146333333D01*
X183023809Y-146333333D01*
X183023809Y-146523809D01*
X183452380Y-145476190D02*
X182928571Y-145476190D01*
X182833333Y-145523809D01*
X182785714Y-145619047D01*
X182785714Y-145809523D01*
X182833333Y-145904761D01*
X183404761Y-145476190D02*
X183452380Y-145571428D01*
X183452380Y-145809523D01*
X183404761Y-145904761D01*
X183309523Y-145952380D01*
X183214285Y-145952380D01*
X183119047Y-145904761D01*
X183071428Y-145809523D01*
X183071428Y-145571428D01*
X183023809Y-145476190D01*
X182785714Y-145142857D02*
X182785714Y-144761904D01*
X182452380Y-145000000D02*
X183309523Y-145000000D01*
X183404761Y-144952380D01*
X183452380Y-144857142D01*
X183452380Y-144761904D01*
X183404761Y-144047619D02*
X183452380Y-144142857D01*
X183452380Y-144333333D01*
X183404761Y-144428571D01*
X183309523Y-144476190D01*
X182928571Y-144476190D01*
X182833333Y-144428571D01*
X182785714Y-144333333D01*
X182785714Y-144142857D01*
X182833333Y-144047619D01*
X182928571Y-144000000D01*
X183023809Y-144000000D01*
X183119047Y-144476190D01*
X182452380Y-143666666D02*
X182452380Y-143047619D01*
X182833333Y-143380952D01*
X182833333Y-143238095D01*
X182880952Y-143142857D01*
X182928571Y-143095238D01*
X183023809Y-143047619D01*
X183261904Y-143047619D01*
X183357142Y-143095238D01*
X183404761Y-143142857D01*
X183452380Y-143238095D01*
X183452380Y-143523809D01*
X183404761Y-143619047D01*
X183357142Y-143666666D01*
X192302571Y-141960000D02*
X192207333Y-141912380D01*
X192064476Y-141912380D01*
X191921618Y-141960000D01*
X191826380Y-142055238D01*
X191778761Y-142150476D01*
X191731142Y-142340952D01*
X191731142Y-142483809D01*
X191778761Y-142674285D01*
X191826380Y-142769523D01*
X191921618Y-142864761D01*
X192064476Y-142912380D01*
X192159714Y-142912380D01*
X192302571Y-142864761D01*
X192350190Y-142817142D01*
X192350190Y-142483809D01*
X192159714Y-142483809D01*
X192778761Y-142912380D02*
X192778761Y-141912380D01*
X193350190Y-142912380D01*
X193350190Y-141912380D01*
X193826380Y-142912380D02*
X193826380Y-141912380D01*
X194064476Y-141912380D01*
X194207333Y-141960000D01*
X194302571Y-142055238D01*
X194350190Y-142150476D01*
X194397809Y-142340952D01*
X194397809Y-142483809D01*
X194350190Y-142674285D01*
X194302571Y-142769523D01*
X194207333Y-142864761D01*
X194064476Y-142912380D01*
X193826380Y-142912380D01*
X197183999Y-142912380D02*
X196707809Y-142912380D01*
X196707809Y-141912380D01*
X197183999Y-147992380D02*
X196707809Y-147992380D01*
X196707809Y-146992380D01*
X193373999Y-147992380D02*
X193040666Y-147516190D01*
X192802571Y-147992380D02*
X192802571Y-146992380D01*
X193183523Y-146992380D01*
X193278761Y-147040000D01*
X193326380Y-147087619D01*
X193373999Y-147182857D01*
X193373999Y-147325714D01*
X193326380Y-147420952D01*
X193278761Y-147468571D01*
X193183523Y-147516190D01*
X192802571Y-147516190D01*
X195301856Y-138545714D02*
X196016142Y-138545714D01*
X196158999Y-138593333D01*
X196254237Y-138688571D01*
X196301856Y-138831428D01*
X196301856Y-138926666D01*
X196301856Y-137545714D02*
X196301856Y-138117142D01*
X196301856Y-137831428D02*
X195301856Y-137831428D01*
X195444714Y-137926666D01*
X195539952Y-138021904D01*
X195587571Y-138117142D01*
X196301856Y-136593333D02*
X196301856Y-137164761D01*
X196301856Y-136879047D02*
X195301856Y-136879047D01*
X195444714Y-136974285D01*
X195539952Y-137069523D01*
X195587571Y-137164761D01*
X195301856Y-136260000D02*
X195301856Y-135640952D01*
X195682809Y-135974285D01*
X195682809Y-135831428D01*
X195730428Y-135736190D01*
X195778047Y-135688571D01*
X195873285Y-135640952D01*
X196111380Y-135640952D01*
X196206618Y-135688571D01*
X196254237Y-135736190D01*
X196301856Y-135831428D01*
X196301856Y-136117142D01*
X196254237Y-136212380D01*
X196206618Y-136260000D01*
X182500000Y-138880952D02*
X182452380Y-138976190D01*
X182452380Y-139119047D01*
X182500000Y-139261904D01*
X182595238Y-139357142D01*
X182690476Y-139404761D01*
X182880952Y-139452380D01*
X183023809Y-139452380D01*
X183214285Y-139404761D01*
X183309523Y-139357142D01*
X183404761Y-139261904D01*
X183452380Y-139119047D01*
X183452380Y-139023809D01*
X183404761Y-138880952D01*
X183357142Y-138833333D01*
X183023809Y-138833333D01*
X183023809Y-139023809D01*
X183452380Y-137976190D02*
X182928571Y-137976190D01*
X182833333Y-138023809D01*
X182785714Y-138119047D01*
X182785714Y-138309523D01*
X182833333Y-138404761D01*
X183404761Y-137976190D02*
X183452380Y-138071428D01*
X183452380Y-138309523D01*
X183404761Y-138404761D01*
X183309523Y-138452380D01*
X183214285Y-138452380D01*
X183119047Y-138404761D01*
X183071428Y-138309523D01*
X183071428Y-138071428D01*
X183023809Y-137976190D01*
X182785714Y-137642857D02*
X182785714Y-137261904D01*
X182452380Y-137500000D02*
X183309523Y-137500000D01*
X183404761Y-137452380D01*
X183452380Y-137357142D01*
X183452380Y-137261904D01*
X183404761Y-136547619D02*
X183452380Y-136642857D01*
X183452380Y-136833333D01*
X183404761Y-136928571D01*
X183309523Y-136976190D01*
X182928571Y-136976190D01*
X182833333Y-136928571D01*
X182785714Y-136833333D01*
X182785714Y-136642857D01*
X182833333Y-136547619D01*
X182928571Y-136500000D01*
X183023809Y-136500000D01*
X183119047Y-136976190D01*
X182785714Y-135642857D02*
X183452380Y-135642857D01*
X182404761Y-135880952D02*
X183119047Y-136119047D01*
X183119047Y-135500000D01*
X192302571Y-134460000D02*
X192207333Y-134412380D01*
X192064476Y-134412380D01*
X191921618Y-134460000D01*
X191826380Y-134555238D01*
X191778761Y-134650476D01*
X191731142Y-134840952D01*
X191731142Y-134983809D01*
X191778761Y-135174285D01*
X191826380Y-135269523D01*
X191921618Y-135364761D01*
X192064476Y-135412380D01*
X192159714Y-135412380D01*
X192302571Y-135364761D01*
X192350190Y-135317142D01*
X192350190Y-134983809D01*
X192159714Y-134983809D01*
X192778761Y-135412380D02*
X192778761Y-134412380D01*
X193350190Y-135412380D01*
X193350190Y-134412380D01*
X193826380Y-135412380D02*
X193826380Y-134412380D01*
X194064476Y-134412380D01*
X194207333Y-134460000D01*
X194302571Y-134555238D01*
X194350190Y-134650476D01*
X194397809Y-134840952D01*
X194397809Y-134983809D01*
X194350190Y-135174285D01*
X194302571Y-135269523D01*
X194207333Y-135364761D01*
X194064476Y-135412380D01*
X193826380Y-135412380D01*
X197183999Y-135412380D02*
X196707809Y-135412380D01*
X196707809Y-134412380D01*
X197183999Y-140492380D02*
X196707809Y-140492380D01*
X196707809Y-139492380D01*
X193373999Y-140492380D02*
X193040666Y-140016190D01*
X192802571Y-140492380D02*
X192802571Y-139492380D01*
X193183523Y-139492380D01*
X193278761Y-139540000D01*
X193326380Y-139587619D01*
X193373999Y-139682857D01*
X193373999Y-139825714D01*
X193326380Y-139920952D01*
X193278761Y-139968571D01*
X193183523Y-140016190D01*
X192802571Y-140016190D01*
X194567380Y-55635714D02*
X195281666Y-55635714D01*
X195424523Y-55683333D01*
X195519761Y-55778571D01*
X195567380Y-55921428D01*
X195567380Y-56016666D01*
X195567380Y-54635714D02*
X195567380Y-55207142D01*
X195567380Y-54921428D02*
X194567380Y-54921428D01*
X194710238Y-55016666D01*
X194805476Y-55111904D01*
X194853095Y-55207142D01*
X194567380Y-54016666D02*
X194567380Y-53921428D01*
X194615000Y-53826190D01*
X194662619Y-53778571D01*
X194757857Y-53730952D01*
X194948333Y-53683333D01*
X195186428Y-53683333D01*
X195376904Y-53730952D01*
X195472142Y-53778571D01*
X195519761Y-53826190D01*
X195567380Y-53921428D01*
X195567380Y-54016666D01*
X195519761Y-54111904D01*
X195472142Y-54159523D01*
X195376904Y-54207142D01*
X195186428Y-54254761D01*
X194948333Y-54254761D01*
X194757857Y-54207142D01*
X194662619Y-54159523D01*
X194615000Y-54111904D01*
X194567380Y-54016666D01*
X194995952Y-53111904D02*
X194948333Y-53207142D01*
X194900714Y-53254761D01*
X194805476Y-53302380D01*
X194757857Y-53302380D01*
X194662619Y-53254761D01*
X194615000Y-53207142D01*
X194567380Y-53111904D01*
X194567380Y-52921428D01*
X194615000Y-52826190D01*
X194662619Y-52778571D01*
X194757857Y-52730952D01*
X194805476Y-52730952D01*
X194900714Y-52778571D01*
X194948333Y-52826190D01*
X194995952Y-52921428D01*
X194995952Y-53111904D01*
X195043571Y-53207142D01*
X195091190Y-53254761D01*
X195186428Y-53302380D01*
X195376904Y-53302380D01*
X195472142Y-53254761D01*
X195519761Y-53207142D01*
X195567380Y-53111904D01*
X195567380Y-52921428D01*
X195519761Y-52826190D01*
X195472142Y-52778571D01*
X195376904Y-52730952D01*
X195186428Y-52730952D01*
X195091190Y-52778571D01*
X195043571Y-52826190D01*
X194995952Y-52921428D01*
X188357142Y-55416666D02*
X188404761Y-55464285D01*
X188452380Y-55607142D01*
X188452380Y-55702380D01*
X188404761Y-55845238D01*
X188309523Y-55940476D01*
X188214285Y-55988095D01*
X188023809Y-56035714D01*
X187880952Y-56035714D01*
X187690476Y-55988095D01*
X187595238Y-55940476D01*
X187500000Y-55845238D01*
X187452380Y-55702380D01*
X187452380Y-55607142D01*
X187500000Y-55464285D01*
X187547619Y-55416666D01*
X187452380Y-55130952D02*
X188452380Y-54797619D01*
X187452380Y-54464285D01*
X187452380Y-53702380D02*
X187452380Y-53892857D01*
X187500000Y-53988095D01*
X187547619Y-54035714D01*
X187690476Y-54130952D01*
X187880952Y-54178571D01*
X188261904Y-54178571D01*
X188357142Y-54130952D01*
X188404761Y-54083333D01*
X188452380Y-53988095D01*
X188452380Y-53797619D01*
X188404761Y-53702380D01*
X188357142Y-53654761D01*
X188261904Y-53607142D01*
X188023809Y-53607142D01*
X187928571Y-53654761D01*
X187880952Y-53702380D01*
X187833333Y-53797619D01*
X187833333Y-53988095D01*
X187880952Y-54083333D01*
X187928571Y-54130952D01*
X188023809Y-54178571D01*
X188452380Y-52416666D02*
X187785714Y-52416666D01*
X187452380Y-52416666D02*
X187500000Y-52464285D01*
X187547619Y-52416666D01*
X187500000Y-52369047D01*
X187452380Y-52416666D01*
X187547619Y-52416666D01*
X187785714Y-51940476D02*
X188452380Y-51940476D01*
X187880952Y-51940476D02*
X187833333Y-51892857D01*
X187785714Y-51797619D01*
X187785714Y-51654761D01*
X187833333Y-51559523D01*
X187928571Y-51511904D01*
X188452380Y-51511904D01*
X191968095Y-51460000D02*
X191872857Y-51412380D01*
X191730000Y-51412380D01*
X191587142Y-51460000D01*
X191491904Y-51555238D01*
X191444285Y-51650476D01*
X191396666Y-51840952D01*
X191396666Y-51983809D01*
X191444285Y-52174285D01*
X191491904Y-52269523D01*
X191587142Y-52364761D01*
X191730000Y-52412380D01*
X191825238Y-52412380D01*
X191968095Y-52364761D01*
X192015714Y-52317142D01*
X192015714Y-51983809D01*
X191825238Y-51983809D01*
X192444285Y-52412380D02*
X192444285Y-51412380D01*
X193015714Y-52412380D01*
X193015714Y-51412380D01*
X193491904Y-52412380D02*
X193491904Y-51412380D01*
X193730000Y-51412380D01*
X193872857Y-51460000D01*
X193968095Y-51555238D01*
X194015714Y-51650476D01*
X194063333Y-51840952D01*
X194063333Y-51983809D01*
X194015714Y-52174285D01*
X193968095Y-52269523D01*
X193872857Y-52364761D01*
X193730000Y-52412380D01*
X193491904Y-52412380D01*
X196849523Y-52412380D02*
X196373333Y-52412380D01*
X196373333Y-51412380D01*
X196849523Y-57492380D02*
X196373333Y-57492380D01*
X196373333Y-56492380D01*
X193039523Y-57492380D02*
X192706190Y-57016190D01*
X192468095Y-57492380D02*
X192468095Y-56492380D01*
X192849047Y-56492380D01*
X192944285Y-56540000D01*
X192991904Y-56587619D01*
X193039523Y-56682857D01*
X193039523Y-56825714D01*
X192991904Y-56920952D01*
X192944285Y-56968571D01*
X192849047Y-57016190D01*
X192468095Y-57016190D01*
X193323672Y-77343290D02*
X194037958Y-77343290D01*
X194180815Y-77390909D01*
X194276053Y-77486147D01*
X194323672Y-77629004D01*
X194323672Y-77724242D01*
X194323672Y-76343290D02*
X194323672Y-76914718D01*
X194323672Y-76629004D02*
X193323672Y-76629004D01*
X193466530Y-76724242D01*
X193561768Y-76819480D01*
X193609387Y-76914718D01*
X193323672Y-75724242D02*
X193323672Y-75629004D01*
X193371292Y-75533766D01*
X193418911Y-75486147D01*
X193514149Y-75438528D01*
X193704625Y-75390909D01*
X193942720Y-75390909D01*
X194133196Y-75438528D01*
X194228434Y-75486147D01*
X194276053Y-75533766D01*
X194323672Y-75629004D01*
X194323672Y-75724242D01*
X194276053Y-75819480D01*
X194228434Y-75867099D01*
X194133196Y-75914718D01*
X193942720Y-75962337D01*
X193704625Y-75962337D01*
X193514149Y-75914718D01*
X193418911Y-75867099D01*
X193371292Y-75819480D01*
X193323672Y-75724242D01*
X193323672Y-74486147D02*
X193323672Y-74962337D01*
X193799863Y-75009956D01*
X193752244Y-74962337D01*
X193704625Y-74867099D01*
X193704625Y-74629004D01*
X193752244Y-74533766D01*
X193799863Y-74486147D01*
X193895101Y-74438528D01*
X194133196Y-74438528D01*
X194228434Y-74486147D01*
X194276053Y-74533766D01*
X194323672Y-74629004D01*
X194323672Y-74867099D01*
X194276053Y-74962337D01*
X194228434Y-75009956D01*
X188357142Y-79166666D02*
X188404761Y-79214285D01*
X188452380Y-79357142D01*
X188452380Y-79452380D01*
X188404761Y-79595238D01*
X188309523Y-79690476D01*
X188214285Y-79738095D01*
X188023809Y-79785714D01*
X187880952Y-79785714D01*
X187690476Y-79738095D01*
X187595238Y-79690476D01*
X187500000Y-79595238D01*
X187452380Y-79452380D01*
X187452380Y-79357142D01*
X187500000Y-79214285D01*
X187547619Y-79166666D01*
X187452380Y-78880952D02*
X188452380Y-78547619D01*
X187452380Y-78214285D01*
X187452380Y-77976190D02*
X187452380Y-77309523D01*
X188452380Y-77738095D01*
X188452380Y-76166666D02*
X187785714Y-76166666D01*
X187452380Y-76166666D02*
X187500000Y-76214285D01*
X187547619Y-76166666D01*
X187500000Y-76119047D01*
X187452380Y-76166666D01*
X187547619Y-76166666D01*
X187785714Y-75690476D02*
X188452380Y-75690476D01*
X187880952Y-75690476D02*
X187833333Y-75642857D01*
X187785714Y-75547619D01*
X187785714Y-75404761D01*
X187833333Y-75309523D01*
X187928571Y-75261904D01*
X188452380Y-75261904D01*
X191968095Y-72960000D02*
X191872857Y-72912380D01*
X191730000Y-72912380D01*
X191587142Y-72960000D01*
X191491904Y-73055238D01*
X191444285Y-73150476D01*
X191396666Y-73340952D01*
X191396666Y-73483809D01*
X191444285Y-73674285D01*
X191491904Y-73769523D01*
X191587142Y-73864761D01*
X191730000Y-73912380D01*
X191825238Y-73912380D01*
X191968095Y-73864761D01*
X192015714Y-73817142D01*
X192015714Y-73483809D01*
X191825238Y-73483809D01*
X192444285Y-73912380D02*
X192444285Y-72912380D01*
X193015714Y-73912380D01*
X193015714Y-72912380D01*
X193491904Y-73912380D02*
X193491904Y-72912380D01*
X193730000Y-72912380D01*
X193872857Y-72960000D01*
X193968095Y-73055238D01*
X194015714Y-73150476D01*
X194063333Y-73340952D01*
X194063333Y-73483809D01*
X194015714Y-73674285D01*
X193968095Y-73769523D01*
X193872857Y-73864761D01*
X193730000Y-73912380D01*
X193491904Y-73912380D01*
X196849523Y-73912380D02*
X196373333Y-73912380D01*
X196373333Y-72912380D01*
X196849523Y-78992380D02*
X196373333Y-78992380D01*
X196373333Y-77992380D01*
X193039523Y-78992380D02*
X192706190Y-78516190D01*
X192468095Y-78992380D02*
X192468095Y-77992380D01*
X192849047Y-77992380D01*
X192944285Y-78040000D01*
X192991904Y-78087619D01*
X193039523Y-78182857D01*
X193039523Y-78325714D01*
X192991904Y-78420952D01*
X192944285Y-78468571D01*
X192849047Y-78516190D01*
X192468095Y-78516190D01*
X141107142Y-135369047D02*
X141154761Y-135416666D01*
X141202380Y-135559523D01*
X141202380Y-135654761D01*
X141154761Y-135797619D01*
X141059523Y-135892857D01*
X140964285Y-135940476D01*
X140773809Y-135988095D01*
X140630952Y-135988095D01*
X140440476Y-135940476D01*
X140345238Y-135892857D01*
X140250000Y-135797619D01*
X140202380Y-135654761D01*
X140202380Y-135559523D01*
X140250000Y-135416666D01*
X140297619Y-135369047D01*
X141202380Y-134416666D02*
X141202380Y-134988095D01*
X141202380Y-134702380D02*
X140202380Y-134702380D01*
X140345238Y-134797619D01*
X140440476Y-134892857D01*
X140488095Y-134988095D01*
X140202380Y-133797619D02*
X140202380Y-133702380D01*
X140250000Y-133607142D01*
X140297619Y-133559523D01*
X140392857Y-133511904D01*
X140583333Y-133464285D01*
X140821428Y-133464285D01*
X141011904Y-133511904D01*
X141107142Y-133559523D01*
X141154761Y-133607142D01*
X141202380Y-133702380D01*
X141202380Y-133797619D01*
X141154761Y-133892857D01*
X141107142Y-133940476D01*
X141011904Y-133988095D01*
X140821428Y-134035714D01*
X140583333Y-134035714D01*
X140392857Y-133988095D01*
X140297619Y-133940476D01*
X140250000Y-133892857D01*
X140202380Y-133797619D01*
X141202380Y-132511904D02*
X141202380Y-133083333D01*
X141202380Y-132797619D02*
X140202380Y-132797619D01*
X140345238Y-132892857D01*
X140440476Y-132988095D01*
X140488095Y-133083333D01*
X173710714Y-88667380D02*
X173710714Y-89476904D01*
X173758333Y-89572142D01*
X173805952Y-89619761D01*
X173901190Y-89667380D01*
X174091666Y-89667380D01*
X174186904Y-89619761D01*
X174234523Y-89572142D01*
X174282142Y-89476904D01*
X174282142Y-88667380D01*
X175282142Y-89667380D02*
X174710714Y-89667380D01*
X174996428Y-89667380D02*
X174996428Y-88667380D01*
X174901190Y-88810238D01*
X174805952Y-88905476D01*
X174710714Y-88953095D01*
X175901190Y-88667380D02*
X175996428Y-88667380D01*
X176091666Y-88715000D01*
X176139285Y-88762619D01*
X176186904Y-88857857D01*
X176234523Y-89048333D01*
X176234523Y-89286428D01*
X176186904Y-89476904D01*
X176139285Y-89572142D01*
X176091666Y-89619761D01*
X175996428Y-89667380D01*
X175901190Y-89667380D01*
X175805952Y-89619761D01*
X175758333Y-89572142D01*
X175710714Y-89476904D01*
X175663095Y-89286428D01*
X175663095Y-89048333D01*
X175710714Y-88857857D01*
X175758333Y-88762619D01*
X175805952Y-88715000D01*
X175901190Y-88667380D01*
X176567857Y-88667380D02*
X177186904Y-88667380D01*
X176853571Y-89048333D01*
X176996428Y-89048333D01*
X177091666Y-89095952D01*
X177139285Y-89143571D01*
X177186904Y-89238809D01*
X177186904Y-89476904D01*
X177139285Y-89572142D01*
X177091666Y-89619761D01*
X176996428Y-89667380D01*
X176710714Y-89667380D01*
X176615476Y-89619761D01*
X176567857Y-89572142D01*
X173377380Y-81943571D02*
X173710714Y-81943571D01*
X173853571Y-82467380D02*
X173377380Y-82467380D01*
X173377380Y-81467380D01*
X173853571Y-81467380D01*
X174758333Y-82467380D02*
X174282142Y-82467380D01*
X174282142Y-81467380D01*
X175234523Y-81895952D02*
X175139285Y-81848333D01*
X175091666Y-81800714D01*
X175044047Y-81705476D01*
X175044047Y-81657857D01*
X175091666Y-81562619D01*
X175139285Y-81515000D01*
X175234523Y-81467380D01*
X175425000Y-81467380D01*
X175520238Y-81515000D01*
X175567857Y-81562619D01*
X175615476Y-81657857D01*
X175615476Y-81705476D01*
X175567857Y-81800714D01*
X175520238Y-81848333D01*
X175425000Y-81895952D01*
X175234523Y-81895952D01*
X175139285Y-81943571D01*
X175091666Y-81991190D01*
X175044047Y-82086428D01*
X175044047Y-82276904D01*
X175091666Y-82372142D01*
X175139285Y-82419761D01*
X175234523Y-82467380D01*
X175425000Y-82467380D01*
X175520238Y-82419761D01*
X175567857Y-82372142D01*
X175615476Y-82276904D01*
X175615476Y-82086428D01*
X175567857Y-81991190D01*
X175520238Y-81943571D01*
X175425000Y-81895952D01*
X176567857Y-82467380D02*
X175996428Y-82467380D01*
X176282142Y-82467380D02*
X176282142Y-81467380D01*
X176186904Y-81610238D01*
X176091666Y-81705476D01*
X175996428Y-81753095D01*
X177425000Y-81800714D02*
X177425000Y-82467380D01*
X177186904Y-81419761D02*
X176948809Y-82134047D01*
X177567857Y-82134047D01*
X177130952Y-75857142D02*
X177083333Y-75904761D01*
X176940476Y-75952380D01*
X176845238Y-75952380D01*
X176702380Y-75904761D01*
X176607142Y-75809523D01*
X176559523Y-75714285D01*
X176511904Y-75523809D01*
X176511904Y-75380952D01*
X176559523Y-75190476D01*
X176607142Y-75095238D01*
X176702380Y-75000000D01*
X176845238Y-74952380D01*
X176940476Y-74952380D01*
X177083333Y-75000000D01*
X177130952Y-75047619D01*
X178083333Y-75952380D02*
X177511904Y-75952380D01*
X177797619Y-75952380D02*
X177797619Y-74952380D01*
X177702380Y-75095238D01*
X177607142Y-75190476D01*
X177511904Y-75238095D01*
X178702380Y-74952380D02*
X178797619Y-74952380D01*
X178892857Y-75000000D01*
X178940476Y-75047619D01*
X178988095Y-75142857D01*
X179035714Y-75333333D01*
X179035714Y-75571428D01*
X178988095Y-75761904D01*
X178940476Y-75857142D01*
X178892857Y-75904761D01*
X178797619Y-75952380D01*
X178702380Y-75952380D01*
X178607142Y-75904761D01*
X178559523Y-75857142D01*
X178511904Y-75761904D01*
X178464285Y-75571428D01*
X178464285Y-75333333D01*
X178511904Y-75142857D01*
X178559523Y-75047619D01*
X178607142Y-75000000D01*
X178702380Y-74952380D01*
X179892857Y-74952380D02*
X179702380Y-74952380D01*
X179607142Y-75000000D01*
X179559523Y-75047619D01*
X179464285Y-75190476D01*
X179416666Y-75380952D01*
X179416666Y-75761904D01*
X179464285Y-75857142D01*
X179511904Y-75904761D01*
X179607142Y-75952380D01*
X179797619Y-75952380D01*
X179892857Y-75904761D01*
X179940476Y-75857142D01*
X179988095Y-75761904D01*
X179988095Y-75523809D01*
X179940476Y-75428571D01*
X179892857Y-75380952D01*
X179797619Y-75333333D01*
X179607142Y-75333333D01*
X179511904Y-75380952D01*
X179464285Y-75428571D01*
X179416666Y-75523809D01*
X177130952Y-57357142D02*
X177083333Y-57404761D01*
X176940476Y-57452380D01*
X176845238Y-57452380D01*
X176702380Y-57404761D01*
X176607142Y-57309523D01*
X176559523Y-57214285D01*
X176511904Y-57023809D01*
X176511904Y-56880952D01*
X176559523Y-56690476D01*
X176607142Y-56595238D01*
X176702380Y-56500000D01*
X176845238Y-56452380D01*
X176940476Y-56452380D01*
X177083333Y-56500000D01*
X177130952Y-56547619D01*
X178083333Y-57452380D02*
X177511904Y-57452380D01*
X177797619Y-57452380D02*
X177797619Y-56452380D01*
X177702380Y-56595238D01*
X177607142Y-56690476D01*
X177511904Y-56738095D01*
X179035714Y-57452380D02*
X178464285Y-57452380D01*
X178750000Y-57452380D02*
X178750000Y-56452380D01*
X178654761Y-56595238D01*
X178559523Y-56690476D01*
X178464285Y-56738095D01*
X179654761Y-56452380D02*
X179750000Y-56452380D01*
X179845238Y-56500000D01*
X179892857Y-56547619D01*
X179940476Y-56642857D01*
X179988095Y-56833333D01*
X179988095Y-57071428D01*
X179940476Y-57261904D01*
X179892857Y-57357142D01*
X179845238Y-57404761D01*
X179750000Y-57452380D01*
X179654761Y-57452380D01*
X179559523Y-57404761D01*
X179511904Y-57357142D01*
X179464285Y-57261904D01*
X179416666Y-57071428D01*
X179416666Y-56833333D01*
X179464285Y-56642857D01*
X179511904Y-56547619D01*
X179559523Y-56500000D01*
X179654761Y-56452380D01*
X146714285Y-50452380D02*
X146714285Y-51166666D01*
X146666666Y-51309523D01*
X146571428Y-51404761D01*
X146428571Y-51452380D01*
X146333333Y-51452380D01*
X147714285Y-51452380D02*
X147142857Y-51452380D01*
X147428571Y-51452380D02*
X147428571Y-50452380D01*
X147333333Y-50595238D01*
X147238095Y-50690476D01*
X147142857Y-50738095D01*
X148333333Y-50452380D02*
X148428571Y-50452380D01*
X148523809Y-50500000D01*
X148571428Y-50547619D01*
X148619047Y-50642857D01*
X148666666Y-50833333D01*
X148666666Y-51071428D01*
X148619047Y-51261904D01*
X148571428Y-51357142D01*
X148523809Y-51404761D01*
X148428571Y-51452380D01*
X148333333Y-51452380D01*
X148238095Y-51404761D01*
X148190476Y-51357142D01*
X148142857Y-51261904D01*
X148095238Y-51071428D01*
X148095238Y-50833333D01*
X148142857Y-50642857D01*
X148190476Y-50547619D01*
X148238095Y-50500000D01*
X148333333Y-50452380D01*
X149619047Y-51452380D02*
X149047619Y-51452380D01*
X149333333Y-51452380D02*
X149333333Y-50452380D01*
X149238095Y-50595238D01*
X149142857Y-50690476D01*
X149047619Y-50738095D01*
X140452380Y-65690476D02*
X139452380Y-65690476D01*
X139452380Y-65452380D01*
X139500000Y-65309523D01*
X139595238Y-65214285D01*
X139690476Y-65166666D01*
X139880952Y-65119047D01*
X140023809Y-65119047D01*
X140214285Y-65166666D01*
X140309523Y-65214285D01*
X140404761Y-65309523D01*
X140452380Y-65452380D01*
X140452380Y-65690476D01*
X140452380Y-64547619D02*
X140404761Y-64642857D01*
X140357142Y-64690476D01*
X140261904Y-64738095D01*
X139976190Y-64738095D01*
X139880952Y-64690476D01*
X139833333Y-64642857D01*
X139785714Y-64547619D01*
X139785714Y-64404761D01*
X139833333Y-64309523D01*
X139880952Y-64261904D01*
X139976190Y-64214285D01*
X140261904Y-64214285D01*
X140357142Y-64261904D01*
X140404761Y-64309523D01*
X140452380Y-64404761D01*
X140452380Y-64547619D01*
X140404761Y-63404761D02*
X140452380Y-63500000D01*
X140452380Y-63690476D01*
X140404761Y-63785714D01*
X140309523Y-63833333D01*
X139928571Y-63833333D01*
X139833333Y-63785714D01*
X139785714Y-63690476D01*
X139785714Y-63500000D01*
X139833333Y-63404761D01*
X139928571Y-63357142D01*
X140023809Y-63357142D01*
X140119047Y-63833333D01*
X139785714Y-62928571D02*
X140785714Y-62928571D01*
X139833333Y-62928571D02*
X139785714Y-62833333D01*
X139785714Y-62642857D01*
X139833333Y-62547619D01*
X139880952Y-62500000D01*
X139976190Y-62452380D01*
X140261904Y-62452380D01*
X140357142Y-62500000D01*
X140404761Y-62547619D01*
X140452380Y-62642857D01*
X140452380Y-62833333D01*
X140404761Y-62928571D01*
X139785714Y-62166666D02*
X139785714Y-61785714D01*
X140452380Y-62023809D02*
X139595238Y-62023809D01*
X139500000Y-61976190D01*
X139452380Y-61880952D01*
X139452380Y-61785714D01*
X140404761Y-61071428D02*
X140452380Y-61166666D01*
X140452380Y-61357142D01*
X140404761Y-61452380D01*
X140309523Y-61500000D01*
X139928571Y-61500000D01*
X139833333Y-61452380D01*
X139785714Y-61357142D01*
X139785714Y-61166666D01*
X139833333Y-61071428D01*
X139928571Y-61023809D01*
X140023809Y-61023809D01*
X140119047Y-61500000D01*
X140452380Y-60595238D02*
X139785714Y-60595238D01*
X139976190Y-60595238D02*
X139880952Y-60547619D01*
X139833333Y-60500000D01*
X139785714Y-60404761D01*
X139785714Y-60309523D01*
X140404761Y-58785714D02*
X140452380Y-58880952D01*
X140452380Y-59071428D01*
X140404761Y-59166666D01*
X140357142Y-59214285D01*
X140261904Y-59261904D01*
X139976190Y-59261904D01*
X139880952Y-59214285D01*
X139833333Y-59166666D01*
X139785714Y-59071428D01*
X139785714Y-58880952D01*
X139833333Y-58785714D01*
X140452380Y-58214285D02*
X140404761Y-58309523D01*
X140357142Y-58357142D01*
X140261904Y-58404761D01*
X139976190Y-58404761D01*
X139880952Y-58357142D01*
X139833333Y-58309523D01*
X139785714Y-58214285D01*
X139785714Y-58071428D01*
X139833333Y-57976190D01*
X139880952Y-57928571D01*
X139976190Y-57880952D01*
X140261904Y-57880952D01*
X140357142Y-57928571D01*
X140404761Y-57976190D01*
X140452380Y-58071428D01*
X140452380Y-58214285D01*
X139785714Y-57452380D02*
X140452380Y-57452380D01*
X139880952Y-57452380D02*
X139833333Y-57404761D01*
X139785714Y-57309523D01*
X139785714Y-57166666D01*
X139833333Y-57071428D01*
X139928571Y-57023809D01*
X140452380Y-57023809D01*
X139785714Y-56547619D02*
X140452380Y-56547619D01*
X139880952Y-56547619D02*
X139833333Y-56500000D01*
X139785714Y-56404761D01*
X139785714Y-56261904D01*
X139833333Y-56166666D01*
X139928571Y-56119047D01*
X140452380Y-56119047D01*
X140404761Y-55261904D02*
X140452380Y-55357142D01*
X140452380Y-55547619D01*
X140404761Y-55642857D01*
X140309523Y-55690476D01*
X139928571Y-55690476D01*
X139833333Y-55642857D01*
X139785714Y-55547619D01*
X139785714Y-55357142D01*
X139833333Y-55261904D01*
X139928571Y-55214285D01*
X140023809Y-55214285D01*
X140119047Y-55690476D01*
X140404761Y-54357142D02*
X140452380Y-54452380D01*
X140452380Y-54642857D01*
X140404761Y-54738095D01*
X140357142Y-54785714D01*
X140261904Y-54833333D01*
X139976190Y-54833333D01*
X139880952Y-54785714D01*
X139833333Y-54738095D01*
X139785714Y-54642857D01*
X139785714Y-54452380D01*
X139833333Y-54357142D01*
X139785714Y-54071428D02*
X139785714Y-53690476D01*
X139452380Y-53928571D02*
X140309523Y-53928571D01*
X140404761Y-53880952D01*
X140452380Y-53785714D01*
X140452380Y-53690476D01*
X140452380Y-53214285D02*
X140404761Y-53309523D01*
X140357142Y-53357142D01*
X140261904Y-53404761D01*
X139976190Y-53404761D01*
X139880952Y-53357142D01*
X139833333Y-53309523D01*
X139785714Y-53214285D01*
X139785714Y-53071428D01*
X139833333Y-52976190D01*
X139880952Y-52928571D01*
X139976190Y-52880952D01*
X140261904Y-52880952D01*
X140357142Y-52928571D01*
X140404761Y-52976190D01*
X140452380Y-53071428D01*
X140452380Y-53214285D01*
X140452380Y-52452380D02*
X139785714Y-52452380D01*
X139976190Y-52452380D02*
X139880952Y-52404761D01*
X139833333Y-52357142D01*
X139785714Y-52261904D01*
X139785714Y-52166666D01*
X153752380Y-144285714D02*
X154466666Y-144285714D01*
X154609523Y-144333333D01*
X154704761Y-144428571D01*
X154752380Y-144571428D01*
X154752380Y-144666666D01*
X154752380Y-143285714D02*
X154752380Y-143857142D01*
X154752380Y-143571428D02*
X153752380Y-143571428D01*
X153895238Y-143666666D01*
X153990476Y-143761904D01*
X154038095Y-143857142D01*
X153752380Y-142666666D02*
X153752380Y-142571428D01*
X153800000Y-142476190D01*
X153847619Y-142428571D01*
X153942857Y-142380952D01*
X154133333Y-142333333D01*
X154371428Y-142333333D01*
X154561904Y-142380952D01*
X154657142Y-142428571D01*
X154704761Y-142476190D01*
X154752380Y-142571428D01*
X154752380Y-142666666D01*
X154704761Y-142761904D01*
X154657142Y-142809523D01*
X154561904Y-142857142D01*
X154371428Y-142904761D01*
X154133333Y-142904761D01*
X153942857Y-142857142D01*
X153847619Y-142809523D01*
X153800000Y-142761904D01*
X153752380Y-142666666D01*
X153847619Y-141952380D02*
X153800000Y-141904761D01*
X153752380Y-141809523D01*
X153752380Y-141571428D01*
X153800000Y-141476190D01*
X153847619Y-141428571D01*
X153942857Y-141380952D01*
X154038095Y-141380952D01*
X154180952Y-141428571D01*
X154752380Y-142000000D01*
X154752380Y-141380952D01*
D13*
X196368571Y-112863571D02*
X197440000Y-112863571D01*
X197654285Y-112935000D01*
X197797142Y-113077857D01*
X197868571Y-113292142D01*
X197868571Y-113435000D01*
X197868571Y-111363571D02*
X197868571Y-112220714D01*
X197868571Y-111792142D02*
X196368571Y-111792142D01*
X196582857Y-111935000D01*
X196725714Y-112077857D01*
X196797142Y-112220714D01*
X196368571Y-110435000D02*
X196368571Y-110292142D01*
X196440000Y-110149285D01*
X196511428Y-110077857D01*
X196654285Y-110006428D01*
X196940000Y-109935000D01*
X197297142Y-109935000D01*
X197582857Y-110006428D01*
X197725714Y-110077857D01*
X197797142Y-110149285D01*
X197868571Y-110292142D01*
X197868571Y-110435000D01*
X197797142Y-110577857D01*
X197725714Y-110649285D01*
X197582857Y-110720714D01*
X197297142Y-110792142D01*
X196940000Y-110792142D01*
X196654285Y-110720714D01*
X196511428Y-110649285D01*
X196440000Y-110577857D01*
X196368571Y-110435000D01*
X196368571Y-109435000D02*
X196368571Y-108506428D01*
X196940000Y-109006428D01*
X196940000Y-108792142D01*
X197011428Y-108649285D01*
X197082857Y-108577857D01*
X197225714Y-108506428D01*
X197582857Y-108506428D01*
X197725714Y-108577857D01*
X197797142Y-108649285D01*
X197868571Y-108792142D01*
X197868571Y-109220714D01*
X197797142Y-109363571D01*
X197725714Y-109435000D01*
X179883571Y-114978571D02*
X178383571Y-114978571D01*
X179455000Y-114478571D01*
X178383571Y-113978571D01*
X179883571Y-113978571D01*
X179883571Y-113264285D02*
X178383571Y-113264285D01*
X179883571Y-112550000D02*
X178383571Y-112550000D01*
X178383571Y-112192857D01*
X178455000Y-111978571D01*
X178597857Y-111835714D01*
X178740714Y-111764285D01*
X179026428Y-111692857D01*
X179240714Y-111692857D01*
X179526428Y-111764285D01*
X179669285Y-111835714D01*
X179812142Y-111978571D01*
X179883571Y-112192857D01*
X179883571Y-112550000D01*
X179883571Y-111050000D02*
X178383571Y-111050000D01*
X178383571Y-108907142D02*
X178383571Y-108621428D01*
X178455000Y-108478571D01*
X178597857Y-108335714D01*
X178883571Y-108264285D01*
X179383571Y-108264285D01*
X179669285Y-108335714D01*
X179812142Y-108478571D01*
X179883571Y-108621428D01*
X179883571Y-108907142D01*
X179812142Y-109050000D01*
X179669285Y-109192857D01*
X179383571Y-109264285D01*
X178883571Y-109264285D01*
X178597857Y-109192857D01*
X178455000Y-109050000D01*
X178383571Y-108907142D01*
X178383571Y-107621428D02*
X179597857Y-107621428D01*
X179740714Y-107550000D01*
X179812142Y-107478571D01*
X179883571Y-107335714D01*
X179883571Y-107050000D01*
X179812142Y-106907142D01*
X179740714Y-106835714D01*
X179597857Y-106764285D01*
X178383571Y-106764285D01*
X178383571Y-106264285D02*
X178383571Y-105407142D01*
X179883571Y-105835714D02*
X178383571Y-105835714D01*
X196368571Y-91908571D02*
X197440000Y-91908571D01*
X197654285Y-91980000D01*
X197797142Y-92122857D01*
X197868571Y-92337142D01*
X197868571Y-92480000D01*
X197868571Y-90408571D02*
X197868571Y-91265714D01*
X197868571Y-90837142D02*
X196368571Y-90837142D01*
X196582857Y-90980000D01*
X196725714Y-91122857D01*
X196797142Y-91265714D01*
X196368571Y-89480000D02*
X196368571Y-89337142D01*
X196440000Y-89194285D01*
X196511428Y-89122857D01*
X196654285Y-89051428D01*
X196940000Y-88980000D01*
X197297142Y-88980000D01*
X197582857Y-89051428D01*
X197725714Y-89122857D01*
X197797142Y-89194285D01*
X197868571Y-89337142D01*
X197868571Y-89480000D01*
X197797142Y-89622857D01*
X197725714Y-89694285D01*
X197582857Y-89765714D01*
X197297142Y-89837142D01*
X196940000Y-89837142D01*
X196654285Y-89765714D01*
X196511428Y-89694285D01*
X196440000Y-89622857D01*
X196368571Y-89480000D01*
X196368571Y-88480000D02*
X196368571Y-87480000D01*
X197868571Y-88122857D01*
X179678571Y-96678571D02*
X178178571Y-96678571D01*
X179250000Y-96178571D01*
X178178571Y-95678571D01*
X179678571Y-95678571D01*
X179678571Y-94964285D02*
X178178571Y-94964285D01*
X179678571Y-94250000D02*
X178178571Y-94250000D01*
X178178571Y-93892857D01*
X178250000Y-93678571D01*
X178392857Y-93535714D01*
X178535714Y-93464285D01*
X178821428Y-93392857D01*
X179035714Y-93392857D01*
X179321428Y-93464285D01*
X179464285Y-93535714D01*
X179607142Y-93678571D01*
X179678571Y-93892857D01*
X179678571Y-94250000D01*
X179678571Y-92750000D02*
X178178571Y-92750000D01*
X179678571Y-90892857D02*
X178178571Y-90892857D01*
X179678571Y-90178571D02*
X178178571Y-90178571D01*
X179678571Y-89321428D01*
X178178571Y-89321428D01*
D15*
X175552380Y-98785714D02*
X176266666Y-98785714D01*
X176409523Y-98833333D01*
X176504761Y-98928571D01*
X176552380Y-99071428D01*
X176552380Y-99166666D01*
X176552380Y-98309523D02*
X175552380Y-98309523D01*
X175552380Y-97928571D01*
X175600000Y-97833333D01*
X175647619Y-97785714D01*
X175742857Y-97738095D01*
X175885714Y-97738095D01*
X175980952Y-97785714D01*
X176028571Y-97833333D01*
X176076190Y-97928571D01*
X176076190Y-98309523D01*
X176552380Y-96785714D02*
X176552380Y-97357142D01*
X176552380Y-97071428D02*
X175552380Y-97071428D01*
X175695238Y-97166666D01*
X175790476Y-97261904D01*
X175838095Y-97357142D01*
X175552380Y-96166666D02*
X175552380Y-96071428D01*
X175600000Y-95976190D01*
X175647619Y-95928571D01*
X175742857Y-95880952D01*
X175933333Y-95833333D01*
X176171428Y-95833333D01*
X176361904Y-95880952D01*
X176457142Y-95928571D01*
X176504761Y-95976190D01*
X176552380Y-96071428D01*
X176552380Y-96166666D01*
X176504761Y-96261904D01*
X176457142Y-96309523D01*
X176361904Y-96357142D01*
X176171428Y-96404761D01*
X175933333Y-96404761D01*
X175742857Y-96357142D01*
X175647619Y-96309523D01*
X175600000Y-96261904D01*
X175552380Y-96166666D01*
X175647619Y-95452380D02*
X175600000Y-95404761D01*
X175552380Y-95309523D01*
X175552380Y-95071428D01*
X175600000Y-94976190D01*
X175647619Y-94928571D01*
X175742857Y-94880952D01*
X175838095Y-94880952D01*
X175980952Y-94928571D01*
X176552380Y-95500000D01*
X176552380Y-94880952D01*
X167552380Y-97490476D02*
X167552380Y-96919047D01*
X168552380Y-97204761D02*
X167552380Y-97204761D01*
X168552380Y-96680952D02*
X167885714Y-96157142D01*
X167885714Y-96680952D02*
X168552380Y-96157142D01*
X175616062Y-95378569D02*
X176330348Y-95378569D01*
X176473205Y-95426188D01*
X176568443Y-95521426D01*
X176616062Y-95664283D01*
X176616062Y-95759521D01*
X176616062Y-94902378D02*
X175616062Y-94902378D01*
X175616062Y-94521426D01*
X175663682Y-94426188D01*
X175711301Y-94378569D01*
X175806539Y-94330950D01*
X175949396Y-94330950D01*
X176044634Y-94378569D01*
X176092253Y-94426188D01*
X176139872Y-94521426D01*
X176139872Y-94902378D01*
X176616062Y-93378569D02*
X176616062Y-93949997D01*
X176616062Y-93664283D02*
X175616062Y-93664283D01*
X175758920Y-93759521D01*
X175854158Y-93854759D01*
X175901777Y-93949997D01*
X175616062Y-92759521D02*
X175616062Y-92664283D01*
X175663682Y-92569045D01*
X175711301Y-92521426D01*
X175806539Y-92473807D01*
X175997015Y-92426188D01*
X176235110Y-92426188D01*
X176425586Y-92473807D01*
X176520824Y-92521426D01*
X176568443Y-92569045D01*
X176616062Y-92664283D01*
X176616062Y-92759521D01*
X176568443Y-92854759D01*
X176520824Y-92902378D01*
X176425586Y-92949997D01*
X176235110Y-92997616D01*
X175997015Y-92997616D01*
X175806539Y-92949997D01*
X175711301Y-92902378D01*
X175663682Y-92854759D01*
X175616062Y-92759521D01*
X175616062Y-92092855D02*
X175616062Y-91473807D01*
X175997015Y-91807140D01*
X175997015Y-91664283D01*
X176044634Y-91569045D01*
X176092253Y-91521426D01*
X176187491Y-91473807D01*
X176425586Y-91473807D01*
X176520824Y-91521426D01*
X176568443Y-91569045D01*
X176616062Y-91664283D01*
X176616062Y-91949997D01*
X176568443Y-92045235D01*
X176520824Y-92092855D01*
X168682380Y-93595238D02*
X168206190Y-93928571D01*
X168682380Y-94166666D02*
X167682380Y-94166666D01*
X167682380Y-93785714D01*
X167730000Y-93690476D01*
X167777619Y-93642857D01*
X167872857Y-93595238D01*
X168015714Y-93595238D01*
X168110952Y-93642857D01*
X168158571Y-93690476D01*
X168206190Y-93785714D01*
X168206190Y-94166666D01*
X168682380Y-93261904D02*
X168015714Y-92738095D01*
X168015714Y-93261904D02*
X168682380Y-92738095D01*
X176880952Y-57357142D02*
X176833333Y-57404761D01*
X176690476Y-57452380D01*
X176595238Y-57452380D01*
X176452380Y-57404761D01*
X176357142Y-57309523D01*
X176309523Y-57214285D01*
X176261904Y-57023809D01*
X176261904Y-56880952D01*
X176309523Y-56690476D01*
X176357142Y-56595238D01*
X176452380Y-56500000D01*
X176595238Y-56452380D01*
X176690476Y-56452380D01*
X176833333Y-56500000D01*
X176880952Y-56547619D01*
X177833333Y-57452380D02*
X177261904Y-57452380D01*
X177547619Y-57452380D02*
X177547619Y-56452380D01*
X177452380Y-56595238D01*
X177357142Y-56690476D01*
X177261904Y-56738095D01*
X178452380Y-56452380D02*
X178547619Y-56452380D01*
X178642857Y-56500000D01*
X178690476Y-56547619D01*
X178738095Y-56642857D01*
X178785714Y-56833333D01*
X178785714Y-57071428D01*
X178738095Y-57261904D01*
X178690476Y-57357142D01*
X178642857Y-57404761D01*
X178547619Y-57452380D01*
X178452380Y-57452380D01*
X178357142Y-57404761D01*
X178309523Y-57357142D01*
X178261904Y-57261904D01*
X178214285Y-57071428D01*
X178214285Y-56833333D01*
X178261904Y-56642857D01*
X178309523Y-56547619D01*
X178357142Y-56500000D01*
X178452380Y-56452380D01*
X179690476Y-56452380D02*
X179214285Y-56452380D01*
X179166666Y-56928571D01*
X179214285Y-56880952D01*
X179309523Y-56833333D01*
X179547619Y-56833333D01*
X179642857Y-56880952D01*
X179690476Y-56928571D01*
X179738095Y-57023809D01*
X179738095Y-57261904D01*
X179690476Y-57357142D01*
X179642857Y-57404761D01*
X179547619Y-57452380D01*
X179309523Y-57452380D01*
X179214285Y-57404761D01*
X179166666Y-57357142D01*
X165214285Y-51452380D02*
X165214285Y-52166666D01*
X165166666Y-52309523D01*
X165071428Y-52404761D01*
X164928571Y-52452380D01*
X164833333Y-52452380D01*
X166214285Y-52452380D02*
X165642857Y-52452380D01*
X165928571Y-52452380D02*
X165928571Y-51452380D01*
X165833333Y-51595238D01*
X165738095Y-51690476D01*
X165642857Y-51738095D01*
X166833333Y-51452380D02*
X166928571Y-51452380D01*
X167023809Y-51500000D01*
X167071428Y-51547619D01*
X167119047Y-51642857D01*
X167166666Y-51833333D01*
X167166666Y-52071428D01*
X167119047Y-52261904D01*
X167071428Y-52357142D01*
X167023809Y-52404761D01*
X166928571Y-52452380D01*
X166833333Y-52452380D01*
X166738095Y-52404761D01*
X166690476Y-52357142D01*
X166642857Y-52261904D01*
X166595238Y-52071428D01*
X166595238Y-51833333D01*
X166642857Y-51642857D01*
X166690476Y-51547619D01*
X166738095Y-51500000D01*
X166833333Y-51452380D01*
X168023809Y-51785714D02*
X168023809Y-52452380D01*
X167785714Y-51404761D02*
X167547619Y-52119047D01*
X168166666Y-52119047D01*
X166952380Y-78464285D02*
X165952380Y-78464285D01*
X165952380Y-78083333D01*
X166000000Y-77988095D01*
X166047619Y-77940476D01*
X166142857Y-77892857D01*
X166285714Y-77892857D01*
X166380952Y-77940476D01*
X166428571Y-77988095D01*
X166476190Y-78083333D01*
X166476190Y-78464285D01*
X166952380Y-77321428D02*
X166904761Y-77416666D01*
X166857142Y-77464285D01*
X166761904Y-77511904D01*
X166476190Y-77511904D01*
X166380952Y-77464285D01*
X166333333Y-77416666D01*
X166285714Y-77321428D01*
X166285714Y-77178571D01*
X166333333Y-77083333D01*
X166380952Y-77035714D01*
X166476190Y-76988095D01*
X166761904Y-76988095D01*
X166857142Y-77035714D01*
X166904761Y-77083333D01*
X166952380Y-77178571D01*
X166952380Y-77321428D01*
X166285714Y-76654761D02*
X166952380Y-76464285D01*
X166476190Y-76273809D01*
X166952380Y-76083333D01*
X166285714Y-75892857D01*
X166904761Y-75130952D02*
X166952380Y-75226190D01*
X166952380Y-75416666D01*
X166904761Y-75511904D01*
X166809523Y-75559523D01*
X166428571Y-75559523D01*
X166333333Y-75511904D01*
X166285714Y-75416666D01*
X166285714Y-75226190D01*
X166333333Y-75130952D01*
X166428571Y-75083333D01*
X166523809Y-75083333D01*
X166619047Y-75559523D01*
X166952380Y-74654761D02*
X166285714Y-74654761D01*
X166476190Y-74654761D02*
X166380952Y-74607142D01*
X166333333Y-74559523D01*
X166285714Y-74464285D01*
X166285714Y-74369047D01*
X166857142Y-72702380D02*
X166904761Y-72750000D01*
X166952380Y-72892857D01*
X166952380Y-72988095D01*
X166904761Y-73130952D01*
X166809523Y-73226190D01*
X166714285Y-73273809D01*
X166523809Y-73321428D01*
X166380952Y-73321428D01*
X166190476Y-73273809D01*
X166095238Y-73226190D01*
X166000000Y-73130952D01*
X165952380Y-72988095D01*
X165952380Y-72892857D01*
X166000000Y-72750000D01*
X166047619Y-72702380D01*
X166952380Y-72130952D02*
X166904761Y-72226190D01*
X166857142Y-72273809D01*
X166761904Y-72321428D01*
X166476190Y-72321428D01*
X166380952Y-72273809D01*
X166333333Y-72226190D01*
X166285714Y-72130952D01*
X166285714Y-71988095D01*
X166333333Y-71892857D01*
X166380952Y-71845238D01*
X166476190Y-71797619D01*
X166761904Y-71797619D01*
X166857142Y-71845238D01*
X166904761Y-71892857D01*
X166952380Y-71988095D01*
X166952380Y-72130952D01*
X166285714Y-71369047D02*
X166952380Y-71369047D01*
X166380952Y-71369047D02*
X166333333Y-71321428D01*
X166285714Y-71226190D01*
X166285714Y-71083333D01*
X166333333Y-70988095D01*
X166428571Y-70940476D01*
X166952380Y-70940476D01*
X166285714Y-70464285D02*
X166952380Y-70464285D01*
X166380952Y-70464285D02*
X166333333Y-70416666D01*
X166285714Y-70321428D01*
X166285714Y-70178571D01*
X166333333Y-70083333D01*
X166428571Y-70035714D01*
X166952380Y-70035714D01*
D19*
X114489285Y-115285714D02*
X115025000Y-115285714D01*
X115132142Y-115333333D01*
X115203571Y-115428571D01*
X115239285Y-115571428D01*
X115239285Y-115666666D01*
X115239285Y-114285714D02*
X115239285Y-114857142D01*
X115239285Y-114571428D02*
X114489285Y-114571428D01*
X114596428Y-114666666D01*
X114667857Y-114761904D01*
X114703571Y-114857142D01*
X114489285Y-113666666D02*
X114489285Y-113571428D01*
X114525000Y-113476190D01*
X114560714Y-113428571D01*
X114632142Y-113380952D01*
X114775000Y-113333333D01*
X114953571Y-113333333D01*
X115096428Y-113380952D01*
X115167857Y-113428571D01*
X115203571Y-113476190D01*
X115239285Y-113571428D01*
X115239285Y-113666666D01*
X115203571Y-113761904D01*
X115167857Y-113809523D01*
X115096428Y-113857142D01*
X114953571Y-113904761D01*
X114775000Y-113904761D01*
X114632142Y-113857142D01*
X114560714Y-113809523D01*
X114525000Y-113761904D01*
X114489285Y-113666666D01*
X114489285Y-112476190D02*
X114489285Y-112666666D01*
X114525000Y-112761904D01*
X114560714Y-112809523D01*
X114667857Y-112904761D01*
X114810714Y-112952380D01*
X115096428Y-112952380D01*
X115167857Y-112904761D01*
X115203571Y-112857142D01*
X115239285Y-112761904D01*
X115239285Y-112571428D01*
X115203571Y-112476190D01*
X115167857Y-112428571D01*
X115096428Y-112380952D01*
X114917857Y-112380952D01*
X114846428Y-112428571D01*
X114810714Y-112476190D01*
X114775000Y-112571428D01*
X114775000Y-112761904D01*
X114810714Y-112857142D01*
X114846428Y-112904761D01*
X114917857Y-112952380D01*
X114489285Y-124285714D02*
X115025000Y-124285714D01*
X115132142Y-124333333D01*
X115203571Y-124428571D01*
X115239285Y-124571428D01*
X115239285Y-124666666D01*
X115239285Y-123285714D02*
X115239285Y-123857142D01*
X115239285Y-123571428D02*
X114489285Y-123571428D01*
X114596428Y-123666666D01*
X114667857Y-123761904D01*
X114703571Y-123857142D01*
X115239285Y-122333333D02*
X115239285Y-122904761D01*
X115239285Y-122619047D02*
X114489285Y-122619047D01*
X114596428Y-122714285D01*
X114667857Y-122809523D01*
X114703571Y-122904761D01*
X114560714Y-121952380D02*
X114525000Y-121904761D01*
X114489285Y-121809523D01*
X114489285Y-121571428D01*
X114525000Y-121476190D01*
X114560714Y-121428571D01*
X114632142Y-121380952D01*
X114703571Y-121380952D01*
X114810714Y-121428571D01*
X115239285Y-122000000D01*
X115239285Y-121380952D01*
D15*
X115102380Y-145097619D02*
X114626190Y-145430952D01*
X115102380Y-145669047D02*
X114102380Y-145669047D01*
X114102380Y-145288095D01*
X114150000Y-145192857D01*
X114197619Y-145145238D01*
X114292857Y-145097619D01*
X114435714Y-145097619D01*
X114530952Y-145145238D01*
X114578571Y-145192857D01*
X114626190Y-145288095D01*
X114626190Y-145669047D01*
X114102380Y-144811904D02*
X115102380Y-144478571D01*
X114102380Y-144145238D01*
X115102380Y-143288095D02*
X115102380Y-143859523D01*
X115102380Y-143573809D02*
X114102380Y-143573809D01*
X114245238Y-143669047D01*
X114340476Y-143764285D01*
X114388095Y-143859523D01*
X114102380Y-142669047D02*
X114102380Y-142573809D01*
X114150000Y-142478571D01*
X114197619Y-142430952D01*
X114292857Y-142383333D01*
X114483333Y-142335714D01*
X114721428Y-142335714D01*
X114911904Y-142383333D01*
X115007142Y-142430952D01*
X115054761Y-142478571D01*
X115102380Y-142573809D01*
X115102380Y-142669047D01*
X115054761Y-142764285D01*
X115007142Y-142811904D01*
X114911904Y-142859523D01*
X114721428Y-142907142D01*
X114483333Y-142907142D01*
X114292857Y-142859523D01*
X114197619Y-142811904D01*
X114150000Y-142764285D01*
X114102380Y-142669047D01*
X115102380Y-141383333D02*
X115102380Y-141954761D01*
X115102380Y-141669047D02*
X114102380Y-141669047D01*
X114245238Y-141764285D01*
X114340476Y-141859523D01*
X114388095Y-141954761D01*
X115102380Y-60097619D02*
X114626190Y-60430952D01*
X115102380Y-60669047D02*
X114102380Y-60669047D01*
X114102380Y-60288095D01*
X114150000Y-60192857D01*
X114197619Y-60145238D01*
X114292857Y-60097619D01*
X114435714Y-60097619D01*
X114530952Y-60145238D01*
X114578571Y-60192857D01*
X114626190Y-60288095D01*
X114626190Y-60669047D01*
X114102380Y-59811904D02*
X115102380Y-59478571D01*
X114102380Y-59145238D01*
X115102380Y-58288095D02*
X115102380Y-58859523D01*
X115102380Y-58573809D02*
X114102380Y-58573809D01*
X114245238Y-58669047D01*
X114340476Y-58764285D01*
X114388095Y-58859523D01*
X114102380Y-57669047D02*
X114102380Y-57573809D01*
X114150000Y-57478571D01*
X114197619Y-57430952D01*
X114292857Y-57383333D01*
X114483333Y-57335714D01*
X114721428Y-57335714D01*
X114911904Y-57383333D01*
X115007142Y-57430952D01*
X115054761Y-57478571D01*
X115102380Y-57573809D01*
X115102380Y-57669047D01*
X115054761Y-57764285D01*
X115007142Y-57811904D01*
X114911904Y-57859523D01*
X114721428Y-57907142D01*
X114483333Y-57907142D01*
X114292857Y-57859523D01*
X114197619Y-57811904D01*
X114150000Y-57764285D01*
X114102380Y-57669047D01*
X114197619Y-56954761D02*
X114150000Y-56907142D01*
X114102380Y-56811904D01*
X114102380Y-56573809D01*
X114150000Y-56478571D01*
X114197619Y-56430952D01*
X114292857Y-56383333D01*
X114388095Y-56383333D01*
X114530952Y-56430952D01*
X115102380Y-57002380D01*
X115102380Y-56383333D01*
X117492380Y-79420476D02*
X116492380Y-79420476D01*
X116492380Y-79182380D01*
X116540000Y-79039523D01*
X116635238Y-78944285D01*
X116730476Y-78896666D01*
X116920952Y-78849047D01*
X117063809Y-78849047D01*
X117254285Y-78896666D01*
X117349523Y-78944285D01*
X117444761Y-79039523D01*
X117492380Y-79182380D01*
X117492380Y-79420476D01*
X117492380Y-77896666D02*
X117492380Y-78468095D01*
X117492380Y-78182380D02*
X116492380Y-78182380D01*
X116635238Y-78277619D01*
X116730476Y-78372857D01*
X116778095Y-78468095D01*
X116492380Y-77277619D02*
X116492380Y-77182380D01*
X116540000Y-77087142D01*
X116587619Y-77039523D01*
X116682857Y-76991904D01*
X116873333Y-76944285D01*
X117111428Y-76944285D01*
X117301904Y-76991904D01*
X117397142Y-77039523D01*
X117444761Y-77087142D01*
X117492380Y-77182380D01*
X117492380Y-77277619D01*
X117444761Y-77372857D01*
X117397142Y-77420476D01*
X117301904Y-77468095D01*
X117111428Y-77515714D01*
X116873333Y-77515714D01*
X116682857Y-77468095D01*
X116587619Y-77420476D01*
X116540000Y-77372857D01*
X116492380Y-77277619D01*
X116825714Y-76087142D02*
X117492380Y-76087142D01*
X116444761Y-76325238D02*
X117159047Y-76563333D01*
X117159047Y-75944285D01*
X122492380Y-79420476D02*
X121492380Y-79420476D01*
X121492380Y-79182380D01*
X121540000Y-79039523D01*
X121635238Y-78944285D01*
X121730476Y-78896666D01*
X121920952Y-78849047D01*
X122063809Y-78849047D01*
X122254285Y-78896666D01*
X122349523Y-78944285D01*
X122444761Y-79039523D01*
X122492380Y-79182380D01*
X122492380Y-79420476D01*
X122492380Y-77896666D02*
X122492380Y-78468095D01*
X122492380Y-78182380D02*
X121492380Y-78182380D01*
X121635238Y-78277619D01*
X121730476Y-78372857D01*
X121778095Y-78468095D01*
X121492380Y-77277619D02*
X121492380Y-77182380D01*
X121540000Y-77087142D01*
X121587619Y-77039523D01*
X121682857Y-76991904D01*
X121873333Y-76944285D01*
X122111428Y-76944285D01*
X122301904Y-76991904D01*
X122397142Y-77039523D01*
X122444761Y-77087142D01*
X122492380Y-77182380D01*
X122492380Y-77277619D01*
X122444761Y-77372857D01*
X122397142Y-77420476D01*
X122301904Y-77468095D01*
X122111428Y-77515714D01*
X121873333Y-77515714D01*
X121682857Y-77468095D01*
X121587619Y-77420476D01*
X121540000Y-77372857D01*
X121492380Y-77277619D01*
X121492380Y-76039523D02*
X121492380Y-76515714D01*
X121968571Y-76563333D01*
X121920952Y-76515714D01*
X121873333Y-76420476D01*
X121873333Y-76182380D01*
X121920952Y-76087142D01*
X121968571Y-76039523D01*
X122063809Y-75991904D01*
X122301904Y-75991904D01*
X122397142Y-76039523D01*
X122444761Y-76087142D01*
X122492380Y-76182380D01*
X122492380Y-76420476D01*
X122444761Y-76515714D01*
X122397142Y-76563333D01*
X127492380Y-79420476D02*
X126492380Y-79420476D01*
X126492380Y-79182380D01*
X126540000Y-79039523D01*
X126635238Y-78944285D01*
X126730476Y-78896666D01*
X126920952Y-78849047D01*
X127063809Y-78849047D01*
X127254285Y-78896666D01*
X127349523Y-78944285D01*
X127444761Y-79039523D01*
X127492380Y-79182380D01*
X127492380Y-79420476D01*
X127492380Y-77896666D02*
X127492380Y-78468095D01*
X127492380Y-78182380D02*
X126492380Y-78182380D01*
X126635238Y-78277619D01*
X126730476Y-78372857D01*
X126778095Y-78468095D01*
X126492380Y-77277619D02*
X126492380Y-77182380D01*
X126540000Y-77087142D01*
X126587619Y-77039523D01*
X126682857Y-76991904D01*
X126873333Y-76944285D01*
X127111428Y-76944285D01*
X127301904Y-76991904D01*
X127397142Y-77039523D01*
X127444761Y-77087142D01*
X127492380Y-77182380D01*
X127492380Y-77277619D01*
X127444761Y-77372857D01*
X127397142Y-77420476D01*
X127301904Y-77468095D01*
X127111428Y-77515714D01*
X126873333Y-77515714D01*
X126682857Y-77468095D01*
X126587619Y-77420476D01*
X126540000Y-77372857D01*
X126492380Y-77277619D01*
X126492380Y-76087142D02*
X126492380Y-76277619D01*
X126540000Y-76372857D01*
X126587619Y-76420476D01*
X126730476Y-76515714D01*
X126920952Y-76563333D01*
X127301904Y-76563333D01*
X127397142Y-76515714D01*
X127444761Y-76468095D01*
X127492380Y-76372857D01*
X127492380Y-76182380D01*
X127444761Y-76087142D01*
X127397142Y-76039523D01*
X127301904Y-75991904D01*
X127063809Y-75991904D01*
X126968571Y-76039523D01*
X126920952Y-76087142D01*
X126873333Y-76182380D01*
X126873333Y-76372857D01*
X126920952Y-76468095D01*
X126968571Y-76515714D01*
X127063809Y-76563333D01*
X132492380Y-79420476D02*
X131492380Y-79420476D01*
X131492380Y-79182380D01*
X131540000Y-79039523D01*
X131635238Y-78944285D01*
X131730476Y-78896666D01*
X131920952Y-78849047D01*
X132063809Y-78849047D01*
X132254285Y-78896666D01*
X132349523Y-78944285D01*
X132444761Y-79039523D01*
X132492380Y-79182380D01*
X132492380Y-79420476D01*
X132492380Y-77896666D02*
X132492380Y-78468095D01*
X132492380Y-78182380D02*
X131492380Y-78182380D01*
X131635238Y-78277619D01*
X131730476Y-78372857D01*
X131778095Y-78468095D01*
X131492380Y-77277619D02*
X131492380Y-77182380D01*
X131540000Y-77087142D01*
X131587619Y-77039523D01*
X131682857Y-76991904D01*
X131873333Y-76944285D01*
X132111428Y-76944285D01*
X132301904Y-76991904D01*
X132397142Y-77039523D01*
X132444761Y-77087142D01*
X132492380Y-77182380D01*
X132492380Y-77277619D01*
X132444761Y-77372857D01*
X132397142Y-77420476D01*
X132301904Y-77468095D01*
X132111428Y-77515714D01*
X131873333Y-77515714D01*
X131682857Y-77468095D01*
X131587619Y-77420476D01*
X131540000Y-77372857D01*
X131492380Y-77277619D01*
X131492380Y-76610952D02*
X131492380Y-75944285D01*
X132492380Y-76372857D01*
X119579523Y-119492380D02*
X119579523Y-118492380D01*
X119817619Y-118492380D01*
X119960476Y-118540000D01*
X120055714Y-118635238D01*
X120103333Y-118730476D01*
X120150952Y-118920952D01*
X120150952Y-119063809D01*
X120103333Y-119254285D01*
X120055714Y-119349523D01*
X119960476Y-119444761D01*
X119817619Y-119492380D01*
X119579523Y-119492380D01*
X121103333Y-119492380D02*
X120531904Y-119492380D01*
X120817619Y-119492380D02*
X120817619Y-118492380D01*
X120722380Y-118635238D01*
X120627142Y-118730476D01*
X120531904Y-118778095D01*
X121722380Y-118492380D02*
X121817619Y-118492380D01*
X121912857Y-118540000D01*
X121960476Y-118587619D01*
X122008095Y-118682857D01*
X122055714Y-118873333D01*
X122055714Y-119111428D01*
X122008095Y-119301904D01*
X121960476Y-119397142D01*
X121912857Y-119444761D01*
X121817619Y-119492380D01*
X121722380Y-119492380D01*
X121627142Y-119444761D01*
X121579523Y-119397142D01*
X121531904Y-119301904D01*
X121484285Y-119111428D01*
X121484285Y-118873333D01*
X121531904Y-118682857D01*
X121579523Y-118587619D01*
X121627142Y-118540000D01*
X121722380Y-118492380D01*
X122627142Y-118920952D02*
X122531904Y-118873333D01*
X122484285Y-118825714D01*
X122436666Y-118730476D01*
X122436666Y-118682857D01*
X122484285Y-118587619D01*
X122531904Y-118540000D01*
X122627142Y-118492380D01*
X122817619Y-118492380D01*
X122912857Y-118540000D01*
X122960476Y-118587619D01*
X123008095Y-118682857D01*
X123008095Y-118730476D01*
X122960476Y-118825714D01*
X122912857Y-118873333D01*
X122817619Y-118920952D01*
X122627142Y-118920952D01*
X122531904Y-118968571D01*
X122484285Y-119016190D01*
X122436666Y-119111428D01*
X122436666Y-119301904D01*
X122484285Y-119397142D01*
X122531904Y-119444761D01*
X122627142Y-119492380D01*
X122817619Y-119492380D01*
X122912857Y-119444761D01*
X122960476Y-119397142D01*
X123008095Y-119301904D01*
X123008095Y-119111428D01*
X122960476Y-119016190D01*
X122912857Y-118968571D01*
X122817619Y-118920952D01*
X119579523Y-138492380D02*
X119579523Y-137492380D01*
X119817619Y-137492380D01*
X119960476Y-137540000D01*
X120055714Y-137635238D01*
X120103333Y-137730476D01*
X120150952Y-137920952D01*
X120150952Y-138063809D01*
X120103333Y-138254285D01*
X120055714Y-138349523D01*
X119960476Y-138444761D01*
X119817619Y-138492380D01*
X119579523Y-138492380D01*
X121103333Y-138492380D02*
X120531904Y-138492380D01*
X120817619Y-138492380D02*
X120817619Y-137492380D01*
X120722380Y-137635238D01*
X120627142Y-137730476D01*
X120531904Y-137778095D01*
X121722380Y-137492380D02*
X121817619Y-137492380D01*
X121912857Y-137540000D01*
X121960476Y-137587619D01*
X122008095Y-137682857D01*
X122055714Y-137873333D01*
X122055714Y-138111428D01*
X122008095Y-138301904D01*
X121960476Y-138397142D01*
X121912857Y-138444761D01*
X121817619Y-138492380D01*
X121722380Y-138492380D01*
X121627142Y-138444761D01*
X121579523Y-138397142D01*
X121531904Y-138301904D01*
X121484285Y-138111428D01*
X121484285Y-137873333D01*
X121531904Y-137682857D01*
X121579523Y-137587619D01*
X121627142Y-137540000D01*
X121722380Y-137492380D01*
X122531904Y-138492380D02*
X122722380Y-138492380D01*
X122817619Y-138444761D01*
X122865238Y-138397142D01*
X122960476Y-138254285D01*
X123008095Y-138063809D01*
X123008095Y-137682857D01*
X122960476Y-137587619D01*
X122912857Y-137540000D01*
X122817619Y-137492380D01*
X122627142Y-137492380D01*
X122531904Y-137540000D01*
X122484285Y-137587619D01*
X122436666Y-137682857D01*
X122436666Y-137920952D01*
X122484285Y-138016190D01*
X122531904Y-138063809D01*
X122627142Y-138111428D01*
X122817619Y-138111428D01*
X122912857Y-138063809D01*
X122960476Y-138016190D01*
X123008095Y-137920952D01*
X105492380Y-131920476D02*
X104492380Y-131920476D01*
X104492380Y-131682380D01*
X104540000Y-131539523D01*
X104635238Y-131444285D01*
X104730476Y-131396666D01*
X104920952Y-131349047D01*
X105063809Y-131349047D01*
X105254285Y-131396666D01*
X105349523Y-131444285D01*
X105444761Y-131539523D01*
X105492380Y-131682380D01*
X105492380Y-131920476D01*
X105492380Y-130396666D02*
X105492380Y-130968095D01*
X105492380Y-130682380D02*
X104492380Y-130682380D01*
X104635238Y-130777619D01*
X104730476Y-130872857D01*
X104778095Y-130968095D01*
X105492380Y-129444285D02*
X105492380Y-130015714D01*
X105492380Y-129730000D02*
X104492380Y-129730000D01*
X104635238Y-129825238D01*
X104730476Y-129920476D01*
X104778095Y-130015714D01*
X104492380Y-128825238D02*
X104492380Y-128730000D01*
X104540000Y-128634761D01*
X104587619Y-128587142D01*
X104682857Y-128539523D01*
X104873333Y-128491904D01*
X105111428Y-128491904D01*
X105301904Y-128539523D01*
X105397142Y-128587142D01*
X105444761Y-128634761D01*
X105492380Y-128730000D01*
X105492380Y-128825238D01*
X105444761Y-128920476D01*
X105397142Y-128968095D01*
X105301904Y-129015714D01*
X105111428Y-129063333D01*
X104873333Y-129063333D01*
X104682857Y-129015714D01*
X104587619Y-128968095D01*
X104540000Y-128920476D01*
X104492380Y-128825238D01*
X111412380Y-71460476D02*
X110412380Y-71460476D01*
X110412380Y-71222380D01*
X110460000Y-71079523D01*
X110555238Y-70984285D01*
X110650476Y-70936666D01*
X110840952Y-70889047D01*
X110983809Y-70889047D01*
X111174285Y-70936666D01*
X111269523Y-70984285D01*
X111364761Y-71079523D01*
X111412380Y-71222380D01*
X111412380Y-71460476D01*
X111412380Y-69936666D02*
X111412380Y-70508095D01*
X111412380Y-70222380D02*
X110412380Y-70222380D01*
X110555238Y-70317619D01*
X110650476Y-70412857D01*
X110698095Y-70508095D01*
X111412380Y-68984285D02*
X111412380Y-69555714D01*
X111412380Y-69270000D02*
X110412380Y-69270000D01*
X110555238Y-69365238D01*
X110650476Y-69460476D01*
X110698095Y-69555714D01*
X111412380Y-68031904D02*
X111412380Y-68603333D01*
X111412380Y-68317619D02*
X110412380Y-68317619D01*
X110555238Y-68412857D01*
X110650476Y-68508095D01*
X110698095Y-68603333D01*
X129714285Y-119122380D02*
X129714285Y-119836666D01*
X129666666Y-119979523D01*
X129571428Y-120074761D01*
X129428571Y-120122380D01*
X129333333Y-120122380D01*
X130714285Y-120122380D02*
X130142857Y-120122380D01*
X130428571Y-120122380D02*
X130428571Y-119122380D01*
X130333333Y-119265238D01*
X130238095Y-119360476D01*
X130142857Y-119408095D01*
X131666666Y-120122380D02*
X131095238Y-120122380D01*
X131380952Y-120122380D02*
X131380952Y-119122380D01*
X131285714Y-119265238D01*
X131190476Y-119360476D01*
X131095238Y-119408095D01*
X132571428Y-119122380D02*
X132095238Y-119122380D01*
X132047619Y-119598571D01*
X132095238Y-119550952D01*
X132190476Y-119503333D01*
X132428571Y-119503333D01*
X132523809Y-119550952D01*
X132571428Y-119598571D01*
X132619047Y-119693809D01*
X132619047Y-119931904D01*
X132571428Y-120027142D01*
X132523809Y-120074761D01*
X132428571Y-120122380D01*
X132190476Y-120122380D01*
X132095238Y-120074761D01*
X132047619Y-120027142D01*
X129714285Y-50122380D02*
X129714285Y-50836666D01*
X129666666Y-50979523D01*
X129571428Y-51074761D01*
X129428571Y-51122380D01*
X129333333Y-51122380D01*
X130714285Y-51122380D02*
X130142857Y-51122380D01*
X130428571Y-51122380D02*
X130428571Y-50122380D01*
X130333333Y-50265238D01*
X130238095Y-50360476D01*
X130142857Y-50408095D01*
X131666666Y-51122380D02*
X131095238Y-51122380D01*
X131380952Y-51122380D02*
X131380952Y-50122380D01*
X131285714Y-50265238D01*
X131190476Y-50360476D01*
X131095238Y-50408095D01*
X132000000Y-50122380D02*
X132666666Y-50122380D01*
X132238095Y-51122380D01*
X184214285Y-119122380D02*
X184214285Y-119836666D01*
X184166666Y-119979523D01*
X184071428Y-120074761D01*
X183928571Y-120122380D01*
X183833333Y-120122380D01*
X185214285Y-120122380D02*
X184642857Y-120122380D01*
X184928571Y-120122380D02*
X184928571Y-119122380D01*
X184833333Y-119265238D01*
X184738095Y-119360476D01*
X184642857Y-119408095D01*
X186166666Y-120122380D02*
X185595238Y-120122380D01*
X185880952Y-120122380D02*
X185880952Y-119122380D01*
X185785714Y-119265238D01*
X185690476Y-119360476D01*
X185595238Y-119408095D01*
X187023809Y-119122380D02*
X186833333Y-119122380D01*
X186738095Y-119170000D01*
X186690476Y-119217619D01*
X186595238Y-119360476D01*
X186547619Y-119550952D01*
X186547619Y-119931904D01*
X186595238Y-120027142D01*
X186642857Y-120074761D01*
X186738095Y-120122380D01*
X186928571Y-120122380D01*
X187023809Y-120074761D01*
X187071428Y-120027142D01*
X187119047Y-119931904D01*
X187119047Y-119693809D01*
X187071428Y-119598571D01*
X187023809Y-119550952D01*
X186928571Y-119503333D01*
X186738095Y-119503333D01*
X186642857Y-119550952D01*
X186595238Y-119598571D01*
X186547619Y-119693809D01*
X184214285Y-50122380D02*
X184214285Y-50836666D01*
X184166666Y-50979523D01*
X184071428Y-51074761D01*
X183928571Y-51122380D01*
X183833333Y-51122380D01*
X185214285Y-51122380D02*
X184642857Y-51122380D01*
X184928571Y-51122380D02*
X184928571Y-50122380D01*
X184833333Y-50265238D01*
X184738095Y-50360476D01*
X184642857Y-50408095D01*
X186166666Y-51122380D02*
X185595238Y-51122380D01*
X185880952Y-51122380D02*
X185880952Y-50122380D01*
X185785714Y-50265238D01*
X185690476Y-50360476D01*
X185595238Y-50408095D01*
X186738095Y-50550952D02*
X186642857Y-50503333D01*
X186595238Y-50455714D01*
X186547619Y-50360476D01*
X186547619Y-50312857D01*
X186595238Y-50217619D01*
X186642857Y-50170000D01*
X186738095Y-50122380D01*
X186928571Y-50122380D01*
X187023809Y-50170000D01*
X187071428Y-50217619D01*
X187119047Y-50312857D01*
X187119047Y-50360476D01*
X187071428Y-50455714D01*
X187023809Y-50503333D01*
X186928571Y-50550952D01*
X186738095Y-50550952D01*
X186642857Y-50598571D01*
X186595238Y-50646190D01*
X186547619Y-50741428D01*
X186547619Y-50931904D01*
X186595238Y-51027142D01*
X186642857Y-51074761D01*
X186738095Y-51122380D01*
X186928571Y-51122380D01*
X187023809Y-51074761D01*
X187071428Y-51027142D01*
X187119047Y-50931904D01*
X187119047Y-50741428D01*
X187071428Y-50646190D01*
X187023809Y-50598571D01*
X186928571Y-50550952D01*
X115704761Y-66985714D02*
X115752380Y-66842857D01*
X115752380Y-66604761D01*
X115704761Y-66509523D01*
X115657142Y-66461904D01*
X115561904Y-66414285D01*
X115466666Y-66414285D01*
X115371428Y-66461904D01*
X115323809Y-66509523D01*
X115276190Y-66604761D01*
X115228571Y-66795238D01*
X115180952Y-66890476D01*
X115133333Y-66938095D01*
X115038095Y-66985714D01*
X114942857Y-66985714D01*
X114847619Y-66938095D01*
X114800000Y-66890476D01*
X114752380Y-66795238D01*
X114752380Y-66557142D01*
X114800000Y-66414285D01*
X114752380Y-66080952D02*
X115752380Y-65842857D01*
X115038095Y-65652380D01*
X115752380Y-65461904D01*
X114752380Y-65223809D01*
X115752380Y-64319047D02*
X115752380Y-64890476D01*
X115752380Y-64604761D02*
X114752380Y-64604761D01*
X114895238Y-64700000D01*
X114990476Y-64795238D01*
X115038095Y-64890476D01*
X114752380Y-63700000D02*
X114752380Y-63604761D01*
X114800000Y-63509523D01*
X114847619Y-63461904D01*
X114942857Y-63414285D01*
X115133333Y-63366666D01*
X115371428Y-63366666D01*
X115561904Y-63414285D01*
X115657142Y-63461904D01*
X115704761Y-63509523D01*
X115752380Y-63604761D01*
X115752380Y-63700000D01*
X115704761Y-63795238D01*
X115657142Y-63842857D01*
X115561904Y-63890476D01*
X115371428Y-63938095D01*
X115133333Y-63938095D01*
X114942857Y-63890476D01*
X114847619Y-63842857D01*
X114800000Y-63795238D01*
X114752380Y-63700000D01*
X115752380Y-62414285D02*
X115752380Y-62985714D01*
X115752380Y-62700000D02*
X114752380Y-62700000D01*
X114895238Y-62795238D01*
X114990476Y-62890476D01*
X115038095Y-62985714D01*
X195785714Y-133452380D02*
X195785714Y-132452380D01*
X195785714Y-132928571D02*
X196357142Y-132928571D01*
X196357142Y-133452380D02*
X196357142Y-132452380D01*
X197357142Y-133452380D02*
X196785714Y-133452380D01*
X197071428Y-133452380D02*
X197071428Y-132452380D01*
X196976190Y-132595238D01*
X196880952Y-132690476D01*
X196785714Y-132738095D01*
X197976190Y-132452380D02*
X198071428Y-132452380D01*
X198166666Y-132500000D01*
X198214285Y-132547619D01*
X198261904Y-132642857D01*
X198309523Y-132833333D01*
X198309523Y-133071428D01*
X198261904Y-133261904D01*
X198214285Y-133357142D01*
X198166666Y-133404761D01*
X198071428Y-133452380D01*
X197976190Y-133452380D01*
X197880952Y-133404761D01*
X197833333Y-133357142D01*
X197785714Y-133261904D01*
X197738095Y-133071428D01*
X197738095Y-132833333D01*
X197785714Y-132642857D01*
X197833333Y-132547619D01*
X197880952Y-132500000D01*
X197976190Y-132452380D01*
X199261904Y-133452380D02*
X198690476Y-133452380D01*
X198976190Y-133452380D02*
X198976190Y-132452380D01*
X198880952Y-132595238D01*
X198785714Y-132690476D01*
X198690476Y-132738095D01*
X188785714Y-70452380D02*
X188785714Y-69452380D01*
X188785714Y-69928571D02*
X189357142Y-69928571D01*
X189357142Y-70452380D02*
X189357142Y-69452380D01*
X190357142Y-70452380D02*
X189785714Y-70452380D01*
X190071428Y-70452380D02*
X190071428Y-69452380D01*
X189976190Y-69595238D01*
X189880952Y-69690476D01*
X189785714Y-69738095D01*
X190976190Y-69452380D02*
X191071428Y-69452380D01*
X191166666Y-69500000D01*
X191214285Y-69547619D01*
X191261904Y-69642857D01*
X191309523Y-69833333D01*
X191309523Y-70071428D01*
X191261904Y-70261904D01*
X191214285Y-70357142D01*
X191166666Y-70404761D01*
X191071428Y-70452380D01*
X190976190Y-70452380D01*
X190880952Y-70404761D01*
X190833333Y-70357142D01*
X190785714Y-70261904D01*
X190738095Y-70071428D01*
X190738095Y-69833333D01*
X190785714Y-69642857D01*
X190833333Y-69547619D01*
X190880952Y-69500000D01*
X190976190Y-69452380D01*
X191690476Y-69547619D02*
X191738095Y-69500000D01*
X191833333Y-69452380D01*
X192071428Y-69452380D01*
X192166666Y-69500000D01*
X192214285Y-69547619D01*
X192261904Y-69642857D01*
X192261904Y-69738095D01*
X192214285Y-69880952D01*
X191642857Y-70452380D01*
X192261904Y-70452380D01*
X153285714Y-68952380D02*
X153285714Y-67952380D01*
X153285714Y-68428571D02*
X153857142Y-68428571D01*
X153857142Y-68952380D02*
X153857142Y-67952380D01*
X154857142Y-68952380D02*
X154285714Y-68952380D01*
X154571428Y-68952380D02*
X154571428Y-67952380D01*
X154476190Y-68095238D01*
X154380952Y-68190476D01*
X154285714Y-68238095D01*
X155476190Y-67952380D02*
X155571428Y-67952380D01*
X155666666Y-68000000D01*
X155714285Y-68047619D01*
X155761904Y-68142857D01*
X155809523Y-68333333D01*
X155809523Y-68571428D01*
X155761904Y-68761904D01*
X155714285Y-68857142D01*
X155666666Y-68904761D01*
X155571428Y-68952380D01*
X155476190Y-68952380D01*
X155380952Y-68904761D01*
X155333333Y-68857142D01*
X155285714Y-68761904D01*
X155238095Y-68571428D01*
X155238095Y-68333333D01*
X155285714Y-68142857D01*
X155333333Y-68047619D01*
X155380952Y-68000000D01*
X155476190Y-67952380D01*
X156142857Y-67952380D02*
X156761904Y-67952380D01*
X156428571Y-68333333D01*
X156571428Y-68333333D01*
X156666666Y-68380952D01*
X156714285Y-68428571D01*
X156761904Y-68523809D01*
X156761904Y-68761904D01*
X156714285Y-68857142D01*
X156666666Y-68904761D01*
X156571428Y-68952380D01*
X156285714Y-68952380D01*
X156190476Y-68904761D01*
X156142857Y-68857142D01*
X158285714Y-127252380D02*
X158285714Y-126252380D01*
X158285714Y-126728571D02*
X158857142Y-126728571D01*
X158857142Y-127252380D02*
X158857142Y-126252380D01*
X159857142Y-127252380D02*
X159285714Y-127252380D01*
X159571428Y-127252380D02*
X159571428Y-126252380D01*
X159476190Y-126395238D01*
X159380952Y-126490476D01*
X159285714Y-126538095D01*
X160476190Y-126252380D02*
X160571428Y-126252380D01*
X160666666Y-126300000D01*
X160714285Y-126347619D01*
X160761904Y-126442857D01*
X160809523Y-126633333D01*
X160809523Y-126871428D01*
X160761904Y-127061904D01*
X160714285Y-127157142D01*
X160666666Y-127204761D01*
X160571428Y-127252380D01*
X160476190Y-127252380D01*
X160380952Y-127204761D01*
X160333333Y-127157142D01*
X160285714Y-127061904D01*
X160238095Y-126871428D01*
X160238095Y-126633333D01*
X160285714Y-126442857D01*
X160333333Y-126347619D01*
X160380952Y-126300000D01*
X160476190Y-126252380D01*
X161666666Y-126585714D02*
X161666666Y-127252380D01*
X161428571Y-126204761D02*
X161190476Y-126919047D01*
X161809523Y-126919047D01*
M02*
